<svg width="36" height="40" viewBox="0 0 36 40" fill="none" xmlns="http://www.w3.org/2000/svg">
<path d="M0.518633 1.32416L3.11471 34.5363C3.15369 35.035 3.49127 35.4603 3.96816 35.6115L17.6288 39.9426C17.8704 40.0192 18.1297 40.0192 18.3713 39.9426L32.0319 35.6115C32.5088 35.4603 32.8464 35.035 32.8854 34.5363L35.4815 1.32416C35.5373 0.610116 34.973 0 34.2568 0H1.74338C1.02722 0 0.462892 0.610116 0.518633 1.32416ZM28.824 11.6288H11.9048L12.4154 16.3373H28.456L27.4067 29.7607L18.0001 32.743L8.5935 29.7607L8.0453 22.7478H12.9826V26.1877L18.132 27.5697L23.2507 26.1877L23.6478 20.7054H7.88563L6.83917 7.31725H29.1609L28.824 11.6288Z" fill="white"/>
</svg>

