<svg xmlns="http://www.w3.org/2000/svg" width="191" height="124" viewBox="0 0 191 124" fill="none">
<path d="M8.61637 123.674C8.77797 123.835 40.346 113.001 40.346 113.001L28.2073 85.1777L0.108887 95.9081L15.5649 104.777L8.61637 123.674Z" fill="#455A64"/>
<path d="M23.4258 93.5629V55.6743C23.4258 55.6743 66.9708 47.7262 98.3392 48.1915C129.708 48.6568 162.017 53.8036 162.017 53.8036V90.1728C162.017 90.1728 63.6914 81.3986 23.4258 93.5629Z" fill="#455A64"/>
<path d="M23.1978 93.5919L40.3458 113.163V90.1733C40.3458 90.1733 26.0019 91.8921 23.1978 93.5919Z" fill="#263238"/>
<path d="M23.4264 55.6743C23.5595 55.6743 23.626 64.1636 23.5595 74.6376C23.4929 85.1116 23.3313 93.6009 23.1982 93.6009C23.0652 93.6009 22.9986 85.1116 23.0652 74.6376C23.1222 64.1636 23.2838 55.6743 23.4264 55.6743Z" fill="#263238"/>
<path d="M176.77 120.769C176.608 120.93 145.04 110.095 145.04 110.095L157.179 82.2725L185.277 93.0028L169.821 101.872L176.77 120.769Z" fill="#455A64"/>
<path d="M162.188 90.6859L145.04 110.257V88.9292C150.762 89.1191 156.475 89.7079 162.188 90.6859Z" fill="#263238"/>
<path d="M162.017 53.8032C162.15 53.8032 162.302 62.0551 162.35 72.2442C162.397 82.4333 162.331 90.6852 162.188 90.6852C162.055 90.6852 161.903 82.4333 161.856 72.2442C161.808 62.0646 161.875 53.8032 162.017 53.8032Z" fill="#263238"/>
<path d="M47.9789 72.2826C47.5607 69.263 49.5853 66.775 52.7032 66.3477C54.4332 66.1103 55.9731 66.5376 57.0757 67.5537L55.7735 69.13C54.994 68.4463 54.091 68.1709 53.0929 68.3039C51.2203 68.5603 50.0701 70.0606 50.3268 71.9598C50.5929 73.8495 52.1043 74.9795 53.9864 74.7231C54.994 74.5806 55.783 74.0679 56.3438 73.1848L58.0263 74.3527C57.2373 75.6442 55.878 76.4703 54.129 76.7172C51.0207 77.1445 48.3971 75.3118 47.9789 72.2826Z" fill="white"/>
<path d="M58.3495 70.8581C58.0453 67.8669 60.1461 65.4169 63.3209 65.0846C66.4863 64.7617 69.0623 66.7179 69.3665 69.7186C69.6802 72.7193 67.5604 75.1597 64.3951 75.492C61.2202 75.8244 58.6632 73.8493 58.3495 70.8581ZM67.0186 69.9654C66.819 68.0568 65.3361 66.8888 63.5396 67.0692C61.743 67.2496 60.5263 68.7025 60.7164 70.6112C60.916 72.5198 62.3989 73.6878 64.1954 73.5074C65.992 73.327 67.2087 71.8836 67.0186 69.9654Z" fill="white"/>
<path d="M80.754 74.0205L80.3453 67.9621L77.6932 73.1374L76.6381 73.2038L73.3682 68.5319L73.7484 74.4573L71.5526 74.5997L70.9062 64.5056L72.8359 64.3821L77.0183 70.412L80.3358 63.8979L82.2559 63.7744L82.9308 73.8685L80.754 74.0205Z" fill="white"/>
<path d="M93.8433 67.1171C93.9098 69.3676 92.2558 70.8205 89.5468 70.8964L87.5031 70.9534L87.5791 73.7452L85.2407 73.8117L84.9556 63.6985L89.3376 63.5751C92.0467 63.4896 93.7767 64.8475 93.8433 67.1171ZM91.4669 67.1835C91.4384 66.0725 90.6969 65.4458 89.2616 65.4838L87.351 65.5407L87.446 69.0542L89.3566 68.9972C90.792 68.9498 91.4954 68.2756 91.4669 67.1835Z" fill="white"/>
<path d="M95.6211 63.4419H97.9595V71.6463H103.035V73.555H95.6211V63.4419Z" fill="white"/>
<path d="M112.17 71.9315L112.113 73.8117L104.271 73.5838L104.566 63.4707L112.218 63.6891L112.161 65.5693L106.837 65.4174L106.771 67.6109L111.467 67.7438L111.41 69.5671L106.714 69.4341L106.647 71.7701L112.17 71.9315Z" fill="white"/>
<path d="M116.495 65.8442L113.263 65.6448L113.377 63.7456L122.179 64.2774L122.065 66.1765L118.833 65.9771L118.339 74.1626L116.001 74.0201L116.495 65.8442Z" fill="white"/>
<path d="M130.706 73.3177L130.535 75.1884L122.73 74.4667L123.662 64.3916L131.285 65.0943L131.114 66.965L125.81 66.4712L125.611 68.6552L130.287 69.0921L130.116 70.9058L125.44 70.469L125.221 72.7955L130.706 73.3177Z" fill="white"/>
<path d="M133.633 65.3501L138.186 65.9578C141.466 66.3947 143.453 68.6737 143.044 71.7028C142.635 74.7415 140.126 76.4128 136.846 75.976L132.293 75.3683L133.633 65.3501ZM136.989 74.0578C138.985 74.3237 140.439 73.3076 140.696 71.3895C140.953 69.4713 139.812 68.1039 137.816 67.8475L135.696 67.5626L134.869 73.7729L136.989 74.0578Z" fill="white"/>
<path d="M181.494 57.2503L183.985 60.1655L191 57.2503L188.946 54.1831L181.494 57.2503Z" fill="#455A64"/>
<path d="M178.281 43.3862C178.281 45.3993 176.646 47.0326 174.631 47.0326C172.615 47.0326 170.98 45.3993 170.98 43.3862C170.98 41.3731 172.615 39.7398 174.631 39.7398C176.646 39.7303 178.281 41.3636 178.281 43.3862Z" fill="#2B75CD"/>
<path d="M96.5144 97.7695C96.5144 98.7761 95.6969 99.5927 94.6893 99.5927C93.6817 99.5927 92.8643 98.7761 92.8643 97.7695C92.8643 96.7629 93.6817 95.9463 94.6893 95.9463C95.6969 95.9463 96.5144 96.7629 96.5144 97.7695Z" fill="#2B75CD"/>
<path d="M11.487 57.5617C11.487 58.3309 10.8692 58.9481 10.0992 58.9481C9.32929 58.9481 8.71143 58.3309 8.71143 57.5617C8.71143 56.7925 9.32929 56.1753 10.0992 56.1753C10.8597 56.1848 11.487 56.802 11.487 57.5617Z" fill="#2B75CD"/>
<path d="M6.33496 42.302L10.4224 42.5489L12.371 34.5249L8.54976 34.6768L6.33496 42.302Z" fill="#455A64"/>
<path d="M134.09 119.23L135.468 123.085L143.624 121.727L141.979 118.271L134.09 119.23Z" fill="#2B75CD"/>
<path d="M51.601 96.981L49.082 100.219L54.6048 106.353L56.639 103.125L51.601 96.981Z" fill="#455A64"/>
<path d="M41.8384 21.1382L51.4865 30.9759L65.0795 25.8386L65.6118 29.2097L59.7278 41.2505L65.1555 50.2336L64.6993 52.9114L51.5531 50.6989L43.7775 59.2262L41.9619 57.8398L40.346 47.005L28.0838 40.6237L27.542 38.1548L39.8897 34.7743L41.8384 21.1382Z" fill="#2B75CD"/>
<g opacity="0.3">
<path opacity="0.3" d="M41.8384 21.1382L51.4865 30.9759L65.0795 25.8386L65.6118 29.2097L59.7278 41.2505L65.1555 50.2336L64.6993 52.9114L51.5531 50.6989L43.7775 59.2262L41.9619 57.8398L40.346 47.005L28.0838 40.6237L27.542 38.1548L39.8897 34.7743L41.8384 21.1382Z" fill="black"/>
</g>
<path d="M41.8384 18.3745L51.4865 28.2122L65.0795 25.8383L58.7012 38.0595L65.1555 50.2332L51.5531 47.9447L41.9619 57.8394L39.9278 44.2128L27.542 38.1544L39.8897 32.0201L41.8384 18.3745Z" fill="#2B75CD"/>
<path d="M141.885 21.1382L132.227 30.9759L118.644 25.8386L118.102 29.2097L123.986 41.2505L118.568 50.2336L119.015 52.9114L132.161 50.6989L139.936 59.2262L141.761 57.8398L143.368 47.005L155.63 40.6237L156.172 38.1548L143.824 34.7743L141.885 21.1382Z" fill="#2B75CD"/>
<g opacity="0.3">
<path opacity="0.3" d="M141.885 21.1382L132.227 30.9759L118.644 25.8386L118.102 29.2097L123.986 41.2505L118.568 50.2336L119.015 52.9114L132.161 50.6989L139.936 59.2262L141.761 57.8398L143.368 47.005L155.63 40.6237L156.172 38.1548L143.824 34.7743L141.885 21.1382Z" fill="black"/>
</g>
<path d="M141.885 18.3745L132.227 28.2122L118.644 25.8383L125.022 38.0595L118.568 50.2332L132.161 47.9447L141.761 57.8394L143.786 44.2128L156.172 38.1544L143.824 32.0201L141.885 18.3745Z" fill="#2B75CD"/>
<path d="M91.5432 3.88379L99.5754 19.5615L118.102 18.4695L117.474 22.7806L105.706 35.2297L108.9 48.258L107.322 51.3537L92.123 43.6525L79.3951 51.0973L77.6936 48.7138L79.8609 34.8783L67.3325 22.4292L67.6177 19.2101L83.9768 19.7894L91.5432 3.88379Z" fill="#2B75CD"/>
<g opacity="0.3">
<path opacity="0.3" d="M91.5432 3.88379L99.5754 19.5615L118.102 18.4695L117.474 22.7806L105.706 35.2297L108.9 48.258L107.322 51.3537L92.123 43.6525L79.3951 51.0973L77.6936 48.7138L79.8609 34.8783L67.3325 22.4292L67.6177 19.2101L83.9768 19.7894L91.5432 3.88379Z" fill="black"/>
</g>
<path d="M92.5888 0.521973L100.621 16.1997L118.102 18.4692L105.659 30.9468L108.9 48.2578L93.1781 40.2907L77.6936 48.7136L80.4217 31.3171L67.6177 19.2099L85.0224 16.4276L92.5888 0.521973Z" fill="#2B75CD"/>
</svg>