<svg width="189" height="99" viewBox="0 0 189 99" fill="none" xmlns="http://www.w3.org/2000/svg">
<path d="M0 17.1191C2.84335 17.1191 5.69073 17.1191 8.62658 17.1191C8.62658 18.9488 8.62658 20.731 8.62658 22.7464C10.919 18.0438 14.7798 16.3366 19.5656 16.4394C24.3917 16.5421 28.0555 18.6682 30.2312 22.9598C30.9994 21.9956 31.6992 20.9444 32.5719 20.0632C34.7999 17.8106 37.599 16.7358 40.7561 16.4789C42.8433 16.309 44.8984 16.4868 46.8892 17.1468C50.569 18.3599 52.8333 20.9523 54.1323 24.4457C55.0653 26.9551 55.3267 29.5751 55.3308 32.2268C55.3388 38.3994 55.3348 44.5721 55.3348 50.7448C55.3348 50.8989 55.3147 51.057 55.2986 51.2743C52.4874 51.2743 49.6883 51.2743 46.7927 51.2743C46.7927 50.9661 46.7927 50.6618 46.7927 50.3575C46.7927 44.6275 46.8248 38.9013 46.7685 33.1712C46.7565 31.8553 46.5996 30.4959 46.2296 29.2353C45.4695 26.6547 43.6839 24.9989 40.9169 24.6907C37.784 24.3429 35.1176 25.2321 33.3923 28.03C32.5477 29.3973 32.1295 30.9148 32.1134 32.5034C32.0531 38.4113 32.0289 44.3192 31.9968 50.2311C31.9968 50.567 31.9968 50.9029 31.9968 51.2902C29.1011 51.2902 26.2698 51.2902 23.3461 51.2902C23.3461 50.9622 23.3461 50.6539 23.3461 50.3496C23.342 44.2283 23.3581 38.107 23.3139 31.9857C23.2978 30.0098 22.779 28.1327 21.3995 26.6271C19.26 24.2916 16.5534 24.2125 13.7663 25.0859C10.5731 26.0857 9.16951 28.5318 8.79951 31.6419C8.67082 32.7286 8.6668 33.8351 8.66278 34.9298C8.65071 40.0552 8.65875 45.1847 8.65875 50.3101C8.65875 50.6184 8.65875 50.9305 8.65875 51.3415C5.73497 51.3415 2.86748 51.3415 0.00402181 51.3415C9.21397e-08 39.9288 0 28.5239 0 17.1191Z" fill="#111B20"/>
<path d="M89.1367 21.1737C89.1367 19.9961 89.1367 18.605 89.1367 17.1666C92.0283 17.1666 94.8395 17.1666 97.715 17.1666C97.715 28.5043 97.715 39.8617 97.715 51.2744C94.9079 51.2744 92.0806 51.2744 89.1809 51.2744C89.1809 49.8478 89.1809 48.4212 89.1809 46.9472C89.0362 46.9947 88.9437 46.9947 88.9075 47.0421C86.6191 50.0849 83.3736 51.4839 79.7058 51.9146C74.0834 52.5785 69.189 50.9306 65.2477 46.8801C62.4084 43.9636 60.9686 40.3991 60.5584 36.4078C60.12 32.1597 60.7313 28.0854 63.0116 24.4181C66.5628 18.7078 71.8795 16.151 78.64 16.4632C81.7649 16.6094 84.6284 17.546 87.1057 19.4823C87.8256 20.0474 88.5133 20.6521 89.1367 21.1737ZM78.9055 24.3272C73.3756 24.3312 69.185 28.5398 69.1769 34.096C69.1689 39.6997 73.4319 44.0822 78.9135 44.098C84.5399 44.1178 89.004 39.6957 88.9959 34.1197C88.9839 28.6742 84.4997 24.3233 78.9055 24.3272Z" fill="#111B20"/>
<path d="M163.162 21.1935C163.162 19.9922 163.162 18.5972 163.162 17.1627C166.053 17.1627 168.864 17.1627 171.736 17.1627C171.736 28.5122 171.736 39.8696 171.736 51.2784C168.917 51.2784 166.089 51.2784 163.19 51.2784C163.19 49.84 163.19 48.4173 163.19 46.8485C162.514 47.548 161.987 48.1921 161.364 48.7216C158.533 51.1243 155.142 52.0846 151.487 52.0609C146.669 52.0293 142.506 50.3103 139.196 46.8208C136.341 43.8056 134.901 40.17 134.543 36.0878C134.165 31.7764 134.865 27.6705 137.278 24.0111C140.853 18.5932 146.057 16.1668 152.58 16.4593C155.733 16.6015 158.625 17.5342 161.123 19.4903C161.842 20.0554 162.522 20.66 163.162 21.1935ZM152.906 24.3273C147.38 24.3352 143.19 28.5478 143.186 34.104C143.182 39.7037 147.453 44.0862 152.93 44.0981C158.561 44.1099 163.021 39.6879 163.005 34.1119C162.993 28.6663 158.508 24.3194 152.906 24.3273Z" fill="#111B20"/>
<path d="M129.965 27.046C127.242 27.046 124.54 27.046 121.845 27.046C120.968 23.5249 117.272 22.0549 114.204 23.9833C111.956 25.3981 112.008 28.2236 114.417 29.3103C115.917 29.99 117.582 30.322 119.187 30.7685C121.66 31.4562 124.19 31.962 126.43 33.3016C131.3 36.2141 132.66 42.3275 129.366 46.8444C127.6 49.2629 125.058 50.6025 122.191 51.3573C117.514 52.5903 112.965 52.3334 108.702 49.911C105.252 47.9469 103.277 44.9989 102.967 41.0432C102.959 40.9444 102.979 40.8416 102.987 40.6994C105.662 40.6994 108.312 40.6994 111.031 40.6994C111.308 43.0467 112.732 44.4259 115.02 44.9713C116.886 45.4139 118.724 45.2518 120.458 44.4101C121.938 43.6909 122.585 42.5132 122.44 41.0629C122.324 39.9051 121.604 39.174 120.594 38.8104C119.155 38.2927 117.663 37.9094 116.179 37.5182C113.798 36.8899 111.409 36.3129 109.201 35.159C103.804 32.3374 102.919 26.5204 104.849 22.7148C106.213 20.0237 108.493 18.2928 111.332 17.3522C116.267 15.7202 121.093 16.0165 125.581 18.7433C128.537 20.5413 129.913 23.3155 130.025 26.7061C130.033 26.8089 129.997 26.9077 129.965 27.046Z" fill="#111B20"/>
<path d="M187.954 17.1903C187.954 28.5596 187.954 39.8972 187.954 51.2823C185.095 51.2823 182.267 51.2823 179.388 51.2823C179.388 39.9249 179.388 28.5912 179.388 17.1903C182.207 17.1903 185.034 17.1903 187.954 17.1903Z" fill="#111B20"/>
<path d="M187.955 17.1903H179.393V40.1976L187.955 29.8321V17.1903Z" fill="#D71920"/>
<path d="M183.636 9.49218C186.303 9.49218 188.466 7.36728 188.466 4.74609C188.466 2.1249 186.303 0 183.636 0C180.968 0 178.806 2.1249 178.806 4.74609C178.806 7.36728 180.968 9.49218 183.636 9.49218Z" fill="#111B20"/>
<path d="M60.7896 98.5625H65.5038V86.272C66.8285 84.3628 68.6207 83.3684 70.8414 83.3684C71.4648 83.3684 71.9323 83.4479 72.3999 83.5673V78.9534C71.9713 78.834 71.5427 78.7943 71.1142 78.7943C68.8544 78.7943 66.8674 79.8682 65.5428 81.7774L65.4648 81.7376V78.9931H60.7896V98.5625Z" fill="#111B20"/>
<path d="M93.205 90.0904C93.2829 89.5733 93.3218 88.7778 93.3218 88.1414C93.3218 81.8569 89.1141 78.5556 84.3608 78.5556C79.1401 78.5556 74.5817 82.6127 74.5817 88.8176C74.5817 94.9429 79.1011 99 85.2569 99C87.7504 99 90.4777 98.3238 92.2699 97.1703V92.7553C90.3998 94.1077 88.14 95.0225 85.7245 95.0225C82.4907 95.0225 79.9583 93.3519 79.3739 90.0904H93.205ZM79.3739 86.7493C79.9583 83.8059 82.1401 82.4536 84.3219 82.4536C86.4647 82.4536 88.5686 83.8059 88.9193 86.7493H79.3739Z" fill="#111B20"/>
<path d="M99.2597 98.5625H103.974V83.09H108.649V78.9931H103.974V75.2145C103.974 73.3451 104.403 71.9132 106.506 71.9132C107.208 71.9132 108.416 72.0723 109.156 72.2712V68.2141C108.299 67.8959 107.169 67.7368 106.078 67.7368C104.325 67.7368 102.416 68.1743 101.13 69.4471C99.7272 70.8393 99.2597 73.0269 99.2597 75.652V78.9931H96.3766V83.09H99.2597V98.5625Z" fill="#111B20"/>
<path d="M112.6 98.5625H117.314V86.272C118.639 84.3628 120.431 83.3684 122.652 83.3684C123.275 83.3684 123.743 83.4479 124.21 83.5673V78.9534C123.782 78.834 123.353 78.7943 122.924 78.7943C120.665 78.7943 118.678 79.8682 117.353 81.7774L117.275 81.7376V78.9931H112.6V98.5625Z" fill="#111B20"/>
<path d="M145.015 90.0904C145.093 89.5733 145.132 88.7778 145.132 88.1414C145.132 81.8569 140.924 78.5556 136.171 78.5556C130.95 78.5556 126.392 82.6127 126.392 88.8176C126.392 94.9429 130.911 99 137.067 99C139.561 99 142.288 98.3238 144.08 97.1703V92.7553C142.21 94.1077 139.95 95.0225 137.535 95.0225C134.301 95.0225 131.769 93.3519 131.184 90.0904H145.015ZM131.184 86.7493C131.769 83.8059 133.95 82.4536 136.132 82.4536C138.275 82.4536 140.379 83.8059 140.73 86.7493H131.184Z" fill="#111B20"/>
<path d="M149.512 97.3692C151.654 98.4829 154.499 99 156.875 99C161.395 99 165.213 96.9715 165.213 92.5564C165.213 88.8176 162.602 87.6243 158.94 86.8288C156.096 86.2322 153.68 86.272 153.68 84.4423C153.68 83.09 155.005 82.4933 157.031 82.4933C158.979 82.4933 161.784 83.1297 164.122 84.4821V80.1068C162.096 79.0329 159.33 78.5556 157.031 78.5556C152.434 78.5556 148.966 80.7035 148.927 84.8003C148.927 88.3403 151.421 89.6528 155.083 90.4483C158.005 91.0847 160.46 91.0052 160.46 92.9542C160.46 94.4258 159.096 95.0623 156.953 95.0623C154.849 95.0623 151.927 94.3861 149.512 92.8746V97.3692Z" fill="#111B20"/>
<path d="M169.813 98.5625H174.527V85.2776C175.774 83.9252 177.683 82.8115 179.592 82.8115C180.605 82.8115 181.462 83.1297 182.086 83.8855C182.631 84.5219 182.865 85.3969 182.865 87.2266V98.5625H187.579V86.3913C187.579 83.4877 187.073 81.8569 185.943 80.6239C184.735 79.2716 182.943 78.5556 180.878 78.5556C178.345 78.5556 176.163 79.6693 174.605 81.141L174.527 81.1012V68.1743H169.813V98.5625Z" fill="#111B20"/>
</svg>
