<svg width="117" height="65" viewBox="0 0 117 65" fill="none" xmlns="http://www.w3.org/2000/svg">
<path d="M0 10.5811C1.75745 10.5811 3.51738 10.5811 5.332 10.5811C5.332 11.712 5.332 12.8136 5.332 14.0593C6.7489 11.1527 9.13525 10.0975 12.0933 10.161C15.0763 10.2245 17.3408 11.5386 18.6856 14.1912C19.1604 13.5952 19.5929 12.9455 20.1323 12.4008C21.5095 11.0086 23.2396 10.3442 25.1909 10.1854C26.481 10.0804 27.7513 10.1903 28.9817 10.5982C31.2562 11.3481 32.6557 12.9504 33.4586 15.1096C34.0353 16.6606 34.1969 18.2801 34.1994 19.919C34.2043 23.7343 34.2019 27.5496 34.2019 31.3648C34.2019 31.4601 34.1894 31.5578 34.1795 31.6921C32.4419 31.6921 30.7118 31.6921 28.9221 31.6921C28.9221 31.5016 28.9221 31.3135 28.9221 31.1255C28.9221 27.5838 28.9419 24.0445 28.9071 20.5028C28.8997 19.6894 28.8027 18.8492 28.5741 18.07C28.1042 16.475 27.0006 15.4516 25.2903 15.2611C23.3539 15.0461 21.7058 15.5957 20.6394 17.325C20.1174 18.1701 19.8589 19.1081 19.849 20.09C19.8117 23.7416 19.7968 27.3932 19.7769 31.0473C19.7769 31.2549 19.7769 31.4625 19.7769 31.7019C17.9871 31.7019 16.2371 31.7019 14.43 31.7019C14.43 31.4992 14.43 31.3087 14.43 31.1206C14.4275 27.3371 14.4374 23.5535 14.4101 19.77C14.4001 18.5487 14.0795 17.3885 13.2268 16.4579C11.9044 15.0144 10.2315 14.9655 8.50883 15.5053C6.53512 16.1233 5.66758 17.6352 5.43889 19.5575C5.35934 20.2292 5.35686 20.9131 5.35437 21.5897C5.34692 24.7577 5.35189 27.9282 5.35189 31.0962C5.35189 31.2867 5.35189 31.4796 5.35189 31.7337C3.54472 31.7337 1.77236 31.7337 0.00248584 31.7337C5.69506e-08 24.6796 0 17.6303 0 10.5811Z" fill="#111B20"/>
<path d="M55.0947 13.0872C55.0947 12.3593 55.0947 11.4995 55.0947 10.6104C56.882 10.6104 58.6196 10.6104 60.3969 10.6104C60.3969 17.6181 60.3969 24.638 60.3969 31.6921C58.6618 31.6921 56.9143 31.6921 55.1221 31.6921C55.1221 30.8103 55.1221 29.9286 55.1221 29.0175C55.0326 29.0468 54.9754 29.0468 54.9531 29.0761C53.5386 30.9569 51.5326 31.8216 49.2656 32.0878C45.7905 32.4982 42.7653 31.4796 40.3292 28.976C38.5742 27.1734 37.6843 24.9702 37.4308 22.5032C37.1598 19.8775 37.5377 17.3592 38.9471 15.0925C41.1421 11.563 44.4283 9.98267 48.6069 10.1756C50.5383 10.266 52.3082 10.8449 53.8394 12.0417C54.2844 12.391 54.7095 12.7647 55.0947 13.0872ZM48.7709 15.0363C45.353 15.0388 42.7628 17.6401 42.7578 21.0743C42.7528 24.5379 45.3878 27.2467 48.7759 27.2564C52.2535 27.2686 55.0127 24.5354 55.0077 21.089C55.0003 17.7231 52.2286 15.0339 48.7709 15.0363Z" fill="#111B20"/>
<path d="M100.848 13.0994C100.848 12.3568 100.848 11.4946 100.848 10.608C102.635 10.608 104.373 10.608 106.148 10.608C106.148 17.623 106.148 24.6429 106.148 31.6946C104.405 31.6946 102.658 31.6946 100.865 31.6946C100.865 30.8055 100.865 29.9261 100.865 28.9564C100.448 29.3888 100.122 29.7869 99.7368 30.1142C97.9868 31.5993 95.8913 32.1928 93.6317 32.1782C90.6537 32.1586 88.081 31.0961 86.0352 28.9393C84.2703 27.0757 83.3803 24.8285 83.1591 22.3054C82.9254 19.6405 83.358 17.1027 84.8494 14.8409C87.0593 11.4922 90.2759 9.99244 94.3078 10.1732C96.2567 10.2611 98.044 10.8376 99.5876 12.0466C100.033 12.3959 100.453 12.7696 100.848 13.0994ZM94.5092 15.0363C91.0937 15.0412 88.5035 17.645 88.5011 21.0792C88.4986 24.5403 91.1385 27.2491 94.5241 27.2564C98.0042 27.2638 100.761 24.5305 100.751 21.0841C100.744 17.7182 97.9719 15.0314 94.5092 15.0363Z" fill="#111B20"/>
<path d="M80.3303 16.7169C78.6474 16.7169 76.977 16.7169 75.3115 16.7169C74.7696 14.5406 72.4852 13.6319 70.5885 14.8239C69.199 15.6983 69.2313 17.4448 70.7203 18.1165C71.6475 18.5366 72.6766 18.7418 73.6684 19.0178C75.1972 19.4428 76.7607 19.7554 78.1453 20.5835C81.1556 22.3836 81.9958 26.1623 79.9599 28.9541C78.8687 30.4489 77.2976 31.277 75.5253 31.7435C72.6343 32.5056 69.8229 32.3468 67.188 30.8495C65.0552 29.6356 63.8346 27.8134 63.6432 25.3684C63.6383 25.3074 63.6507 25.2439 63.6557 25.1559C65.3087 25.1559 66.9469 25.1559 68.6272 25.1559C68.7988 26.6068 69.6787 27.4593 71.0931 27.7963C72.2465 28.0699 73.3825 27.9697 74.4539 27.4495C75.3687 27.0049 75.7689 26.2771 75.6794 25.3806C75.6073 24.665 75.1624 24.2131 74.5384 23.9884C73.6485 23.6684 72.7263 23.4315 71.809 23.1897C70.3375 22.8013 68.8609 22.4447 67.4962 21.7315C64.1603 19.9875 63.6134 16.392 64.8066 14.0398C65.6493 12.3765 67.0587 11.3066 68.8137 10.7253C71.8637 9.71653 74.8467 9.89972 77.6208 11.5851C79.4478 12.6964 80.298 14.4111 80.3676 16.5068C80.3726 16.5703 80.3502 16.6314 80.3303 16.7169Z" fill="#111B20"/>
<path d="M116.173 10.6252C116.173 17.6525 116.173 24.6602 116.173 31.6972C114.405 31.6972 112.658 31.6972 110.878 31.6972C110.878 24.6773 110.878 17.672 110.878 10.6252C112.62 10.6252 114.368 10.6252 116.173 10.6252Z" fill="#111B20"/>
<path d="M116.173 10.6252H110.88V24.8458L116.173 18.439V10.6252Z" fill="#D71920"/>
<path d="M113.503 5.86702C115.152 5.86702 116.489 4.55364 116.489 2.93351C116.489 1.31338 115.152 0 113.503 0C111.855 0 110.518 1.31338 110.518 2.93351C110.518 4.55364 111.855 5.86702 113.503 5.86702Z" fill="#111B20"/>
<path d="M0.102539 64.0624H2.00366V57.9298H5.43794C5.57592 57.9298 5.70624 57.9298 5.83656 57.9221L9.14818 64.0624H11.3559L7.80667 57.5771C9.80744 56.8949 10.7427 55.2621 10.7427 53.177C10.7427 50.4019 9.08686 48.3628 5.40727 48.3628H0.102539V64.0624ZM2.00366 56.2126V50.0493H5.34595C7.89099 50.0493 8.87221 51.2912 8.87221 53.177C8.87221 55.0627 7.89099 56.2126 5.37661 56.2126H2.00366Z" fill="#727D83"/>
<path d="M17.9581 64.0624H27.5557V62.3759H19.8592V57.0405H26.9424V55.354H19.8592V50.0493H27.433V48.3628H17.9581V64.0624Z" fill="#727D83"/>
<path d="M34.9072 64.0624H36.8083V57.0405H43.6155V55.354H36.8083V50.0493H44.3208V48.3628H34.9072V64.0624Z" fill="#727D83"/>
<path d="M51.6244 64.0624H53.5255V57.9298H56.9598C57.0978 57.9298 57.2281 57.9298 57.3584 57.9221L60.67 64.0624H62.8778L59.3285 57.5771C61.3293 56.8949 62.2645 55.2621 62.2645 53.177C62.2645 50.4019 60.6087 48.3628 56.9291 48.3628H51.6244V64.0624ZM53.5255 56.2126V50.0493H56.8678C59.4128 50.0493 60.3941 51.2912 60.3941 53.177C60.3941 55.0627 59.4128 56.2126 56.8985 56.2126H53.5255Z" fill="#727D83"/>
<path d="M69.4799 64.0624H79.0775V62.3759H71.3811V57.0405H78.4643V55.354H71.3811V50.0493H78.9549V48.3628H69.4799V64.0624Z" fill="#727D83"/>
<path d="M95.0147 52.2877H96.8545C96.7702 49.919 94.5854 48.1482 91.5498 48.1482C88.5448 48.1482 86.1837 49.896 86.1837 52.533C86.1837 54.6488 87.7169 55.906 90.1699 56.6112L92.1017 57.1632C93.7575 57.6231 95.2294 58.2057 95.2294 59.7695C95.2294 61.4867 93.5736 62.6212 91.3965 62.6212C89.526 62.6212 87.8702 61.7933 87.7169 60.0149H85.7544C85.9384 62.5906 88.0235 64.3384 91.3965 64.3384C95.0147 64.3384 97.0692 62.3453 97.0692 59.8002C97.0692 56.8565 94.2788 55.906 92.6537 55.4767L91.0592 55.0474C89.894 54.7408 88.0235 54.1275 88.0235 52.441C88.0235 50.9385 89.4034 49.8347 91.4885 49.8347C93.3896 49.8347 94.8307 50.7392 95.0147 52.2877Z" fill="#727D83"/>
<path d="M104.242 64.0624H106.144V57.0405H114.515V64.0624H116.416V48.3628H114.515V55.354H106.144V48.3628H104.242V64.0624Z" fill="#727D83"/>
</svg>
