<!-- <svg width="189" height="99" viewBox="0 0 189 99" fill="none" xmlns="http://www.w3.org/2000/svg">
<path d="M0 17.1191C2.84335 17.1191 5.69073 17.1191 8.62658 17.1191C8.62658 18.9488 8.62658 20.731 8.62658 22.7464C10.919 18.0438 14.7798 16.3366 19.5656 16.4394C24.3917 16.5421 28.0555 18.6682 30.2312 22.9598C30.9994 21.9956 31.6992 20.9444 32.5719 20.0632C34.7999 17.8106 37.599 16.7358 40.7561 16.4789C42.8433 16.309 44.8984 16.4868 46.8892 17.1468C50.569 18.3599 52.8333 20.9523 54.1323 24.4457C55.0653 26.9551 55.3267 29.5751 55.3308 32.2268C55.3388 38.3994 55.3348 44.5721 55.3348 50.7448C55.3348 50.8989 55.3147 51.057 55.2986 51.2743C52.4874 51.2743 49.6883 51.2743 46.7927 51.2743C46.7927 50.9661 46.7927 50.6618 46.7927 50.3575C46.7927 44.6275 46.8248 38.9013 46.7685 33.1712C46.7565 31.8553 46.5996 30.4959 46.2296 29.2353C45.4695 26.6547 43.6839 24.9989 40.9169 24.6907C37.784 24.3429 35.1176 25.2321 33.3923 28.03C32.5477 29.3973 32.1295 30.9148 32.1134 32.5034C32.0531 38.4113 32.0289 44.3192 31.9968 50.2311C31.9968 50.567 31.9968 50.9029 31.9968 51.2902C29.1011 51.2902 26.2698 51.2902 23.3461 51.2902C23.3461 50.9622 23.3461 50.6539 23.3461 50.3496C23.342 44.2283 23.3581 38.107 23.3139 31.9857C23.2978 30.0098 22.779 28.1327 21.3995 26.6271C19.26 24.2916 16.5534 24.2125 13.7663 25.0859C10.5731 26.0857 9.16951 28.5318 8.79951 31.6419C8.67082 32.7286 8.6668 33.8351 8.66278 34.9298C8.65071 40.0552 8.65875 45.1847 8.65875 50.3101C8.65875 50.6184 8.65875 50.9305 8.65875 51.3415C5.73497 51.3415 2.86748 51.3415 0.00402181 51.3415C9.21397e-08 39.9288 0 28.5239 0 17.1191Z" fill="#111B20"/>
<path d="M89.1367 21.1737C89.1367 19.9961 89.1367 18.605 89.1367 17.1666C92.0283 17.1666 94.8395 17.1666 97.715 17.1666C97.715 28.5043 97.715 39.8617 97.715 51.2744C94.9079 51.2744 92.0806 51.2744 89.1809 51.2744C89.1809 49.8478 89.1809 48.4212 89.1809 46.9472C89.0362 46.9947 88.9437 46.9947 88.9075 47.0421C86.6191 50.0849 83.3736 51.4839 79.7058 51.9146C74.0834 52.5785 69.189 50.9306 65.2477 46.8801C62.4084 43.9636 60.9686 40.3991 60.5584 36.4078C60.12 32.1597 60.7313 28.0854 63.0116 24.4181C66.5628 18.7078 71.8795 16.151 78.64 16.4632C81.7649 16.6094 84.6284 17.546 87.1057 19.4823C87.8256 20.0474 88.5133 20.6521 89.1367 21.1737ZM78.9055 24.3272C73.3756 24.3312 69.185 28.5398 69.1769 34.096C69.1689 39.6997 73.4319 44.0822 78.9135 44.098C84.5399 44.1178 89.004 39.6957 88.9959 34.1197C88.9839 28.6742 84.4997 24.3233 78.9055 24.3272Z" fill="#111B20"/>
<path d="M163.162 21.1935C163.162 19.9922 163.162 18.5972 163.162 17.1627C166.053 17.1627 168.864 17.1627 171.736 17.1627C171.736 28.5122 171.736 39.8696 171.736 51.2784C168.917 51.2784 166.089 51.2784 163.19 51.2784C163.19 49.84 163.19 48.4173 163.19 46.8485C162.514 47.548 161.987 48.1921 161.364 48.7216C158.533 51.1243 155.142 52.0846 151.487 52.0609C146.669 52.0293 142.506 50.3103 139.196 46.8208C136.341 43.8056 134.901 40.17 134.543 36.0878C134.165 31.7764 134.865 27.6705 137.278 24.0111C140.853 18.5932 146.057 16.1668 152.58 16.4593C155.733 16.6015 158.625 17.5342 161.123 19.4903C161.842 20.0554 162.522 20.66 163.162 21.1935ZM152.906 24.3273C147.38 24.3352 143.19 28.5478 143.186 34.104C143.182 39.7037 147.453 44.0862 152.93 44.0981C158.561 44.1099 163.021 39.6879 163.005 34.1119C162.993 28.6663 158.508 24.3194 152.906 24.3273Z" fill="#111B20"/>
<path d="M129.965 27.046C127.242 27.046 124.54 27.046 121.845 27.046C120.968 23.5249 117.272 22.0549 114.204 23.9833C111.956 25.3981 112.008 28.2236 114.417 29.3103C115.917 29.99 117.582 30.322 119.187 30.7685C121.66 31.4562 124.19 31.962 126.43 33.3016C131.3 36.2141 132.66 42.3275 129.366 46.8444C127.6 49.2629 125.058 50.6025 122.191 51.3573C117.514 52.5903 112.965 52.3334 108.702 49.911C105.252 47.9469 103.277 44.9989 102.967 41.0432C102.959 40.9444 102.979 40.8416 102.987 40.6994C105.662 40.6994 108.312 40.6994 111.031 40.6994C111.308 43.0467 112.732 44.4259 115.02 44.9713C116.886 45.4139 118.724 45.2518 120.458 44.4101C121.938 43.6909 122.585 42.5132 122.44 41.0629C122.324 39.9051 121.604 39.174 120.594 38.8104C119.155 38.2927 117.663 37.9094 116.179 37.5182C113.798 36.8899 111.409 36.3129 109.201 35.159C103.804 32.3374 102.919 26.5204 104.849 22.7148C106.213 20.0237 108.493 18.2928 111.332 17.3522C116.267 15.7202 121.093 16.0165 125.581 18.7433C128.537 20.5413 129.913 23.3155 130.025 26.7061C130.033 26.8089 129.997 26.9077 129.965 27.046Z" fill="#111B20"/>
<path d="M187.954 17.1903C187.954 28.5596 187.954 39.8972 187.954 51.2823C185.095 51.2823 182.267 51.2823 179.388 51.2823C179.388 39.9249 179.388 28.5912 179.388 17.1903C182.207 17.1903 185.034 17.1903 187.954 17.1903Z" fill="#111B20"/>
<path d="M187.955 17.1903H179.393V40.1976L187.955 29.8321V17.1903Z" fill="#D71920"/>
<path d="M183.636 9.49218C186.303 9.49218 188.466 7.36728 188.466 4.74609C188.466 2.1249 186.303 0 183.636 0C180.968 0 178.806 2.1249 178.806 4.74609C178.806 7.36728 180.968 9.49218 183.636 9.49218Z" fill="#111B20"/>
<path d="M60.7896 98.5625H65.5038V86.272C66.8285 84.3628 68.6207 83.3684 70.8414 83.3684C71.4648 83.3684 71.9323 83.4479 72.3999 83.5673V78.9534C71.9713 78.834 71.5427 78.7943 71.1142 78.7943C68.8544 78.7943 66.8674 79.8682 65.5428 81.7774L65.4648 81.7376V78.9931H60.7896V98.5625Z" fill="#111B20"/>
<path d="M93.205 90.0904C93.2829 89.5733 93.3218 88.7778 93.3218 88.1414C93.3218 81.8569 89.1141 78.5556 84.3608 78.5556C79.1401 78.5556 74.5817 82.6127 74.5817 88.8176C74.5817 94.9429 79.1011 99 85.2569 99C87.7504 99 90.4777 98.3238 92.2699 97.1703V92.7553C90.3998 94.1077 88.14 95.0225 85.7245 95.0225C82.4907 95.0225 79.9583 93.3519 79.3739 90.0904H93.205ZM79.3739 86.7493C79.9583 83.8059 82.1401 82.4536 84.3219 82.4536C86.4647 82.4536 88.5686 83.8059 88.9193 86.7493H79.3739Z" fill="#111B20"/>
<path d="M99.2597 98.5625H103.974V83.09H108.649V78.9931H103.974V75.2145C103.974 73.3451 104.403 71.9132 106.506 71.9132C107.208 71.9132 108.416 72.0723 109.156 72.2712V68.2141C108.299 67.8959 107.169 67.7368 106.078 67.7368C104.325 67.7368 102.416 68.1743 101.13 69.4471C99.7272 70.8393 99.2597 73.0269 99.2597 75.652V78.9931H96.3766V83.09H99.2597V98.5625Z" fill="#111B20"/>
<path d="M112.6 98.5625H117.314V86.272C118.639 84.3628 120.431 83.3684 122.652 83.3684C123.275 83.3684 123.743 83.4479 124.21 83.5673V78.9534C123.782 78.834 123.353 78.7943 122.924 78.7943C120.665 78.7943 118.678 79.8682 117.353 81.7774L117.275 81.7376V78.9931H112.6V98.5625Z" fill="#111B20"/>
<path d="M145.015 90.0904C145.093 89.5733 145.132 88.7778 145.132 88.1414C145.132 81.8569 140.924 78.5556 136.171 78.5556C130.95 78.5556 126.392 82.6127 126.392 88.8176C126.392 94.9429 130.911 99 137.067 99C139.561 99 142.288 98.3238 144.08 97.1703V92.7553C142.21 94.1077 139.95 95.0225 137.535 95.0225C134.301 95.0225 131.769 93.3519 131.184 90.0904H145.015ZM131.184 86.7493C131.769 83.8059 133.95 82.4536 136.132 82.4536C138.275 82.4536 140.379 83.8059 140.73 86.7493H131.184Z" fill="#111B20"/>
<path d="M149.512 97.3692C151.654 98.4829 154.499 99 156.875 99C161.395 99 165.213 96.9715 165.213 92.5564C165.213 88.8176 162.602 87.6243 158.94 86.8288C156.096 86.2322 153.68 86.272 153.68 84.4423C153.68 83.09 155.005 82.4933 157.031 82.4933C158.979 82.4933 161.784 83.1297 164.122 84.4821V80.1068C162.096 79.0329 159.33 78.5556 157.031 78.5556C152.434 78.5556 148.966 80.7035 148.927 84.8003C148.927 88.3403 151.421 89.6528 155.083 90.4483C158.005 91.0847 160.46 91.0052 160.46 92.9542C160.46 94.4258 159.096 95.0623 156.953 95.0623C154.849 95.0623 151.927 94.3861 149.512 92.8746V97.3692Z" fill="#111B20"/>
<path d="M169.813 98.5625H174.527V85.2776C175.774 83.9252 177.683 82.8115 179.592 82.8115C180.605 82.8115 181.462 83.1297 182.086 83.8855C182.631 84.5219 182.865 85.3969 182.865 87.2266V98.5625H187.579V86.3913C187.579 83.4877 187.073 81.8569 185.943 80.6239C184.735 79.2716 182.943 78.5556 180.878 78.5556C178.345 78.5556 176.163 79.6693 174.605 81.141L174.527 81.1012V68.1743H169.813V98.5625Z" fill="#111B20"/>
</svg> -->
<svg width="117" height="65" viewBox="0 0 117 65" fill="none" xmlns="http://www.w3.org/2000/svg">
<path d="M0 10.5811C1.75745 10.5811 3.51738 10.5811 5.332 10.5811C5.332 11.712 5.332 12.8136 5.332 14.0593C6.7489 11.1527 9.13525 10.0975 12.0933 10.161C15.0763 10.2245 17.3408 11.5386 18.6856 14.1912C19.1604 13.5952 19.5929 12.9455 20.1323 12.4008C21.5095 11.0086 23.2396 10.3442 25.1909 10.1854C26.481 10.0804 27.7513 10.1903 28.9817 10.5982C31.2562 11.3481 32.6557 12.9504 33.4586 15.1096C34.0353 16.6606 34.1969 18.2801 34.1994 19.919C34.2043 23.7343 34.2019 27.5496 34.2019 31.3648C34.2019 31.4601 34.1894 31.5578 34.1795 31.6921C32.4419 31.6921 30.7118 31.6921 28.9221 31.6921C28.9221 31.5016 28.9221 31.3135 28.9221 31.1255C28.9221 27.5838 28.9419 24.0445 28.9071 20.5028C28.8997 19.6894 28.8027 18.8492 28.5741 18.07C28.1042 16.475 27.0006 15.4516 25.2903 15.2611C23.3539 15.0461 21.7058 15.5957 20.6394 17.325C20.1174 18.1701 19.8589 19.1081 19.849 20.09C19.8117 23.7416 19.7968 27.3932 19.7769 31.0473C19.7769 31.2549 19.7769 31.4625 19.7769 31.7019C17.9871 31.7019 16.2371 31.7019 14.43 31.7019C14.43 31.4992 14.43 31.3087 14.43 31.1206C14.4275 27.3371 14.4374 23.5535 14.4101 19.77C14.4001 18.5487 14.0795 17.3885 13.2268 16.4579C11.9044 15.0144 10.2315 14.9655 8.50883 15.5053C6.53512 16.1233 5.66758 17.6352 5.43889 19.5575C5.35934 20.2292 5.35686 20.9131 5.35437 21.5897C5.34692 24.7577 5.35189 27.9282 5.35189 31.0962C5.35189 31.2867 5.35189 31.4796 5.35189 31.7337C3.54472 31.7337 1.77236 31.7337 0.00248584 31.7337C5.69506e-08 24.6796 0 17.6303 0 10.5811Z" fill="#111B20"/>
<path d="M55.0947 13.0872C55.0947 12.3593 55.0947 11.4995 55.0947 10.6104C56.882 10.6104 58.6196 10.6104 60.3969 10.6104C60.3969 17.6181 60.3969 24.638 60.3969 31.6921C58.6618 31.6921 56.9143 31.6921 55.1221 31.6921C55.1221 30.8103 55.1221 29.9286 55.1221 29.0175C55.0326 29.0468 54.9754 29.0468 54.9531 29.0761C53.5386 30.9569 51.5326 31.8216 49.2656 32.0878C45.7905 32.4982 42.7653 31.4796 40.3292 28.976C38.5742 27.1734 37.6843 24.9702 37.4308 22.5032C37.1598 19.8775 37.5377 17.3592 38.9471 15.0925C41.1421 11.563 44.4283 9.98267 48.6069 10.1756C50.5383 10.266 52.3082 10.8449 53.8394 12.0417C54.2844 12.391 54.7095 12.7647 55.0947 13.0872ZM48.7709 15.0363C45.353 15.0388 42.7628 17.6401 42.7578 21.0743C42.7528 24.5379 45.3878 27.2467 48.7759 27.2564C52.2535 27.2686 55.0127 24.5354 55.0077 21.089C55.0003 17.7231 52.2286 15.0339 48.7709 15.0363Z" fill="#111B20"/>
<path d="M100.848 13.0994C100.848 12.3568 100.848 11.4946 100.848 10.608C102.635 10.608 104.373 10.608 106.148 10.608C106.148 17.623 106.148 24.6429 106.148 31.6946C104.405 31.6946 102.658 31.6946 100.865 31.6946C100.865 30.8055 100.865 29.9261 100.865 28.9564C100.448 29.3888 100.122 29.7869 99.7368 30.1142C97.9868 31.5993 95.8913 32.1928 93.6317 32.1782C90.6537 32.1586 88.081 31.0961 86.0352 28.9393C84.2703 27.0757 83.3803 24.8285 83.1591 22.3054C82.9254 19.6405 83.358 17.1027 84.8494 14.8409C87.0593 11.4922 90.2759 9.99244 94.3078 10.1732C96.2567 10.2611 98.044 10.8376 99.5876 12.0466C100.033 12.3959 100.453 12.7696 100.848 13.0994ZM94.5092 15.0363C91.0937 15.0412 88.5035 17.645 88.5011 21.0792C88.4986 24.5403 91.1385 27.2491 94.5241 27.2564C98.0042 27.2638 100.761 24.5305 100.751 21.0841C100.744 17.7182 97.9719 15.0314 94.5092 15.0363Z" fill="#111B20"/>
<path d="M80.3303 16.7169C78.6474 16.7169 76.977 16.7169 75.3115 16.7169C74.7696 14.5406 72.4852 13.6319 70.5885 14.8239C69.199 15.6983 69.2313 17.4448 70.7203 18.1165C71.6475 18.5366 72.6766 18.7418 73.6684 19.0178C75.1972 19.4428 76.7607 19.7554 78.1453 20.5835C81.1556 22.3836 81.9958 26.1623 79.9599 28.9541C78.8687 30.4489 77.2976 31.277 75.5253 31.7435C72.6343 32.5056 69.8229 32.3468 67.188 30.8495C65.0552 29.6356 63.8346 27.8134 63.6432 25.3684C63.6383 25.3074 63.6507 25.2439 63.6557 25.1559C65.3087 25.1559 66.9469 25.1559 68.6272 25.1559C68.7988 26.6068 69.6787 27.4593 71.0931 27.7963C72.2465 28.0699 73.3825 27.9697 74.4539 27.4495C75.3687 27.0049 75.7689 26.2771 75.6794 25.3806C75.6073 24.665 75.1624 24.2131 74.5384 23.9884C73.6485 23.6684 72.7263 23.4315 71.809 23.1897C70.3375 22.8013 68.8609 22.4447 67.4962 21.7315C64.1603 19.9875 63.6134 16.392 64.8066 14.0398C65.6493 12.3765 67.0587 11.3066 68.8137 10.7253C71.8637 9.71653 74.8467 9.89972 77.6208 11.5851C79.4478 12.6964 80.298 14.4111 80.3676 16.5068C80.3726 16.5703 80.3502 16.6314 80.3303 16.7169Z" fill="#111B20"/>
<path d="M116.173 10.6252C116.173 17.6525 116.173 24.6602 116.173 31.6972C114.405 31.6972 112.658 31.6972 110.878 31.6972C110.878 24.6773 110.878 17.672 110.878 10.6252C112.62 10.6252 114.368 10.6252 116.173 10.6252Z" fill="#111B20"/>
<path d="M116.173 10.6252H110.88V24.8458L116.173 18.439V10.6252Z" fill="#D71920"/>
<path d="M113.503 5.86702C115.152 5.86702 116.489 4.55364 116.489 2.93351C116.489 1.31338 115.152 0 113.503 0C111.855 0 110.518 1.31338 110.518 2.93351C110.518 4.55364 111.855 5.86702 113.503 5.86702Z" fill="#111B20"/>
<path d="M0.102539 64.0624H2.00366V57.9298H5.43794C5.57592 57.9298 5.70624 57.9298 5.83656 57.9221L9.14818 64.0624H11.3559L7.80667 57.5771C9.80744 56.8949 10.7427 55.2621 10.7427 53.177C10.7427 50.4019 9.08686 48.3628 5.40727 48.3628H0.102539V64.0624ZM2.00366 56.2126V50.0493H5.34595C7.89099 50.0493 8.87221 51.2912 8.87221 53.177C8.87221 55.0627 7.89099 56.2126 5.37661 56.2126H2.00366Z" fill="#727D83"/>
<path d="M17.9581 64.0624H27.5557V62.3759H19.8592V57.0405H26.9424V55.354H19.8592V50.0493H27.433V48.3628H17.9581V64.0624Z" fill="#727D83"/>
<path d="M34.9072 64.0624H36.8083V57.0405H43.6155V55.354H36.8083V50.0493H44.3208V48.3628H34.9072V64.0624Z" fill="#727D83"/>
<path d="M51.6244 64.0624H53.5255V57.9298H56.9598C57.0978 57.9298 57.2281 57.9298 57.3584 57.9221L60.67 64.0624H62.8778L59.3285 57.5771C61.3293 56.8949 62.2645 55.2621 62.2645 53.177C62.2645 50.4019 60.6087 48.3628 56.9291 48.3628H51.6244V64.0624ZM53.5255 56.2126V50.0493H56.8678C59.4128 50.0493 60.3941 51.2912 60.3941 53.177C60.3941 55.0627 59.4128 56.2126 56.8985 56.2126H53.5255Z" fill="#727D83"/>
<path d="M69.4799 64.0624H79.0775V62.3759H71.3811V57.0405H78.4643V55.354H71.3811V50.0493H78.9549V48.3628H69.4799V64.0624Z" fill="#727D83"/>
<path d="M95.0147 52.2877H96.8545C96.7702 49.919 94.5854 48.1482 91.5498 48.1482C88.5448 48.1482 86.1837 49.896 86.1837 52.533C86.1837 54.6488 87.7169 55.906 90.1699 56.6112L92.1017 57.1632C93.7575 57.6231 95.2294 58.2057 95.2294 59.7695C95.2294 61.4867 93.5736 62.6212 91.3965 62.6212C89.526 62.6212 87.8702 61.7933 87.7169 60.0149H85.7544C85.9384 62.5906 88.0235 64.3384 91.3965 64.3384C95.0147 64.3384 97.0692 62.3453 97.0692 59.8002C97.0692 56.8565 94.2788 55.906 92.6537 55.4767L91.0592 55.0474C89.894 54.7408 88.0235 54.1275 88.0235 52.441C88.0235 50.9385 89.4034 49.8347 91.4885 49.8347C93.3896 49.8347 94.8307 50.7392 95.0147 52.2877Z" fill="#727D83"/>
<path d="M104.242 64.0624H106.144V57.0405H114.515V64.0624H116.416V48.3628H114.515V55.354H106.144V48.3628H104.242V64.0624Z" fill="#727D83"/>
</svg>