<svg width="53" height="59" viewBox="0 0 53 59" fill="none" xmlns="http://www.w3.org/2000/svg">
<path d="M0.714836 1.95314L4.54405 50.9411C4.60154 51.6767 5.09947 52.304 5.80288 52.527L25.9523 58.9153C26.3086 59.0283 26.6912 59.0283 27.0475 58.9153L47.1969 52.527C47.9004 52.304 48.3983 51.6767 48.4558 50.9411L52.285 1.95314C52.3673 0.899921 51.535 0 50.4786 0H2.52134C1.465 0 0.632618 0.899921 0.714836 1.95314ZM42.4652 17.1524H17.5095L18.2626 24.0976H41.9224L40.3747 43.897L26.5 48.2959L12.6253 43.897L11.8167 33.553H19.0992V38.6269L26.6946 40.6654L34.2446 38.6269L34.8303 30.5405H11.5812L10.0376 10.7929H42.9622L42.4652 17.1524Z" fill="#FC490B"/>
</svg>
