<svg xmlns="http://www.w3.org/2000/svg" width="312" height="272" viewBox="0 0 312 272" fill="none">
<path d="M265.778 113.15L209.743 91.9813C205.867 90.5187 203.918 86.1926 205.382 82.3283L234.717 4.84316C236.181 0.971208 240.511 -0.976316 244.38 0.48625L279.918 13.9111L296.708 52.6306L275.448 108.793C273.977 112.657 269.646 114.613 265.778 113.15Z" fill="#F5F5F5"/>
<path d="M279.918 13.9106L271.666 35.7183C270.302 39.3131 272.12 43.339 275.719 44.6938L296.709 52.6301L279.918 13.9106Z" fill="#EBEBEB"/>
<path d="M271.218 37.7358C271.218 37.7358 268.938 42.9241 274.308 46.9346C274.509 47.0886 274.724 47.2194 274.94 47.3503C277.498 48.8744 294.327 58.8968 294.482 58.4812C294.651 58.0347 296.701 52.6232 296.701 52.6232L275.711 44.6946C275.711 44.7023 270.54 42.5392 271.218 37.7358Z" fill="#E0E0E0"/>
<path d="M267.296 33.0554C267.188 33.3325 261.301 31.3696 254.143 28.6677C246.984 25.9658 241.267 23.541 241.375 23.2639C241.482 22.9868 247.369 24.9497 254.528 27.6516C261.686 30.3535 267.404 32.7706 267.296 33.0554Z" fill="#E0E0E0"/>
<path d="M279.371 51.7067C279.263 51.9838 269.623 48.6045 257.841 44.1552C246.059 39.706 236.589 35.8648 236.697 35.5877C236.805 35.3106 246.437 38.6898 258.227 43.1391C270.016 47.5884 279.479 51.4296 279.371 51.7067Z" fill="#E0E0E0"/>
<path d="M279.316 63.4538C279.208 63.7309 268.713 60.0283 255.868 55.1788C243.023 50.3292 232.698 46.1648 232.806 45.8876C232.913 45.6105 243.408 49.3131 256.254 54.1704C269.099 59.0122 279.424 63.1767 279.316 63.4538Z" fill="#E0E0E0"/>
<path d="M275.641 73.1682C275.534 73.4453 265.039 69.7427 252.193 64.8931C239.348 60.0436 229.023 55.8791 229.131 55.602C229.239 55.3249 239.734 59.0275 252.579 63.8847C265.424 68.7266 275.749 72.8911 275.641 73.1682Z" fill="#E0E0E0"/>
<path d="M271.965 82.8825C271.857 83.1597 261.362 79.4571 248.517 74.6075C235.672 69.7502 225.347 65.5935 225.454 65.3164C225.562 65.0392 236.057 68.7418 248.902 73.5991C261.74 78.441 272.073 82.6054 271.965 82.8825Z" fill="#E0E0E0"/>
<path d="M268.29 92.5974C268.183 92.8745 257.688 89.1719 244.842 84.3223C231.997 79.4728 221.672 75.3083 221.78 75.0312C221.888 74.7541 232.382 78.4567 245.228 83.3139C258.065 88.1558 268.391 92.3203 268.29 92.5974Z" fill="#E0E0E0"/>
<path d="M119.226 147.69L45.3523 173.531C42.794 174.424 39.9969 173.077 39.1031 170.529L2.03928 64.793C1.14544 62.2374 2.49391 59.4431 5.04445 58.5502L78.9177 32.7089C81.476 31.816 84.2731 33.1631 85.1669 35.711L122.231 141.455C123.125 144.002 121.784 146.797 119.226 147.69Z" fill="#EBEBEB"/>
<path d="M79.8732 39.277L8.40625 64.2778L45.1448 169.084L116.612 144.083L79.8732 39.277Z" fill="#E0E0E0"/>
<path d="M78.5973 38.7775L7.13037 63.7783L43.1686 166.587L114.636 141.586L78.5973 38.7775Z" fill="#FAFAFA"/>
<path d="M114.626 141.593C114.325 140.731 99.8158 99.4634 78.4945 38.8208L78.6255 38.8824C56.9497 46.4647 32.7003 54.9552 7.17175 63.8846H7.16404L7.23339 63.7383C20.7027 102.358 33.2397 138.021 43.2492 166.549L43.1336 166.495C86.6007 151.354 113.925 141.832 114.626 141.593C113.925 141.839 86.6238 151.423 43.1953 166.68L43.1105 166.711L43.0797 166.626C33.0702 138.091 20.564 102.427 7.02534 63.823L6.98682 63.7152L7.09469 63.6767H7.1024C32.6309 54.7474 56.8881 46.2722 78.5638 38.69L78.664 38.6592L78.6948 38.7592C99.8928 99.4326 114.333 140.731 114.626 141.593Z" fill="#E0E0E0"/>
<path d="M89.2822 150.461C89.2822 150.461 105.194 137.052 107.953 123.088C107.953 123.088 103.538 130.008 94.3448 131.271C94.3448 131.271 94.0289 145.927 89.2822 150.461Z" fill="#E0E0E0"/>
<path d="M34.6192 95.414L30.8589 96.7304C29.4873 97.2076 27.9847 96.4917 27.4992 95.1138L26.1816 91.3574C25.7038 89.9872 26.4205 88.4861 27.7997 88.0012L31.5601 86.6848C32.9317 86.2076 34.4342 86.9235 34.9197 88.3014L36.2373 92.0578C36.7151 93.4357 35.9908 94.9368 34.6192 95.414Z" fill="#EBEBEB"/>
<path d="M31.0979 93.1587C31.0979 93.1587 31.0902 93.1664 31.0979 93.1587C31.0363 93.1818 30.9669 93.1741 30.9207 93.1433L29.1946 92.1426C29.0945 92.081 29.0559 91.9501 29.1176 91.8501C29.1792 91.75 29.3102 91.7115 29.4104 91.7731L30.9284 92.6506L32.7469 88.7633C32.8008 88.6555 32.9241 88.6093 33.032 88.6632C33.1399 88.7171 33.1861 88.8403 33.1322 88.948L31.2135 93.0509C31.1981 93.1048 31.1518 93.1433 31.0979 93.1587Z" fill="white"/>
<path d="M80.4447 70.7811C80.4678 70.8427 71.1826 74.1374 59.7167 78.1479C48.2431 82.1584 38.9348 85.3683 38.9117 85.3067C38.8885 85.2452 48.1738 81.9505 59.6396 77.94C71.1132 73.9218 80.4292 70.7196 80.4447 70.7811Z" fill="#E0E0E0"/>
<path d="M58.6529 85.568C58.6606 85.5834 58.4218 85.6835 57.9826 85.8528C57.5048 86.0299 56.8807 86.2608 56.1178 86.5456C54.5382 87.1153 52.3575 87.8927 49.9457 88.7395C47.5261 89.5862 45.3377 90.3406 43.7504 90.8718C42.9798 91.1258 42.348 91.3336 41.8625 91.4953C41.4156 91.6338 41.169 91.7108 41.1613 91.6954C41.1536 91.68 41.3925 91.5799 41.8317 91.4106C42.3094 91.2335 42.9336 91.0026 43.6964 90.7178C45.2761 90.1482 47.4568 89.3707 49.8763 88.5239C52.2881 87.6772 54.4842 86.9228 56.0716 86.3917C56.8421 86.1376 57.474 85.9298 57.9594 85.7682C58.3987 85.6219 58.6452 85.5526 58.6529 85.568Z" fill="#E0E0E0"/>
<path d="M81.4383 73.6066C81.4614 73.6682 72.1762 76.9628 60.7103 80.9733C49.2368 84.9838 39.9284 88.1938 39.9053 88.1322C39.8822 88.0706 49.1674 84.776 60.6333 80.7655C72.1069 76.755 81.4229 73.5527 81.4383 73.6066Z" fill="#E0E0E0"/>
<path d="M39.982 110.733L36.2217 112.049C34.8501 112.526 33.3475 111.811 32.862 110.433L31.5444 106.676C31.0666 105.306 31.7832 103.805 33.1625 103.32L36.9229 102.004C38.2944 101.526 39.797 102.242 40.2825 103.62L41.6001 107.377C42.0779 108.755 41.3613 110.256 39.982 110.733Z" fill="#EBEBEB"/>
<path d="M36.468 108.478C36.468 108.478 36.4603 108.485 36.468 108.478C36.4064 108.501 36.337 108.493 36.2908 108.462L34.5647 107.461C34.4646 107.4 34.4261 107.269 34.4877 107.169C34.5493 107.069 34.6803 107.03 34.7805 107.092L36.2985 107.969L38.117 104.082C38.171 103.974 38.2942 103.928 38.4021 103.974C38.51 104.028 38.5562 104.151 38.5023 104.259L36.5836 108.362C36.5682 108.424 36.522 108.462 36.468 108.478Z" fill="white"/>
<path d="M85.8143 86.1C85.8374 86.1616 76.5522 89.4562 65.0863 93.4667C53.6127 97.4772 44.3044 100.687 44.2813 100.626C44.2582 100.564 53.5434 97.2694 65.0093 93.2589C76.4829 89.2407 85.7989 86.0384 85.8143 86.1Z" fill="#E0E0E0"/>
<path d="M64.0231 100.887C64.0308 100.902 63.7919 101.002 63.3527 101.172C62.8749 101.349 62.2508 101.58 61.4879 101.864C59.9083 102.434 57.7276 103.212 55.3158 104.058C52.8962 104.905 50.7078 105.659 49.1205 106.191C48.3499 106.445 47.7181 106.652 47.2326 106.814C46.7857 106.953 46.5391 107.03 46.5314 107.014C46.5237 106.999 46.7626 106.899 47.2018 106.729C47.6796 106.552 48.3037 106.321 49.0666 106.037C50.6462 105.467 52.8269 104.69 55.2464 103.843C57.6583 102.996 59.8543 102.242 61.4417 101.711C62.2122 101.457 62.8441 101.249 63.3296 101.087C63.7688 100.941 64.0154 100.871 64.0231 100.887Z" fill="#E0E0E0"/>
<path d="M86.8089 88.9247C86.832 88.9863 77.5468 92.2809 66.0809 96.2914C54.6074 100.302 45.299 103.512 45.2759 103.45C45.2528 103.389 54.538 100.094 66.0039 96.0836C77.4775 92.0731 86.7858 88.8631 86.8089 88.9247Z" fill="#E0E0E0"/>
<path d="M45.3531 126.051L41.5927 127.368C40.2212 127.845 38.7186 127.129 38.2331 125.751L36.9155 121.995C36.4377 120.624 37.1543 119.123 38.5336 118.638L42.294 117.322C43.6655 116.845 45.1681 117.561 45.6536 118.939L46.9712 122.695C47.449 124.073 46.7247 125.574 45.3531 126.051Z" fill="#EBEBEB"/>
<path d="M41.8391 123.796C41.8314 123.796 41.8314 123.796 41.8391 123.796C41.7775 123.819 41.7081 123.811 41.6619 123.78L39.9358 122.78C39.8357 122.718 39.7971 122.587 39.8588 122.487C39.9204 122.387 40.0514 122.349 40.1516 122.41L41.6696 123.288L43.4881 119.4C43.542 119.293 43.6653 119.247 43.7732 119.3C43.8811 119.354 43.9273 119.477 43.8811 119.585L41.9624 123.688C41.9393 123.742 41.8931 123.781 41.8391 123.796Z" fill="white"/>
<path d="M91.1854 101.418C91.2085 101.48 81.9233 104.775 70.4574 108.785C58.9838 112.796 49.6755 116.006 49.6524 115.944C49.6293 115.882 58.9145 112.588 70.3804 108.577C81.8539 104.559 91.1623 101.357 91.1854 101.418Z" fill="#E0E0E0"/>
<path d="M69.3942 116.205C69.4019 116.221 69.163 116.321 68.7238 116.49C68.246 116.667 67.6219 116.898 66.859 117.183C65.2794 117.752 63.0987 118.53 60.6869 119.377C58.2673 120.223 56.0789 120.978 54.4916 121.509C53.721 121.763 53.0892 121.971 52.6037 122.132C52.1568 122.271 51.9102 122.348 51.9025 122.333C51.8948 122.317 52.1337 122.217 52.5729 122.048C53.0507 121.871 53.6748 121.64 54.4377 121.355C56.0173 120.785 58.198 120.008 60.6175 119.161C63.0294 118.314 65.2254 117.56 66.8128 117.029C67.5834 116.775 68.2152 116.567 68.7007 116.405C69.1399 116.259 69.3865 116.19 69.3942 116.205Z" fill="#E0E0E0"/>
<path d="M92.18 104.243C92.2031 104.305 82.9179 107.599 71.452 111.61C59.9785 115.62 50.6701 118.83 50.647 118.769C50.6239 118.707 59.9091 115.412 71.375 111.402C82.8409 107.391 92.1569 104.181 92.18 104.243Z" fill="#E0E0E0"/>
<path d="M50.7237 141.37L46.9633 142.686C45.5918 143.163 44.0892 142.447 43.6037 141.069L42.2861 137.313C41.8083 135.943 42.5249 134.442 43.9042 133.957L47.6646 132.64C49.0361 132.163 50.5387 132.879 51.0242 134.257L52.3418 138.013C52.8196 139.391 52.0953 140.892 50.7237 141.37Z" fill="#EBEBEB"/>
<path d="M47.2024 139.114C47.1408 139.137 47.0714 139.13 47.0252 139.099L45.2991 138.098C45.199 138.037 45.1604 137.906 45.2221 137.806C45.2837 137.706 45.4147 137.667 45.5149 137.729L47.0406 138.606L48.8591 134.719C48.913 134.611 49.0363 134.565 49.1442 134.619C49.2521 134.673 49.2983 134.796 49.2444 134.904L47.3257 139.006C47.3026 139.053 47.264 139.099 47.2024 139.114Z" fill="white"/>
<path d="M96.556 116.729C96.5791 116.791 87.2939 120.085 75.828 124.096C64.3544 128.106 55.0461 131.316 55.023 131.255C54.9999 131.193 64.2851 127.899 75.751 123.888C87.2245 119.878 96.5329 116.675 96.556 116.729Z" fill="#E0E0E0"/>
<path d="M74.7648 131.524C74.7725 131.539 74.5336 131.64 74.0944 131.809C73.6166 131.986 72.9925 132.217 72.2296 132.502C70.65 133.071 68.4693 133.849 66.0575 134.696C63.6379 135.542 61.4495 136.297 59.8622 136.828C59.0916 137.082 58.4598 137.29 57.9743 137.451C57.5274 137.59 57.2808 137.667 57.2731 137.651C57.2654 137.636 57.5043 137.536 57.9435 137.367C58.4213 137.19 59.0454 136.959 59.8083 136.674C61.3879 136.104 63.5686 135.327 65.9881 134.48C68.4 133.633 70.5961 132.879 72.1834 132.348C72.954 132.094 73.5858 131.886 74.0713 131.724C74.5028 131.578 74.7571 131.509 74.7648 131.524Z" fill="#E0E0E0"/>
<path d="M97.5506 119.562C97.5737 119.623 88.2885 122.918 76.8226 126.929C65.3491 130.939 56.0407 134.149 56.0176 134.087C55.9945 134.026 65.2797 130.731 76.7456 126.721C88.2115 122.71 97.5275 119.5 97.5506 119.562Z" fill="#E0E0E0"/>
<path d="M15.2241 53.7695L17.112 59.1502C18.2062 62.2755 21.6274 63.9151 24.7559 62.822L64.2854 48.9969C67.4139 47.9038 69.0552 44.4861 67.961 41.3608L66.0808 35.9878L15.2241 53.7695Z" fill="#E0E0E0"/>
<path d="M41.1762 46.4722C38.2481 47.496 35.0349 45.9487 34.0101 43.0236C32.9852 40.0985 34.534 36.8885 37.4622 35.8647C40.3903 34.8409 43.6035 36.3882 44.6283 39.3133C45.6455 42.2384 44.0966 45.4484 41.1762 46.4722ZM38.1711 37.9046C36.368 38.5358 35.4125 40.5141 36.0443 42.3154C36.6762 44.1167 38.6565 45.0712 40.4596 44.44C42.2627 43.8088 43.2182 41.8305 42.5864 40.0292C41.9545 38.2202 39.9742 37.2734 38.1711 37.9046Z" fill="#E0E0E0"/>
<path d="M72.7687 60.4365C72.8072 60.5365 62.3816 64.2776 49.4902 68.7885C36.5988 73.2993 26.1192 76.8711 26.0807 76.771C26.0421 76.6709 36.4678 72.9299 49.3592 68.419C62.2506 63.9004 72.7302 60.3287 72.7687 60.4365Z" fill="#E0E0E0"/>
<path d="M59.423 62.345C59.4615 62.445 54.869 64.1462 49.1746 66.1399C43.4801 68.1336 38.8337 69.6655 38.7952 69.5654C38.7566 69.4653 43.3492 67.7641 49.0436 65.7704C54.738 63.7767 59.3844 62.2449 59.423 62.345Z" fill="#E0E0E0"/>
<path d="M264.777 218.331C267.543 216.907 270.803 216.723 273.877 217.231C275.526 217.5 277.252 217.993 278.369 219.232C279.494 220.471 279.703 222.65 278.416 223.712C277.645 224.343 276.574 224.443 275.58 224.428C273.176 224.397 270.51 223.974 268.583 225.421C267.489 226.245 266.757 227.615 265.447 228.023C264.168 228.423 262.72 227.661 262.041 226.506C261.363 225.352 261.34 223.905 261.656 222.604C261.656 222.604 261.995 219.763 264.777 218.331Z" fill="#2B75CD"/>
<path d="M258.442 206.1C260.137 208.517 263.42 207.716 264.946 206.238C266.471 204.768 267.119 202.628 267.704 200.588C269.045 195.931 270.394 191.051 269.4 186.309C269.099 184.893 268.567 183.476 267.573 182.429C266.579 181.375 265.046 180.751 263.644 181.121C261.987 181.559 260.954 183.184 260.207 184.723C258.018 189.257 256.855 194.291 256.84 199.326C256.832 201.689 257.109 204.16 258.442 206.1Z" fill="#2B75CD"/>
<path d="M253.788 209.563C255.622 207.385 255.977 204.206 255.16 201.481C254.343 198.748 252.494 196.431 250.367 194.538C247.87 192.313 244.935 190.589 241.783 189.48C240.542 189.041 239.232 188.703 237.923 188.826C236.613 188.949 235.295 189.619 234.686 190.781C233.785 192.505 234.648 194.591 235.588 196.293C237.237 199.295 239.125 202.166 241.228 204.868C242.916 207.046 244.85 209.194 247.431 210.172C250.005 211.157 252.679 211.041 254.05 209.256" fill="#2B75CD"/>
<path d="M258.327 242.525C258.358 242.525 258.411 242.133 258.481 241.425C258.558 240.624 258.658 239.623 258.774 238.43C258.912 237.168 259.097 235.674 259.452 234.035C259.798 232.403 260.346 230.64 261.047 228.854C261.771 227.076 262.657 225.459 263.697 224.166C264.722 222.865 265.924 221.926 267.049 221.387C268.167 220.833 269.176 220.61 269.87 220.51C270.571 220.441 270.964 220.379 270.964 220.348C270.964 220.317 270.571 220.31 269.854 220.333C269.138 220.379 268.097 220.564 266.911 221.095C265.724 221.618 264.453 222.573 263.374 223.904C262.287 225.229 261.37 226.876 260.631 228.692C259.914 230.517 259.375 232.295 259.043 233.958C258.712 235.62 258.558 237.137 258.458 238.407C258.365 239.677 258.327 240.709 258.311 241.417C258.288 242.125 258.296 242.518 258.327 242.525Z" fill="#263238"/>
<path d="M258.527 240.216C258.543 240.216 258.55 240.039 258.558 239.708C258.558 239.323 258.558 238.846 258.55 238.253C258.55 236.991 258.55 235.159 258.612 232.903C258.728 228.385 259.113 223.527 259.868 216.676C260.577 210.233 261.532 202.736 262.542 197.863C262.758 196.755 262.973 195.754 263.181 194.884C263.374 194.007 263.544 193.252 263.705 192.644C263.844 192.067 263.96 191.597 264.044 191.228C264.114 190.904 264.152 190.727 264.137 190.727C264.121 190.72 264.06 190.889 263.96 191.205C263.852 191.574 263.705 192.036 263.536 192.598C263.351 193.206 263.158 193.953 262.935 194.822C262.704 195.692 262.465 196.685 262.226 197.794C261.232 202.212 260.168 208.386 259.413 215.252C258.658 222.119 258.319 228.369 258.288 232.895C258.265 235.159 258.311 236.991 258.365 238.253C258.404 238.846 258.435 239.323 258.458 239.708C258.496 240.047 258.512 240.216 258.527 240.216Z" fill="#263238"/>
<path d="M258.558 228.161C258.589 228.161 258.581 227.622 258.55 226.637C258.496 225.659 258.357 224.251 258.08 222.519C257.787 220.795 257.379 218.739 256.739 216.515C256.462 215.498 255.807 213.058 254.227 209.41C252.147 204.468 249.311 200.434 246.845 197.932C246.267 197.27 245.628 196.793 245.112 196.323C244.842 196.1 244.611 195.877 244.372 195.7C244.133 195.531 243.909 195.377 243.701 195.238C242.892 194.684 242.438 194.391 242.422 194.422C242.353 194.522 244.241 195.631 246.622 198.163C248.995 200.696 251.746 204.706 253.819 209.602C254.975 212.258 255.776 214.629 256.346 216.638C257.009 218.847 257.44 220.871 257.772 222.58C258.088 224.297 258.265 225.69 258.381 226.66C258.465 227.622 258.527 228.161 258.558 228.161Z" fill="#263238"/>
<path d="M246.9 249.43L248.102 265.98H269.392L270.602 249.43H246.9Z" fill="#263238"/>
<path d="M273.145 242.903H244.842V249.43H273.145V242.903Z" fill="#263238"/>
<path d="M244.842 265.349V267.158H246.168H272.675V265.349H244.842Z" fill="#455A64"/>
<path d="M247.47 270.337L246.167 267.158H271.657L270.139 270.337H247.47Z" fill="#455A64"/>
<path d="M270.201 254.841C270.209 254.849 270.17 254.895 270.101 254.995C270.016 255.111 269.908 255.249 269.785 255.419C269.484 255.804 269.068 256.335 268.544 257.004L268.49 257.074L268.436 256.997C267.658 255.919 266.618 254.479 265.393 252.786H265.57C264.661 254.072 263.651 255.496 262.573 257.027L262.48 257.158L262.372 257.035C261.263 255.719 260.061 254.295 258.812 252.809H259.02C258.959 252.886 258.889 252.971 258.828 253.055C257.726 254.433 256.655 255.773 255.645 257.035L255.537 257.166L255.437 257.027C254.358 255.503 253.349 254.079 252.44 252.786L252.617 252.794C251.138 254.48 249.882 255.904 248.918 256.997L248.849 257.074L248.803 256.989C248.317 256.173 247.924 255.519 247.647 255.049C247.524 254.841 247.431 254.664 247.346 254.533C247.285 254.418 247.254 254.349 247.254 254.349C247.262 254.349 247.3 254.403 247.377 254.51C247.462 254.641 247.57 254.803 247.709 255.011C248.001 255.473 248.41 256.111 248.926 256.92L248.81 256.912C249.758 255.804 250.991 254.356 252.447 252.655L252.54 252.547L252.625 252.663C253.542 253.948 254.566 255.365 255.653 256.881L255.453 256.873C256.462 255.603 257.525 254.272 258.627 252.886C258.697 252.801 258.758 252.717 258.82 252.64L258.92 252.517L259.028 252.64C260.276 254.125 261.471 255.557 262.573 256.873L262.372 256.881C263.466 255.357 264.484 253.933 265.401 252.663L265.493 252.54L265.578 252.663C266.78 254.372 267.797 255.827 268.56 256.92H268.452C268.999 256.265 269.431 255.75 269.739 255.372C269.877 255.211 269.993 255.08 270.085 254.972C270.155 254.88 270.201 254.834 270.201 254.841Z" fill="#E0E0E0"/>
<path d="M270.894 249.322C270.894 249.399 265.562 249.453 258.982 249.453C252.401 249.453 247.069 249.392 247.069 249.322C247.069 249.253 252.401 249.191 258.982 249.191C265.562 249.191 270.894 249.245 270.894 249.322Z" fill="#455A64"/>
<path d="M271.973 267.335C271.973 267.412 266.179 267.466 259.028 267.466C251.877 267.466 246.083 267.404 246.083 267.335C246.083 267.266 251.877 267.204 259.028 267.204C266.171 267.204 271.973 267.258 271.973 267.335Z" fill="#263238"/>
<path d="M62.0046 214.529C61.943 214.598 61.4575 214.314 60.9181 213.875C60.3787 213.444 59.9857 213.036 60.0474 212.959C60.109 212.89 60.5945 213.182 61.1339 213.613C61.6733 214.052 62.0585 214.46 62.0046 214.529Z" fill="#263238"/>
<path d="M76.7685 192.49C76.861 190.427 76.9149 188.318 76.2677 186.363C75.6204 184.408 74.1101 182.607 72.0836 182.191C69.7796 181.714 67.414 183.169 66.1194 185.131C64.8249 187.094 64.3857 189.488 64.0004 191.805C61.3728 207.801 60.4019 224.066 61.1108 240.262L70.5501 241.586C74.688 224.675 76.0134 209.887 76.7685 192.49Z" fill="#455A64"/>
<path d="M70.7733 182.114C70.781 182.114 70.7656 182.168 70.727 182.268C70.6885 182.384 70.6346 182.522 70.5729 182.699C70.4188 183.1 70.2108 183.638 69.9411 184.331C69.8101 184.685 69.6329 185.07 69.4942 185.509C69.3555 185.948 69.2013 186.425 69.0395 186.933C68.8777 187.449 68.7005 187.995 68.5078 188.573C68.3537 189.165 68.1919 189.789 68.0224 190.443C67.3135 193.053 66.7202 196.232 66.1962 199.773C65.6876 203.321 65.3486 207.247 65.0866 211.373C64.6011 219.633 64.5318 227.13 64.316 232.55C64.2158 235.259 64.1234 237.453 64.0155 238.97C63.9693 239.701 63.923 240.286 63.8999 240.709C63.8845 240.894 63.8691 241.04 63.8614 241.163C63.8537 241.263 63.846 241.317 63.8383 241.317C63.8306 241.317 63.8306 241.263 63.8306 241.163C63.8306 241.04 63.8306 240.894 63.8383 240.709C63.8537 240.286 63.8691 239.701 63.8922 238.962C63.9539 237.445 64.0155 235.252 64.0848 232.542C64.239 227.123 64.2775 219.625 64.7552 211.35C65.0172 207.216 65.364 203.283 65.8957 199.727C66.435 196.178 67.0515 192.999 67.7989 190.382C67.9762 189.727 68.1457 189.104 68.3075 188.511C68.5001 187.934 68.6928 187.387 68.8623 186.871C69.0395 186.363 69.2013 185.886 69.3477 185.447C69.4942 185.009 69.6791 184.631 69.8255 184.277C70.1183 183.6 70.3418 183.061 70.5113 182.668C70.5883 182.499 70.65 182.368 70.6962 182.253C70.7425 182.16 70.7656 182.114 70.7733 182.114Z" fill="#263238"/>
<path d="M71.6443 182.122C71.6443 182.122 72.2222 182.714 72.8001 184.069C73.3934 185.416 73.7633 187.556 73.6631 190.166C73.4088 195.377 72.9465 202.551 72.3223 210.48C71.6982 218.409 71.0047 225.567 70.4499 230.748C70.1725 233.334 69.9336 235.428 69.7564 236.875C69.6639 237.576 69.5946 238.13 69.5406 238.538C69.5175 238.707 69.4944 238.854 69.479 238.969C69.4636 239.069 69.4482 239.115 69.4482 239.115C69.4405 239.115 69.4405 239.062 69.4482 238.969C69.4559 238.854 69.4636 238.707 69.479 238.53C69.5175 238.122 69.5637 237.561 69.6331 236.86C69.7718 235.382 69.9798 233.288 70.2264 230.717C70.7196 225.537 71.3746 218.37 71.9987 210.441C72.6152 202.521 73.1237 195.339 73.4319 190.15C73.5629 187.556 73.2393 185.455 72.6845 184.108C72.1451 182.768 71.6057 182.145 71.6443 182.122Z" fill="#263238"/>
<path d="M78.1863 206.516C78.1555 206.6 77.3541 206.4 76.3986 206.054C75.4431 205.707 74.6957 205.361 74.7265 205.276C74.7573 205.192 75.5587 205.392 76.5142 205.738C77.4697 206.084 78.2171 206.431 78.1863 206.516Z" fill="#263238"/>
<path d="M79.3272 196.909C79.3657 196.994 78.6029 197.417 77.6243 197.856C76.6457 198.295 75.8212 198.58 75.7826 198.495C75.7441 198.41 76.507 197.987 77.4856 197.548C78.4642 197.11 79.2887 196.825 79.3272 196.909Z" fill="#263238"/>
<path d="M78.7336 189.073C78.7259 189.165 78.0941 189.196 77.3235 189.142C76.553 189.088 75.9365 188.973 75.9365 188.88C75.9442 188.788 76.5761 188.757 77.3466 188.811C78.1249 188.857 78.7413 188.981 78.7336 189.073Z" fill="#263238"/>
<path d="M68.9943 184.047C68.9172 184.093 68.5011 183.585 68.0696 182.9C67.6381 182.214 67.353 181.622 67.43 181.568C67.5071 181.522 67.9232 182.03 68.3547 182.715C68.7939 183.4 69.079 184 68.9943 184.047Z" fill="#263238"/>
<path d="M65.7808 188.788C65.7808 188.88 65.1797 188.942 64.44 188.926C63.7003 188.911 63.1069 188.826 63.1069 188.726C63.1069 188.634 63.708 188.572 64.4477 188.588C65.1874 188.603 65.7808 188.696 65.7808 188.788Z" fill="#263238"/>
<path d="M63.4691 198.272C63.4306 198.356 62.8065 198.187 62.059 197.887C61.3116 197.587 60.7414 197.271 60.7722 197.186C60.8107 197.102 61.4349 197.271 62.1823 197.571C62.9297 197.879 63.5077 198.187 63.4691 198.272Z" fill="#263238"/>
<path d="M63.2223 206.254C63.2378 206.346 62.7061 206.531 62.0203 206.677C61.3345 206.824 60.772 206.862 60.7489 206.77C60.7335 206.677 61.2651 206.493 61.9509 206.346C62.6367 206.2 63.2069 206.162 63.2223 206.254Z" fill="#263238"/>
<path d="M62.1355 219.302C62.151 219.394 61.5807 219.571 60.8641 219.702C60.1398 219.833 59.5465 219.864 59.5311 219.771C59.5157 219.679 60.0859 219.502 60.8025 219.371C61.5191 219.24 62.1201 219.209 62.1355 219.302Z" fill="#263238"/>
<path d="M61.4114 226.507C61.4576 226.591 60.9799 226.922 60.348 227.261C59.7162 227.592 59.1691 227.8 59.1305 227.715C59.0843 227.631 59.562 227.3 60.1939 226.961C60.8258 226.63 61.3729 226.422 61.4114 226.507Z" fill="#263238"/>
<path d="M67.299 234.682C67.2219 234.728 66.8058 234.158 66.3743 233.404C65.9428 232.65 65.6577 232.003 65.7425 231.957C65.8195 231.911 66.2356 232.48 66.6671 233.235C67.0986 233.989 67.3838 234.636 67.299 234.682Z" fill="#263238"/>
<path d="M69.0015 221.095C69.0631 221.165 68.6085 221.719 67.9689 222.342C67.337 222.966 66.7668 223.412 66.6975 223.351C66.6358 223.281 67.0905 222.727 67.73 222.104C68.3696 221.48 68.9321 221.026 69.0015 221.095Z" fill="#263238"/>
<path d="M68.6241 213.967C68.5548 214.029 68.131 213.682 67.6687 213.182C67.2063 212.689 66.8904 212.235 66.9597 212.166C67.0291 212.104 67.4529 212.451 67.9152 212.951C68.3776 213.451 68.6935 213.905 68.6241 213.967Z" fill="#263238"/>
<path d="M69.7951 204.853C69.8645 204.914 69.4792 205.461 68.9321 206.061C68.385 206.67 67.8919 207.108 67.8225 207.047C67.7532 206.985 68.1384 206.446 68.6855 205.838C69.2249 205.238 69.7258 204.791 69.7951 204.853Z" fill="#263238"/>
<path d="M70.4499 198.249C70.3883 198.318 69.8489 197.895 69.2479 197.31C68.6468 196.725 68.2153 196.193 68.2847 196.124C68.3463 196.055 68.8857 196.478 69.4867 197.063C70.0878 197.648 70.5193 198.179 70.4499 198.249Z" fill="#263238"/>
<path d="M71.7448 189.311C71.8219 189.357 71.5522 189.958 71.1438 190.65C70.7277 191.343 70.3347 191.867 70.25 191.813C70.1729 191.767 70.4426 191.166 70.851 190.473C71.2671 189.781 71.6601 189.257 71.7448 189.311Z" fill="#263238"/>
<path d="M74.172 181.029C74.2568 181.075 74.0179 181.675 73.6403 182.368C73.2627 183.061 72.8929 183.592 72.8081 183.546C72.7233 183.5 72.9622 182.899 73.3398 182.206C73.7174 181.514 74.0872 180.982 74.172 181.029Z" fill="#263238"/>
<path d="M76.9305 184.785C76.969 184.87 76.5914 185.131 76.0906 185.378C75.582 185.616 75.1428 185.747 75.1043 185.663C75.0657 185.578 75.4433 185.316 75.9442 185.07C76.445 184.831 76.892 184.708 76.9305 184.785Z" fill="#263238"/>
<path d="M77.0002 214.53C76.9848 214.614 76.1295 214.499 75.1509 214.083C74.18 213.667 73.5019 213.136 73.5481 213.059C73.6021 212.975 74.3418 213.375 75.2819 213.775C76.2219 214.175 77.0156 214.437 77.0002 214.53Z" fill="#263238"/>
<path d="M75.8675 220.834C75.8829 220.926 75.3204 221.111 74.5961 221.249C73.8795 221.388 73.2784 221.426 73.263 221.334C73.2476 221.242 73.8101 221.057 74.5344 220.918C75.2587 220.78 75.8521 220.741 75.8675 220.834Z" fill="#263238"/>
<path d="M74.4878 231.633C74.4338 231.703 73.7095 231.21 73.0545 230.371C72.3919 229.54 72.0759 228.724 72.153 228.685C72.2377 228.639 72.677 229.355 73.3165 230.163C73.9484 230.971 74.5494 231.557 74.4878 231.633Z" fill="#263238"/>
<path d="M59.316 236.575C59.2544 236.506 59.6397 236.075 60.1714 235.621C60.703 235.167 61.1885 234.851 61.2501 234.92C61.3118 234.989 60.9265 235.421 60.3948 235.875C59.8554 236.329 59.3777 236.644 59.316 236.575Z" fill="#263238"/>
<path d="M54.9539 212.997C54.3375 211.081 53.1893 208.848 51.1705 208.818C49.9761 208.802 48.8973 209.657 48.3425 210.711C47.78 211.766 47.5412 212.99 47.5797 214.183C47.8108 222.065 49.1747 231.079 51.9102 239.293H59.2767C59.1766 230.163 57.7433 221.688 54.9539 212.997Z" fill="#455A64"/>
<path d="M41.6306 200.935C40.5981 196.817 37.5313 194.6 33.9636 194.392C30.7042 194.962 29.4404 198.164 29.0552 201.443C28.6699 204.722 29.687 207.986 30.6964 211.135C33.9328 221.234 37.1614 231.333 40.3977 241.441C43.4492 241.11 46.5083 240.771 49.5597 240.44C46.6547 226.907 44.9903 214.368 41.6306 200.935Z" fill="#455A64"/>
<path d="M51.1784 208.817C51.2092 208.84 50.8778 209.148 50.5542 209.857C50.2383 210.572 50.0842 211.712 50.2075 213.113C50.3539 214.514 50.508 216.199 50.7468 218.039C50.9857 219.887 51.3171 221.911 51.7332 224.028C52.5654 228.254 53.5054 232.049 54.0988 234.813C54.3993 236.198 54.6305 237.314 54.7692 238.092C54.8308 238.446 54.8847 238.746 54.9233 238.992C54.9541 239.2 54.9695 239.308 54.9541 239.308C54.9387 239.308 54.9079 239.208 54.8539 239.008C54.7923 238.769 54.7229 238.477 54.6382 238.123C54.4455 237.299 54.1835 236.206 53.8599 234.866C53.2049 232.118 52.2263 228.331 51.3941 224.09C50.978 221.973 50.6544 219.933 50.4309 218.078C50.3153 217.146 50.2383 216.261 50.1612 215.43C50.0919 214.606 50.0071 213.836 49.9609 213.12C49.8607 211.704 50.0533 210.519 50.4232 209.795C50.8008 209.087 51.1784 208.817 51.1784 208.817Z" fill="#263238"/>
<path d="M34.0949 194.13C34.1257 194.161 33.6094 194.592 32.9853 195.616C32.3688 196.624 31.7138 198.271 31.5906 200.404C31.4519 202.536 31.9296 205.061 32.7233 207.778C33.5247 210.503 34.4108 213.49 35.3355 216.63C37.1617 222.904 38.8184 228.585 40.0282 232.742C40.6061 234.782 41.0761 236.444 41.4152 237.637C41.5616 238.192 41.6849 238.638 41.7773 238.969C41.8544 239.277 41.8929 239.439 41.8775 239.439C41.8698 239.439 41.8081 239.285 41.708 238.984C41.6001 238.653 41.4614 238.215 41.2842 237.668C40.922 236.483 40.4134 234.835 39.797 232.803C38.5641 228.654 36.8766 222.989 35.0118 216.723C34.0949 213.582 33.2164 210.588 32.4228 207.855C31.6368 205.13 31.1745 202.551 31.3517 200.38C31.5058 198.21 32.207 196.539 32.8697 195.539C33.5401 194.53 34.0949 194.13 34.0949 194.13Z" fill="#263238"/>
<path d="M47.5569 239.462C47.5491 239.47 47.4721 239.316 47.3488 239.024C47.2255 238.731 47.0329 238.3 46.8248 237.738C46.3856 236.614 45.8308 234.959 45.2452 232.873C44.6596 230.795 44.0893 228.285 43.5345 225.491C43.0029 222.689 42.4172 219.61 41.8085 216.385C41.1689 213.159 40.46 210.111 39.6355 207.386C38.811 204.661 37.8941 202.267 36.9617 200.335C36.037 198.395 35.1509 196.894 34.4882 195.886C34.1723 195.37 33.8872 195 33.7177 194.731C33.5404 194.469 33.4557 194.323 33.4634 194.315C33.4711 194.308 33.579 194.438 33.7716 194.685C33.9565 194.939 34.2648 195.301 34.5961 195.801C35.2973 196.786 36.2143 198.28 37.1698 200.219C38.1329 202.159 39.0807 204.553 39.9206 207.286C40.7682 210.019 41.4849 213.075 42.1244 216.308C42.7255 219.541 43.3034 222.62 43.8274 225.422C44.3667 228.216 44.9061 230.725 45.4609 232.804C46.008 234.882 46.532 236.545 46.9327 237.684C47.1176 238.254 47.2949 238.693 47.395 238.993C47.5183 239.301 47.5723 239.455 47.5569 239.462Z" fill="#263238"/>
<path d="M30.8583 209.626C30.8815 209.718 30.3806 209.918 29.741 210.072C29.1015 210.226 28.5698 210.28 28.5467 210.188C28.5236 210.095 29.0244 209.895 29.664 209.741C30.3035 209.587 30.8352 209.534 30.8583 209.626Z" fill="#263238"/>
<path d="M29.8878 203.375C29.8801 203.468 29.1866 203.506 28.339 203.545C27.4914 203.576 26.7979 203.591 26.7825 203.499C26.7671 203.406 27.4606 203.237 28.3236 203.206C29.1943 203.175 29.8955 203.283 29.8878 203.375Z" fill="#263238"/>
<path d="M30.9203 197.671C30.8587 197.74 30.3655 197.417 29.8107 196.947C29.2559 196.478 28.8553 196.039 28.9169 195.97C28.9785 195.901 29.4717 196.224 30.0265 196.693C30.5813 197.163 30.982 197.602 30.9203 197.671Z" fill="#263238"/>
<path d="M33.7172 192.383C33.8097 192.406 33.7866 192.852 33.7712 193.383C33.7558 193.922 33.7558 194.369 33.6633 194.384C33.5708 194.4 33.4167 193.953 33.4398 193.376C33.4475 192.806 33.6248 192.367 33.7172 192.383Z" fill="#263238"/>
<path d="M39.4276 194.876C39.5047 194.93 39.2812 195.384 38.9268 195.885C38.5723 196.385 38.2256 196.755 38.1485 196.701C38.0714 196.647 38.2949 196.193 38.6494 195.692C39.0038 195.184 39.3506 194.823 39.4276 194.876Z" fill="#263238"/>
<path d="M43.1414 201.312C43.1799 201.397 42.7021 201.674 42.078 201.928C41.4538 202.182 40.9222 202.313 40.8913 202.228C40.8528 202.143 41.3306 201.866 41.9547 201.612C42.5712 201.358 43.1028 201.227 43.1414 201.312Z" fill="#263238"/>
<path d="M45.3841 207.932C45.4226 208.017 44.7908 208.371 43.9277 208.563C43.0647 208.763 42.3481 208.709 42.3404 208.617C42.3327 208.525 43.0262 208.424 43.8507 208.232C44.6906 208.047 45.3533 207.839 45.3841 207.932Z" fill="#263238"/>
<path d="M35.0583 206.054C34.9658 206.023 35.0352 205.569 35.2047 205.03C35.3742 204.491 35.5823 204.083 35.667 204.106C35.7595 204.137 35.6901 204.591 35.5206 205.13C35.3588 205.669 35.1508 206.077 35.0583 206.054Z" fill="#263238"/>
<path d="M36.4996 214.36C36.4148 214.321 36.5997 213.706 36.9157 212.982C37.2316 212.258 37.5552 211.704 37.64 211.743C37.7247 211.781 37.5398 212.397 37.2239 213.12C36.908 213.844 36.5843 214.398 36.4996 214.36Z" fill="#263238"/>
<path d="M32.9392 216.638C32.9007 216.722 32.3227 216.568 31.6215 216.345C30.9203 216.122 30.3501 215.922 30.3732 215.829C30.3886 215.737 31.0051 215.799 31.7217 216.022C32.4383 216.253 32.9777 216.553 32.9392 216.638Z" fill="#263238"/>
<path d="M34.9965 223.412C35.0504 223.489 34.6574 223.859 34.118 224.243C33.5786 224.628 33.1009 224.875 33.0469 224.798C32.993 224.721 33.386 224.351 33.9254 223.966C34.4571 223.589 34.9425 223.343 34.9965 223.412Z" fill="#263238"/>
<path d="M36.638 230.171C36.6611 230.263 36.1757 230.455 35.5515 230.609C34.9274 230.763 34.4111 230.81 34.388 230.717C34.3649 230.625 34.8503 230.432 35.4745 230.278C36.0986 230.132 36.6149 230.078 36.638 230.171Z" fill="#263238"/>
<path d="M45.5686 213.575C45.6148 213.652 45.1987 213.983 44.5977 214.214C43.9967 214.444 43.465 214.468 43.4496 214.375C43.4342 214.283 43.9042 214.113 44.4821 213.898C45.0523 213.682 45.5224 213.49 45.5686 213.575Z" fill="#263238"/>
<path d="M46.8478 224.09C46.8092 224.174 46.3161 224.028 45.7459 223.759C45.1756 223.489 44.7441 223.204 44.7827 223.12C44.8212 223.035 45.3143 223.181 45.8846 223.451C46.4548 223.72 46.8863 224.005 46.8478 224.09Z" fill="#263238"/>
<path d="M49.0973 231.61C49.0665 231.695 48.4115 231.525 47.641 231.217C46.8704 230.917 46.2694 230.602 46.3079 230.517C46.3387 230.432 46.9937 230.602 47.7643 230.909C48.5348 231.21 49.1281 231.525 49.0973 231.61Z" fill="#263238"/>
<path d="M37.0001 237.499C36.9538 237.414 37.5549 237.014 38.2484 236.46C38.9419 235.913 39.4813 235.428 39.5506 235.49C39.62 235.551 39.1807 236.159 38.4564 236.721C37.7398 237.299 37.0386 237.583 37.0001 237.499Z" fill="#263238"/>
<path d="M42.9563 233.681C42.8638 233.689 42.7328 233.188 42.5016 232.596C42.2782 232.003 42.0316 231.549 42.1086 231.487C42.178 231.433 42.571 231.834 42.8176 232.473C43.0564 233.111 43.041 233.673 42.9563 233.681Z" fill="#263238"/>
<path d="M41.3769 224.629C41.323 224.706 40.9377 224.521 40.5216 224.221C40.0978 223.92 39.805 223.613 39.8589 223.536C39.9129 223.459 40.2982 223.643 40.7143 223.944C41.1304 224.251 41.4309 224.552 41.3769 224.629Z" fill="#263238"/>
<path d="M55.2545 210.449C55.3085 210.526 54.9386 210.896 54.4146 211.273C53.8983 211.658 53.436 211.904 53.3744 211.827C53.3204 211.75 53.6903 211.381 54.2143 211.003C54.7305 210.626 55.2006 210.38 55.2545 210.449Z" fill="#263238"/>
<path d="M57.3427 216.169C57.3505 216.261 56.7648 216.384 56.0405 216.3C55.3162 216.223 54.7691 215.976 54.7922 215.892C54.823 215.799 55.3855 215.892 56.0713 215.969C56.7648 216.038 57.335 216.069 57.3427 216.169Z" fill="#263238"/>
<path d="M48.3582 217.446C48.3813 217.538 47.8342 217.731 47.133 217.777C46.4318 217.823 45.8693 217.708 45.877 217.615C45.8847 217.523 46.4395 217.492 47.1099 217.446C47.7803 217.392 48.3351 217.354 48.3582 217.446Z" fill="#263238"/>
<path d="M49.1286 212.043C49.1209 212.135 48.5738 212.143 47.9728 211.866C47.3717 211.589 47.025 211.165 47.0866 211.104C47.1483 211.034 47.5644 211.311 48.1115 211.558C48.6586 211.819 49.1363 211.95 49.1286 212.043Z" fill="#263238"/>
<path d="M58.1133 222.296C58.067 222.373 57.5045 222.111 56.8573 221.703C56.21 221.295 55.7322 220.911 55.7785 220.826C55.8247 220.749 56.3872 221.011 57.0345 221.419C57.6818 221.827 58.1672 222.219 58.1133 222.296Z" fill="#263238"/>
<path d="M80.0506 238.331H32.0835V246.821H80.0506V238.331Z" fill="#2B75CD"/>
<path d="M35.6665 245.136L41.4996 270.515H70.0873L76.4752 245.136H35.6665Z" fill="#2B75CD"/>
<path d="M80.0275 246.829C80.0275 246.921 69.2089 246.998 55.8629 246.998C42.5169 246.998 31.6982 246.921 31.6982 246.829C31.6982 246.737 42.5169 246.66 55.8629 246.66C69.2089 246.667 80.0275 246.737 80.0275 246.829Z" fill="#263238"/>
<path d="M53.3512 217.631C53.2741 217.677 52.9428 217.3 52.6192 216.777C52.2955 216.253 52.0952 215.791 52.1723 215.745C52.2493 215.699 52.5807 216.076 52.9043 216.6C53.2279 217.123 53.4283 217.585 53.3512 217.631Z" fill="#263238"/>
<path d="M53.3666 224.467C53.2819 224.436 53.3898 223.859 53.6209 223.174C53.8444 222.488 54.1064 221.957 54.1911 221.988C54.2759 222.019 54.168 222.596 53.9369 223.281C53.7134 223.966 53.4591 224.498 53.3666 224.467Z" fill="#263238"/>
<path d="M55.709 231.641C55.6242 231.68 55.2698 231.11 54.9076 230.363C54.5532 229.617 54.3297 228.978 54.4145 228.939C54.4992 228.901 54.8537 229.47 55.2158 230.217C55.5703 230.964 55.7938 231.603 55.709 231.641Z" fill="#263238"/>
<path d="M50.6471 237.414C50.5778 237.353 50.8629 236.906 51.2867 236.421C51.7105 235.936 52.1112 235.59 52.1805 235.652C52.2499 235.713 51.9648 236.16 51.5409 236.645C51.1171 237.13 50.7165 237.468 50.6471 237.414Z" fill="#263238"/>
<path d="M49.5834 226.93C49.568 227.022 49.1057 227.015 48.5509 226.922C47.9961 226.822 47.5646 226.668 47.58 226.584C47.5954 226.491 48.0577 226.499 48.6125 226.591C49.1596 226.684 49.5988 226.838 49.5834 226.93Z" fill="#263238"/>
<path d="M216.462 179.958H102.712V270.576H216.462V179.958Z" fill="#E0E0E0"/>
<g opacity="0.3">
<g opacity="0.3">
<path opacity="0.3" d="M110.996 180.15C124.388 184.923 139.16 185.939 153.531 186.209C156.505 186.262 159.518 186.262 162.4 187.009C165.282 187.756 168.071 189.372 169.551 191.951C171.161 194.761 170.992 198.279 170.075 201.381C169.158 204.483 167.578 207.346 166.43 210.379C164.419 215.691 163.795 221.526 164.635 227.137C164.989 229.524 165.629 231.925 167.008 233.911C168.387 235.89 170.614 237.398 173.034 237.437C177.356 237.498 180.315 233.257 182.458 229.5C191.25 214.113 200.758 196.624 206.383 179.827L110.996 180.15Z" fill="black"/>
</g>
</g>
<path d="M141.471 270.091C141.363 270.091 141.271 250.008 141.271 225.236C141.271 200.457 141.363 180.374 141.471 180.374C141.579 180.374 141.672 200.457 141.672 225.236C141.672 250.008 141.579 270.091 141.471 270.091Z" fill="#455A64"/>
<path d="M188.082 112.989C187.743 110.733 180.985 103.259 180.985 103.259C180.985 103.259 177.603 89.703 176.593 85.7079C176.339 84.7072 175.799 83.5756 175.121 82.4363C172.763 78.4412 169.304 75.2005 165.25 72.922L155.896 67.6644L153.654 62.6917L131.176 51.1528L125.081 61.8988C125.081 61.8988 110.279 66.6022 108.322 69.9584C106.365 73.3146 109.293 118.3 109.293 118.3C109.293 118.3 103.097 144.257 101.787 149.63C100.485 155.003 102.211 161.407 102.211 161.407L113.238 147.582C116.667 143.287 124.188 141.316 129.589 141.393L175.753 141.593L173.919 128.677L211.245 135.928C211.245 135.928 217.671 123.419 218.172 123.165C218.673 122.911 188.082 112.989 188.082 112.989Z" fill="#2B75CD"/>
<path d="M130.214 66.1175C129.89 65.7864 132.826 75.6857 136.502 85.762C138.482 91.1889 139.476 96.9468 139.476 102.751V124.936V139.238L161.614 137.737L158.308 113.705C158.308 113.705 155.611 98.2015 154.856 92.3051C154.163 86.909 151.789 72.2679 151.789 72.2679C151.789 72.2679 139.484 75.5472 130.214 66.1175Z" fill="white"/>
<path d="M179.329 122.057C179.306 122.057 179.298 121.856 179.329 121.502C179.36 121.148 179.445 120.632 179.622 120.017C179.961 118.785 180.754 117.13 182.149 115.729C183.552 114.328 185.208 113.535 186.441 113.189C187.058 113.012 187.574 112.927 187.928 112.896C188.283 112.865 188.483 112.873 188.483 112.896C188.491 112.966 187.705 113.05 186.526 113.458C185.347 113.858 183.775 114.659 182.434 116.006C181.093 117.353 180.292 118.924 179.891 120.101C179.483 121.279 179.398 122.064 179.329 122.057Z" fill="#263238"/>
<path d="M180.469 113.304C180.423 113.22 181.872 112.481 183.852 112.327C185.825 112.157 187.381 112.642 187.343 112.742C187.32 112.865 185.778 112.565 183.883 112.727C181.987 112.873 180.516 113.42 180.469 113.304Z" fill="#263238"/>
<g opacity="0.3">
<g opacity="0.3">
<path opacity="0.3" d="M107.058 133.211L105.14 135.389C107.197 137.783 109.871 139.785 112.938 140.539C116.004 141.294 119.187 141.378 122.346 141.394C123.625 141.394 124.92 141.386 126.153 141.032C127.401 140.67 128.572 139.962 129.875 139.885C130.745 139.831 131.601 140.07 132.456 140.254C133.311 140.439 134.213 140.562 135.045 140.293C135.877 140.023 136.601 139.254 136.548 138.384C126.946 135.582 117.037 133.85 107.058 133.211Z" fill="black"/>
</g>
</g>
<path d="M170.244 136.005L164.811 130.239L153.638 127.414C153.638 127.414 143.397 130.478 143.159 130.47C142.912 130.462 134.251 128.107 134.251 128.107L131.223 139.199L146.826 140.269L164.642 139.553C164.642 139.553 165.574 138.691 165.019 138.098C164.472 137.506 168.001 139.099 168.417 139.115C168.826 139.13 169.643 139.453 170.19 138.791C170.567 138.337 171.076 136.882 170.244 136.005Z" fill="#FFBE9D"/>
<path d="M165.027 138.098C165.004 138.152 164.334 137.936 163.255 137.59C162.169 137.244 160.674 136.789 159.002 136.358C157.322 135.927 155.788 135.612 154.679 135.388C153.561 135.165 152.876 135.027 152.883 134.973C152.891 134.919 153.6 134.957 154.725 135.111C155.858 135.265 157.414 135.542 159.102 135.973C160.789 136.405 162.292 136.913 163.355 137.328C164.411 137.744 165.043 138.052 165.027 138.098Z" fill="#EB996E"/>
<path d="M170.244 136.005C170.22 136.059 169.288 135.712 167.762 135.204C166.244 134.688 164.118 134.065 161.752 133.403C159.394 132.702 157.29 132.002 155.695 131.91C154.108 131.779 153.137 132.087 153.122 132.01C153.114 131.987 153.345 131.894 153.792 131.786C154.231 131.679 154.894 131.602 155.711 131.625C157.36 131.648 159.525 132.325 161.86 133.018C164.225 133.68 166.352 134.35 167.855 134.935C168.61 135.22 169.211 135.481 169.619 135.666C170.035 135.858 170.251 135.974 170.244 136.005Z" fill="#EB996E"/>
<path d="M108.314 69.9502C108.314 69.9502 100.262 75.5464 98.3049 83.5982C96.3477 91.6577 87.8562 124.55 89.5976 129.477C91.3391 134.403 125.205 139.23 125.205 139.23L129.22 122.318L112.021 117.614C112.021 117.614 112.237 101.95 112.46 95.4604C112.668 88.9712 108.314 69.9502 108.314 69.9502Z" fill="#2B75CD"/>
<path d="M128.989 124.843L134.529 126.206L131.2 138.976L125.752 138.099L128.989 124.843Z" fill="white"/>
<path d="M89.4671 127.745C89.498 127.745 89.4517 128.03 89.5519 128.546C89.6598 129.054 89.9911 129.793 90.7308 130.462C92.2026 131.833 95.0151 132.972 98.5751 133.611H98.5905L98.6059 133.618C100.232 134.15 102.089 134.581 104.077 135.027C106.065 135.474 108.199 135.928 110.449 136.382C114.957 137.306 119.943 138.268 125.221 139.261L124.99 139.407C125.375 137.837 125.776 136.182 126.184 134.496C127.132 130.616 128.057 126.852 128.927 123.288L129.066 123.519C123.379 121.895 118.186 120.417 113.786 119.162H113.778H113.77C111.436 118.208 109.116 117.861 107.105 118C105.086 118.092 103.391 118.631 102.073 119.178C100.756 119.739 99.8157 120.355 99.1839 120.779C98.8911 120.994 98.6599 121.156 98.4827 121.287C98.3208 121.402 98.2361 121.456 98.2361 121.448C98.2284 121.441 98.3054 121.371 98.4518 121.248C98.6059 121.125 98.8217 120.933 99.1299 120.702C99.7464 120.255 100.679 119.609 102.004 119.016C103.322 118.439 105.032 117.861 107.09 117.746C109.132 117.584 111.505 117.915 113.894 118.87L113.878 118.862C118.294 120.101 123.487 121.556 129.182 123.15L129.359 123.203L129.313 123.388C128.442 126.952 127.525 130.716 126.585 134.596C126.176 136.274 125.768 137.937 125.383 139.507L125.329 139.684L125.144 139.646C119.858 138.653 114.872 137.667 110.372 136.728C108.122 136.259 105.988 135.789 104 135.335C102.012 134.873 100.17 134.434 98.5135 133.872L98.5366 133.88C94.9304 133.195 92.1179 132.01 90.6307 130.57C89.8832 129.862 89.5673 129.084 89.4748 128.553C89.3978 128.022 89.4671 127.745 89.4671 127.745Z" fill="#263238"/>
<path d="M112.946 118.747C112.899 118.801 112.321 118.27 111.289 117.577C110.256 116.884 108.731 116.068 106.92 115.537C105.101 115.013 103.375 114.883 102.135 114.913C100.894 114.944 100.123 115.075 100.116 115.013C100.108 114.975 100.856 114.736 102.127 114.636C103.391 114.529 105.171 114.621 107.035 115.16C108.9 115.706 110.449 116.584 111.458 117.354C112.468 118.108 112.976 118.716 112.946 118.747Z" fill="#263238"/>
<path d="M115.203 91.1886C115.234 91.1886 115.234 91.5581 115.211 92.2201C115.196 92.8821 115.142 93.8443 115.049 95.0221C114.857 97.3853 114.51 100.649 113.886 104.213C113.277 107.785 112.499 110.979 111.751 113.235C111.559 113.797 111.366 114.305 111.204 114.744C111.019 115.159 110.857 115.529 110.711 115.852C110.395 116.437 110.21 116.753 110.187 116.745C110.164 116.73 110.303 116.391 110.572 115.79C110.696 115.459 110.842 115.082 110.996 114.667C111.143 114.22 111.312 113.72 111.482 113.15C112.16 110.887 112.884 107.7 113.493 104.144C114.109 100.588 114.502 97.3468 114.764 94.9913C114.88 93.8751 114.98 92.9437 115.057 92.2047C115.126 91.5504 115.173 91.1809 115.203 91.1886Z" fill="#263238"/>
<path d="M134.837 82.4596C134.814 82.4673 134.76 82.2518 134.568 81.89C134.375 81.5359 134.036 81.0355 133.412 80.6276C132.803 80.2273 131.871 79.9348 130.908 80.2581C129.96 80.566 129.027 81.4512 128.796 82.6521L128.688 83.1986L128.449 82.6906C127.64 80.9432 126.808 78.9341 126.092 76.7479C124.789 72.7836 124.227 68.9886 124.35 66.2482C124.35 65.5631 124.443 64.9473 124.489 64.4085C124.581 63.8696 124.651 63.4078 124.735 63.0383C124.928 62.2993 125.051 61.8913 125.074 61.899C125.175 61.9144 124.62 63.5386 124.635 66.2559C124.589 68.9578 125.182 72.6989 126.477 76.6248C127.186 78.7878 127.995 80.7969 128.781 82.5366L128.434 82.5751C128.719 81.228 129.767 80.2812 130.815 79.9656C131.894 79.6346 132.911 79.981 133.535 80.4428C134.182 80.9047 134.514 81.4589 134.676 81.8361C134.753 82.0286 134.807 82.1825 134.822 82.2903C134.845 82.4057 134.853 82.4596 134.837 82.4596Z" fill="#263238"/>
<path d="M153.623 84.1912C153.6 84.1912 153.546 83.8679 153.446 83.2752C153.361 82.6825 153.168 81.8126 153.284 80.6965C153.438 79.6034 153.954 78.2717 155.141 77.2864C155.727 76.8014 156.528 76.4781 157.383 76.4858C158.223 76.4858 159.14 76.8091 159.741 77.5404L159.402 77.7328C159.171 77.1401 158.924 76.5243 158.67 75.8931C157.229 72.2675 155.95 68.9729 155.049 66.5866C154.625 65.4473 154.27 64.4928 153.993 63.7538C153.754 63.0841 153.631 62.7069 153.654 62.6915C153.677 62.6838 153.847 63.0379 154.139 63.6922C154.448 64.4235 154.841 65.3626 155.311 66.4865C156.289 68.8497 157.607 72.1212 159.048 75.7545C159.294 76.3858 159.541 77.0016 159.772 77.5943L160.242 78.7797L159.433 77.7867C158.932 77.1709 158.131 76.8707 157.383 76.863C156.621 76.8553 155.912 77.1247 155.365 77.5635C154.263 78.441 153.723 79.7112 153.554 80.735C153.407 81.7895 153.561 82.6671 153.6 83.2598C153.646 83.8602 153.654 84.1912 153.623 84.1912Z" fill="#263238"/>
<path d="M167.917 86.1001C168.025 86.0847 169.766 97.7853 171.808 112.234C173.85 126.69 175.407 138.414 175.299 138.429C175.191 138.445 173.449 126.744 171.408 112.288C169.373 97.8468 167.809 86.1155 167.917 86.1001Z" fill="#263238"/>
<g opacity="0.3">
<g opacity="0.3">
<path opacity="0.3" d="M126.33 76.8784C126.423 79.8651 127.078 82.8365 128.249 85.5692C129.089 84.5377 130.021 83.4369 131.292 83.1367C132.888 82.7595 134.49 83.7371 135.646 84.9302C135.4 83.7371 134.999 82.5593 134.259 81.6125C133.512 80.6657 132.387 79.9883 131.208 80.0191C130.021 80.0499 128.85 80.9197 128.634 82.1129L126.423 76.9323" fill="black"/>
</g>
</g>
<path d="M113.323 85.3306C113.246 85.3306 113.276 84.5224 113.038 83.2677C112.806 82.0129 112.244 80.3117 111.165 78.6875C110.618 77.8793 110.009 77.1865 109.401 76.5937C108.776 76.0241 108.183 75.5545 107.636 75.2235C106.557 74.5384 105.794 74.2767 105.817 74.2074C105.825 74.1843 106.018 74.2305 106.372 74.346C106.549 74.3999 106.757 74.4769 106.996 74.5846C107.235 74.6924 107.505 74.8079 107.79 74.9772C108.368 75.2851 109.008 75.7547 109.662 76.3243C110.302 76.917 110.942 77.6329 111.504 78.4643C112.621 80.1424 113.161 81.9206 113.323 83.2215C113.407 83.8681 113.431 84.3992 113.4 84.7687C113.369 85.1382 113.346 85.3383 113.323 85.3306Z" fill="#263238"/>
<path d="M158.046 30.3997C157.136 21.8553 149.801 15.4431 141.201 15.6663L140.346 15.6894C131.146 16.4669 126.661 24.7034 127.693 33.8714L130.221 66.1171L131.292 67.4257C136.239 73.4915 144.653 75.4775 151.796 72.2522L151.088 61.8757C151.088 61.8757 159.91 60.2746 159.795 51.4222C159.725 47.15 158.893 38.3515 158.046 30.3997Z" fill="#FFBE9D"/>
<path d="M151.149 61.8679C151.149 61.8679 145.501 62.3529 139.452 58.7734C139.452 58.7734 142.349 65.0702 151.165 64.0464L151.149 61.8679Z" fill="#EB996E"/>
<path d="M155.241 37.7204C155.279 38.3901 154.748 38.9751 154.054 39.029C153.361 39.0829 152.76 38.5902 152.721 37.9205C152.683 37.2508 153.214 36.6658 153.908 36.6119C154.601 36.558 155.202 37.0584 155.241 37.7204Z" fill="#263238"/>
<path d="M155.803 32.9088C155.703 33.0628 154.702 33.1705 153.499 33.8171C152.297 34.456 151.581 35.272 151.411 35.2566C151.334 35.2566 151.404 35.0334 151.712 34.6716C152.02 34.3175 152.59 33.8171 153.338 33.4168C154.085 33.0166 154.786 32.8318 155.218 32.7933C155.665 32.7548 155.857 32.8395 155.803 32.9088Z" fill="#263238"/>
<path d="M142.45 38.3898C142.488 39.0595 141.957 39.6445 141.263 39.6984C140.57 39.7523 139.969 39.2596 139.93 38.5899C139.892 37.9202 140.423 37.3352 141.117 37.2813C141.818 37.2274 142.411 37.7278 142.45 38.3898Z" fill="#263238"/>
<path d="M142.257 34.7716C142.08 34.8101 141.255 34.2558 139.937 33.9248C138.62 33.5938 137.549 33.6785 137.425 33.563C137.364 33.5092 137.564 33.4091 138.034 33.3706C138.496 33.3244 139.252 33.3629 140.076 33.563C140.901 33.7709 141.54 34.0865 141.895 34.3328C142.249 34.5791 142.342 34.7562 142.257 34.7716Z" fill="#263238"/>
<path d="M147.597 45.3405C147.589 45.2635 148.429 45.0942 149.801 44.8863C150.147 44.8401 150.471 44.7632 150.525 44.5245C150.602 44.2705 150.448 43.901 150.263 43.5007C149.916 42.6694 149.546 41.7996 149.169 40.8835C147.643 37.1578 146.534 34.0864 146.68 34.0249C146.834 33.9633 148.19 36.9346 149.716 40.668C150.086 41.584 150.433 42.4616 150.772 43.3006C150.91 43.6932 151.149 44.132 150.987 44.6554C150.903 44.9171 150.648 45.1096 150.433 45.1789C150.209 45.2558 150.016 45.2635 149.847 45.2789C148.46 45.3867 147.605 45.4175 147.597 45.3405Z" fill="#263238"/>
<path d="M142.28 29.5143C142.126 29.8761 140.777 29.6374 139.175 29.7529C137.564 29.8376 136.254 30.2378 136.062 29.8991C135.977 29.7375 136.216 29.3988 136.755 29.0678C137.287 28.7368 138.127 28.4366 139.09 28.375C140.053 28.3134 140.924 28.5136 141.494 28.7753C142.064 29.037 142.342 29.3449 142.28 29.5143Z" fill="#263238"/>
<path d="M155.772 29.8146C155.48 30.1302 154.301 29.8146 152.898 29.8146C151.488 29.7761 150.302 30.0456 150.024 29.7299C149.901 29.576 150.086 29.2604 150.602 28.9679C151.111 28.6677 151.966 28.4213 152.937 28.4367C153.9 28.4521 154.748 28.7215 155.233 29.0371C155.734 29.3451 155.903 29.6684 155.772 29.8146Z" fill="#263238"/>
<path d="M160.627 22.5709C160.458 21.7703 159.664 21.0852 158.855 21.2084C159.286 21.0545 159.733 20.8928 160.08 20.5849C160.427 20.277 160.643 19.7843 160.496 19.3533C160.273 18.6682 159.394 18.5296 158.701 18.3295C157.792 18.0754 156.975 17.5289 156.389 16.7899C155.549 15.7276 155.226 14.342 154.494 13.2028C153.553 11.7248 151.912 10.701 150.171 10.5086C148.422 10.3161 146.603 10.955 145.362 12.1944C144.006 10.8088 141.964 10.1237 140.046 10.4162C138.127 10.7087 136.385 11.9712 135.507 13.6954C133.157 12.7178 130.283 13.1181 128.295 14.7115C126.307 16.2973 125.282 19.0069 125.713 21.5163L131.23 24.8956C131.323 23.1944 133.226 21.8396 134.867 22.3092C136.532 22.7864 137.595 24.7186 139.329 24.8494C140.677 24.9495 141.818 23.9103 143.128 23.5639C144.708 23.1405 146.38 23.7717 147.805 24.58C149.231 25.3806 150.587 26.3813 152.174 26.7815C154.039 27.2511 156.019 26.8431 157.799 26.1119C158.562 25.8039 159.317 25.4191 159.88 24.8263C160.442 24.2182 160.797 23.3715 160.627 22.5709Z" fill="#263238"/>
<path d="M132.193 22.2936L157.468 22.1473C156.636 20.4308 155.195 19.076 153.638 17.9598C150.286 15.5658 146.21 14.1263 142.087 14.1648C137.965 14.2033 129.72 19.4531 126.815 22.3706C124.488 24.7107 124.557 26.6736 124.557 26.6736C124.272 29.9528 126.206 33.6246 127.023 36.8115C127.447 38.4588 128.31 43.4469 128.31 43.4469C129.705 43.4007 130.19 42.2846 129.936 40.9144L129.527 35.526C129.527 35.526 134.166 32.0312 131.754 25.95C131.377 25.4804 130.544 23.2558 132.193 22.2936Z" fill="#263238"/>
<path d="M129.134 35.1794C127.848 30.707 126.669 25.919 128.033 21.4698C127.786 21.4621 127.532 21.4467 127.285 21.439L126.969 21.6699C125.559 21.1926 123.864 21.7315 122.985 22.94C122.107 24.1409 122.115 25.919 122.993 27.1199C121.498 27.0506 120.057 28.2976 119.926 29.791C119.834 30.8225 120.281 31.8155 120.743 32.7392C121.205 33.6629 121.699 34.6251 121.706 35.6566C121.714 36.6881 121.051 37.812 120.026 37.9352C120.489 38.9975 121.768 39.621 122.885 39.3208C122.531 40.1983 121.922 40.9604 121.151 41.5069C122.8 42.6231 125.058 42.2459 126.846 41.376C127.909 40.8603 128.95 40.1213 129.381 39.0282C129.859 37.8043 129.497 36.4341 129.134 35.1794Z" fill="#263238"/>
<path d="M128.718 40.383C128.564 40.3215 122.585 38.7434 122.932 44.7861C123.278 50.8288 129.281 49.2354 129.281 49.0584C129.289 48.889 128.718 40.383 128.718 40.383Z" fill="#FFBE9D"/>
<path d="M127.84 46.8649C127.809 46.8495 127.74 46.9419 127.562 47.0342C127.393 47.1266 127.1 47.1959 126.776 47.0958C126.121 46.8957 125.528 45.9181 125.436 44.825C125.389 44.2785 125.474 43.7473 125.644 43.3009C125.805 42.8467 126.067 42.5234 126.391 42.4464C126.707 42.354 126.946 42.5311 127.031 42.7004C127.123 42.8621 127.092 42.9852 127.123 42.9929C127.139 43.0083 127.246 42.8852 127.185 42.6389C127.154 42.5234 127.077 42.3848 126.923 42.2771C126.769 42.1693 126.553 42.1231 126.329 42.1539C125.867 42.2155 125.466 42.6696 125.281 43.1546C125.066 43.6473 124.958 44.2477 125.012 44.8635C125.12 46.0797 125.813 47.1805 126.699 47.3883C127.131 47.473 127.478 47.3268 127.655 47.1728C127.84 47.0112 127.863 46.8726 127.84 46.8649Z" fill="#EB996E"/>
<path d="M122.438 35.3721C122.423 35.3875 122.269 35.1412 122.33 34.6716C122.384 34.2097 122.723 33.54 123.463 33.0936C124.195 32.6471 125.205 32.5393 126.237 32.4239C127.254 32.3161 128.418 32.0236 128.996 31.0229C129.581 30.0453 129.597 28.8521 129.466 27.8514C129.319 26.8353 129.05 25.9116 128.919 25.1187C128.595 23.5176 128.903 22.4938 128.957 22.5246C129.027 22.5323 128.849 23.5176 129.242 25.0495C129.412 25.8192 129.712 26.7199 129.89 27.7898C130.036 28.8444 130.059 30.1222 129.389 31.2692C129.05 31.8311 128.518 32.2622 127.948 32.4854C127.378 32.7164 126.807 32.7933 126.276 32.8549C125.22 32.9473 124.288 33.0243 123.617 33.3861C122.955 33.7325 122.608 34.3021 122.508 34.7024C122.4 35.1181 122.477 35.3644 122.438 35.3721Z" fill="#455A64"/>
<path d="M120.975 32.7316C120.951 32.7393 120.844 32.5623 120.79 32.1851C120.743 31.8156 120.766 31.2383 121.09 30.6301C121.252 30.3299 121.483 30.022 121.807 29.768C122.123 29.5063 122.554 29.3369 122.97 29.2292C123.379 29.106 123.81 29.0059 124.118 28.7596C124.427 28.5133 124.565 28.113 124.573 27.6511C124.588 27.1893 124.519 26.7043 124.535 26.2193C124.542 25.7421 124.596 25.2802 124.689 24.8492C124.874 23.987 125.189 23.2557 125.559 22.6861C125.922 22.1011 126.507 21.8163 126.9 21.8316C127.301 21.8316 127.47 22.0164 127.447 22.0318C127.432 22.0703 127.247 21.9625 126.908 22.0164C126.569 22.0549 126.137 22.3166 125.837 22.8631C125.536 23.402 125.267 24.1179 125.112 24.9338C125.035 25.3418 124.997 25.7729 124.997 26.227C124.989 26.6735 125.066 27.1431 125.051 27.6742C125.051 28.19 124.858 28.7904 124.411 29.1214C123.972 29.4524 123.494 29.5371 123.094 29.6525C122.261 29.8142 121.707 30.276 121.383 30.8072C120.736 31.8849 121.067 32.7393 120.975 32.7316Z" fill="#455A64"/>
<path d="M156.389 16.7978C156.427 16.8055 155.934 17.1288 155.141 16.7517C154.755 16.5823 154.37 16.2128 154 15.7817C153.63 15.343 153.206 14.8734 152.598 14.5347C151.419 13.865 149.5 13.688 148.036 14.8349C147.289 15.3738 146.626 16.1358 145.755 16.7671C145.324 17.075 144.815 17.3521 144.237 17.4675C143.667 17.583 143.058 17.4983 142.511 17.3059C141.417 16.9133 140.562 16.2436 139.614 15.9049C138.674 15.5431 137.695 15.3815 136.771 15.3969C134.906 15.4046 133.288 16.105 132.186 16.9749C131.061 17.8447 130.406 18.8146 130.02 19.5074C129.643 20.2079 129.504 20.639 129.466 20.6236C129.45 20.6159 129.473 20.5081 129.527 20.3003C129.581 20.0925 129.689 19.7923 129.859 19.4228C130.205 18.6915 130.837 17.6523 131.978 16.7132C133.095 15.774 134.79 14.9889 136.763 14.9658C137.741 14.9427 138.774 15.0966 139.776 15.4815C140.793 15.851 141.671 16.5207 142.658 16.8671C143.151 17.0442 143.652 17.1058 144.137 17.0134C144.622 16.921 145.062 16.6824 145.47 16.3976C146.287 15.8202 146.965 15.0582 147.766 14.4885C148.56 13.8958 149.531 13.6033 150.409 13.611C151.296 13.6187 152.105 13.865 152.752 14.2422C153.407 14.6194 153.854 15.1582 154.193 15.6047C154.547 16.0512 154.871 16.3976 155.218 16.5823C155.919 16.9826 156.389 16.7517 156.389 16.7978Z" fill="#455A64"/>
<path d="M144.238 46.926C144.43 46.8798 144.646 48.1731 145.91 48.9043C147.173 49.6356 148.522 49.2584 148.568 49.4432C148.599 49.5202 148.306 49.7434 147.721 49.8589C147.15 49.9743 146.287 49.9281 145.517 49.4817C144.746 49.0352 144.33 48.3347 144.199 47.8113C144.053 47.2724 144.145 46.9337 144.238 46.926Z" fill="#263238"/>
<path d="M223.983 167.196C221.694 165.156 218.527 164.209 215.468 164.386L210.259 180.921C214.074 181.09 217.88 183.053 221.563 182.045C224.522 181.236 226.765 178.458 227.173 175.425C227.589 172.392 226.271 169.236 223.983 167.196Z" fill="#2B75CD"/>
<path d="M215.56 164.001C215.568 163.87 216.123 163.762 217.14 163.778C218.142 163.809 219.637 163.916 221.401 164.578C223.173 165.233 225.1 166.572 226.587 168.604C227.334 169.62 227.959 170.829 228.321 172.191C228.691 173.546 228.752 175.063 228.452 176.525C228.151 177.996 227.504 179.373 226.556 180.474C225.608 181.583 224.399 182.345 223.197 182.799C220.769 183.707 218.435 183.561 216.647 183.222C214.844 182.868 213.488 182.345 212.563 181.96C211.646 181.567 211.168 181.275 211.207 181.144C211.245 181.013 211.808 181.051 212.786 181.213C213.765 181.367 215.152 181.667 216.847 181.821C218.527 181.975 220.561 181.921 222.503 181.09C223.466 180.674 224.36 180.058 225.054 179.212C225.755 178.365 226.248 177.287 226.487 176.125C226.988 173.777 226.271 171.429 225.077 169.659C223.875 167.873 222.31 166.595 220.831 165.872C219.344 165.133 217.972 164.802 217.032 164.548C216.084 164.309 215.545 164.147 215.56 164.001Z" fill="#F5F5F5"/>
<path d="M167.308 226.014L155.981 257.721L195.395 272C196.528 268.159 178.882 253.218 178.882 253.218L186.973 233.204L167.308 226.014Z" fill="#2B75CD"/>
<g opacity="0.6">
<g opacity="0.6">
<g opacity="0.6">
<g opacity="0.6">
<g opacity="0.6">
<g opacity="0.6">
<g opacity="0.6">
<g opacity="0.6">
<g opacity="0.6">
<g opacity="0.6">
<path opacity="0.6" d="M167.308 247.091C166.468 247.022 165.628 247.691 165.528 248.523C165.428 249.354 166.098 250.216 166.93 250.293C167.77 250.378 168.795 249.608 168.803 248.769C168.811 247.93 167.971 246.968 167.138 247.083" fill="white"/>
</g>
</g>
</g>
</g>
</g>
</g>
</g>
</g>
</g>
</g>
<path d="M155.981 257.721L157.121 254.519L194.563 269.437C194.563 269.437 196.042 270.838 195.395 272.001L155.981 257.721Z" fill="white"/>
<path d="M179.591 253.249C179.514 253.441 178.52 253.179 177.348 253.449C176.169 253.695 175.376 254.349 175.229 254.211C175.068 254.111 175.769 253.064 177.194 252.756C178.612 252.433 179.691 253.087 179.591 253.249Z" fill="#263238"/>
<path d="M183.104 256.451C183.081 256.651 182.126 256.674 181.178 257.252C180.215 257.798 179.729 258.622 179.537 258.545C179.344 258.506 179.622 257.336 180.816 256.643C182.003 255.935 183.166 256.266 183.104 256.451Z" fill="#263238"/>
<path d="M183.659 262.248C183.466 262.224 183.551 261.17 184.43 260.292C185.3 259.415 186.356 259.322 186.379 259.515C186.433 259.715 185.639 260.069 184.93 260.793C184.206 261.509 183.852 262.294 183.659 262.248Z" fill="#263238"/>
<path d="M180.924 248.476C180.777 248.622 179.991 248.037 178.882 247.714C177.772 247.368 176.793 247.429 176.755 247.229C176.693 247.052 177.78 246.636 179.09 247.037C180.392 247.422 181.078 248.361 180.924 248.476Z" fill="#263238"/>
<path d="M181.687 243.465C181.664 243.542 180.855 243.388 179.715 242.741C179.144 242.418 178.505 241.964 177.881 241.356C177.565 241.056 177.257 240.717 176.964 240.347C176.825 240.163 176.656 239.97 176.54 239.67C176.401 239.393 176.463 238.839 176.825 238.615C177.133 238.385 177.542 238.385 177.827 238.485C178.12 238.577 178.335 238.723 178.528 238.854C178.929 239.116 179.291 239.416 179.599 239.716C180.231 240.332 180.686 240.986 180.986 241.571C181.595 242.749 181.641 243.58 181.564 243.596C181.456 243.627 181.225 242.865 180.547 241.825C180.208 241.31 179.746 240.732 179.144 240.193C178.844 239.924 178.505 239.67 178.135 239.431C177.757 239.17 177.403 239.039 177.226 239.185C177.164 239.239 177.149 239.27 177.187 239.424C177.234 239.57 177.365 239.739 177.503 239.924C177.773 240.278 178.05 240.601 178.328 240.894C178.89 241.487 179.468 241.956 179.969 242.318C181.002 243.042 181.726 243.365 181.687 243.465Z" fill="#263238"/>
<path d="M181.333 243.649C181.256 243.657 181.125 242.826 181.502 241.556C181.695 240.924 182.026 240.201 182.558 239.493C182.82 239.139 183.136 238.8 183.498 238.477C183.868 238.169 184.338 237.753 185.116 237.938C185.509 238.061 185.725 238.484 185.74 238.784C185.771 239.1 185.717 239.339 185.679 239.577C185.586 240.062 185.409 240.509 185.201 240.909C184.769 241.702 184.176 242.272 183.621 242.641C182.481 243.38 181.595 243.318 181.602 243.249C181.571 243.126 182.381 243.003 183.321 242.233C183.783 241.856 184.276 241.309 184.615 240.609C184.785 240.255 184.923 239.87 184.993 239.454C185.085 239.015 185.047 238.615 184.877 238.607C184.685 238.53 184.238 238.731 183.953 239C183.621 239.277 183.328 239.585 183.074 239.893C182.566 240.516 182.211 241.155 181.98 241.725C181.502 242.864 181.448 243.665 181.333 243.649Z" fill="#263238"/>
<path d="M129.119 141.331C123.14 141.47 117.469 142.316 113.354 146.643C107.891 152.385 101.141 160.575 100.755 166.249C100.185 174.732 105.302 177.256 109.046 179.319C110.703 180.235 112.591 180.643 114.479 180.574L183.582 180.051L185.755 168.358L141.063 157.358L142.92 140.554L129.119 141.331Z" fill="#263238"/>
<path d="M142.905 140.554L164.642 139.553C164.642 139.553 202.192 141.639 210.205 148.975C218.219 156.311 217.217 164.648 214.544 172.646C211.87 180.651 188.345 231.826 188.345 231.826C188.345 231.826 190.256 235.082 189.177 238.33C187.513 243.357 183.043 244.165 183.043 244.165L162.146 236.491C162.146 236.491 159.31 235.49 161.314 232.826C163.317 230.155 164.65 229.663 164.65 229.663V224.328C164.65 224.328 171.994 210.988 172.664 209.156C173.334 207.324 180.369 180.182 180.369 180.182L185.047 172.153C185.047 172.153 173.743 166.842 163.941 162.993L141.056 157.358L142.905 140.554Z" fill="#263238"/>
<path d="M178.165 235.536C178.127 235.59 177.464 235.067 176.331 234.335C175.199 233.604 173.573 232.696 171.654 231.965C169.735 231.241 167.909 230.833 166.576 230.633C165.243 230.425 164.403 230.379 164.411 230.317C164.411 230.271 165.258 230.217 166.614 230.356C167.971 230.487 169.843 230.856 171.8 231.595C173.758 232.342 175.391 233.304 176.501 234.104C177.595 234.897 178.196 235.498 178.165 235.536Z" fill="#455A64"/>
<path d="M188.606 231.864C188.568 231.895 188.097 231.417 187.389 230.586C186.687 229.762 185.747 228.585 184.761 227.253C183.775 225.921 182.935 224.674 182.357 223.758C181.779 222.842 181.455 222.249 181.494 222.219C181.54 222.188 181.948 222.719 182.588 223.596C183.32 224.597 184.152 225.744 185.077 227.014C186.017 228.277 186.865 229.416 187.604 230.409C188.267 231.286 188.652 231.833 188.606 231.864Z" fill="#455A64"/>
<path d="M196.266 164.825C196.281 164.887 195.496 165.056 194.286 165.456C193.076 165.857 191.442 166.534 189.786 167.565C188.137 168.597 186.804 169.767 185.918 170.675C185.024 171.584 184.531 172.215 184.477 172.176C184.438 172.153 184.854 171.46 185.709 170.483C186.557 169.505 187.89 168.274 189.578 167.219C191.265 166.172 192.953 165.518 194.209 165.179C195.457 164.848 196.266 164.787 196.266 164.825Z" fill="#455A64"/>
<path d="M174.891 201.066C174.875 201.066 174.906 200.904 174.975 200.612C175.06 200.281 175.168 199.857 175.299 199.342C175.607 198.187 176.031 196.609 176.547 194.685C177.657 190.713 179.159 185.317 180.824 179.358C181.695 176.372 182.434 173.516 183.274 170.937C184.245 168.374 185.786 166.403 187.212 164.941C188.645 163.478 189.993 162.493 190.949 161.862C191.434 161.554 191.812 161.323 192.074 161.184C192.336 161.038 192.482 160.969 192.482 160.984C192.498 161.015 191.958 161.338 191.034 161.992C190.109 162.654 188.807 163.663 187.412 165.133C186.033 166.596 184.546 168.559 183.621 171.06C182.82 173.608 182.072 176.487 181.209 179.466C179.499 185.417 177.957 190.797 176.817 194.762C176.247 196.678 175.784 198.241 175.445 199.388C175.284 199.896 175.153 200.312 175.052 200.643C174.96 200.927 174.906 201.074 174.891 201.066Z" fill="#455A64"/>
<path d="M155.665 161.969C155.557 161.977 155.094 157.92 154.647 152.901C154.193 147.882 153.915 143.803 154.023 143.795C154.131 143.787 154.593 147.844 155.04 152.863C155.495 157.889 155.772 161.962 155.665 161.969Z" fill="#455A64"/>
<path d="M119.48 172.815C119.418 172.846 119.087 172.192 118.401 171.222C117.723 170.26 116.66 169.013 115.242 167.912C113.824 166.811 112.36 166.072 111.258 165.656C110.156 165.233 109.439 165.064 109.455 164.994C109.463 164.956 110.21 165.017 111.358 165.387C112.506 165.749 114.032 166.465 115.496 167.596C116.952 168.735 118.016 170.044 118.64 171.068C119.272 172.092 119.518 172.792 119.48 172.815Z" fill="#455A64"/>
<path d="M132.802 158.074C132.764 158.136 131.839 157.543 130.244 156.82C128.649 156.088 126.345 155.295 123.702 154.911C121.051 154.533 118.616 154.657 116.883 154.903C115.149 155.149 114.093 155.457 114.078 155.388C114.07 155.365 114.324 155.265 114.794 155.111C115.264 154.949 115.966 154.78 116.836 154.618C118.578 154.295 121.059 154.125 123.756 154.503C126.445 154.895 128.78 155.75 130.36 156.558C131.153 156.958 131.77 157.32 132.178 157.605C132.594 157.882 132.818 158.051 132.802 158.074Z" fill="#455A64"/>
<path d="M184.854 168.35C184.854 168.366 184.661 168.335 184.315 168.258C183.922 168.173 183.413 168.066 182.781 167.927C181.41 167.619 179.491 167.188 177.148 166.665C172.394 165.602 165.813 164.171 158.516 162.731C151.219 161.292 144.592 160.106 139.784 159.275C137.418 158.867 135.484 158.536 134.097 158.297C133.458 158.182 132.942 158.089 132.549 158.02C132.194 157.951 132.009 157.912 132.017 157.897C132.025 157.881 132.209 157.897 132.564 157.943C132.957 157.997 133.473 158.059 134.12 158.143C135.469 158.328 137.426 158.613 139.83 158.99C144.646 159.744 151.288 160.884 158.593 162.331C165.891 163.778 172.471 165.248 177.21 166.38C179.583 166.949 181.494 167.419 182.812 167.765C183.436 167.935 183.945 168.066 184.33 168.173C184.677 168.281 184.854 168.343 184.854 168.35Z" fill="#455A64"/>
<path d="M141.047 159.344C140.97 159.367 140.809 158.428 140.092 157.135C139.73 156.496 139.206 155.78 138.512 155.095C137.827 154.402 136.987 153.702 136.093 153.001C134.29 151.624 132.456 150.646 131.146 149.93C129.821 149.222 129.004 148.783 129.035 148.729C129.058 148.683 129.921 149.029 131.277 149.676C132.625 150.33 134.505 151.277 136.339 152.678C137.249 153.386 138.089 154.095 138.782 154.826C139.483 155.549 140.007 156.311 140.346 156.989C140.685 157.674 140.87 158.267 140.963 158.675C141.055 159.106 141.071 159.337 141.047 159.344Z" fill="#455A64"/>
<path d="M218.019 169.782C218.111 169.867 216.948 171.037 216.054 172.807C215.137 174.57 214.86 176.194 214.736 176.171C214.636 176.171 214.744 174.462 215.692 172.63C216.632 170.783 217.957 169.697 218.019 169.782Z" fill="#263238"/>
<g opacity="0.3">
<g opacity="0.3">
<path opacity="0.3" d="M168.557 90.896L173.504 125.705L173.75 126.259C174.921 114.282 173.118 102.035 168.557 90.896Z" fill="black"/>
</g>
</g>
<path d="M195.194 110.903L179.113 139.007L139.483 139.869L139.383 141.663L177.757 141.378L178.974 141.339L219.498 141.416L227.689 127.306L238.153 112.327C238.839 111.341 238.13 110.002 236.935 110.002L196.489 110.156C195.949 110.156 195.456 110.441 195.194 110.903Z" fill="#E0E0E0"/>
<path d="M227.681 127.298C227.681 127.298 229.761 129.207 229.438 130.824C229.107 132.44 229.222 133.649 227.681 133.757C227.681 133.757 227.789 135.835 225.6 136.166C225.6 136.166 226.071 138.706 223.112 139.145C223.112 139.145 222.202 141.862 220.338 141.2C218.473 140.546 217.271 139.776 217.271 139.776L216.724 138.791C216.724 138.791 213.98 137.76 214.659 136.212C215.067 135.273 216.492 135.027 216.492 135.027C216.492 135.027 215.899 133.649 216.67 132.617C217.325 131.732 219.475 132.463 219.475 132.463C219.475 132.463 219.351 131.324 220.153 130.37C220.885 129.508 224.291 131.855 224.291 131.855L226.155 129.638L227.681 127.298Z" fill="#FFBE9D"/>
<path d="M223.111 139.145C223.049 139.237 221.524 138.391 219.69 137.259C217.856 136.12 216.423 135.127 216.484 135.034C216.546 134.942 218.072 135.781 219.906 136.92C221.732 138.052 223.165 139.053 223.111 139.145Z" fill="#EB996E"/>
<path d="M225.6 136.166C225.546 136.258 224.12 135.512 222.425 134.488C220.73 133.464 219.405 132.563 219.459 132.471C219.513 132.379 220.938 133.125 222.633 134.149C224.329 135.173 225.654 136.074 225.6 136.166Z" fill="#EB996E"/>
<path d="M222.21 130.593C222.272 130.478 223.543 131.147 225.023 132.086C226.502 133.033 227.697 133.764 227.666 133.841C227.612 133.972 226.287 133.372 224.807 132.425C223.32 131.486 222.164 130.678 222.21 130.593Z" fill="#EB996E"/>
<path d="M238.146 111.064C238.146 111.072 238.076 111.08 237.953 111.087C237.799 111.095 237.614 111.103 237.383 111.11C236.851 111.118 236.119 111.134 235.194 111.149C233.26 111.164 230.517 111.187 227.15 111.21C220.323 111.226 210.953 111.249 200.604 111.272C199.957 111.272 199.309 111.272 198.67 111.272C198.061 111.226 197.514 111.495 197.198 111.965C196.589 113.066 195.988 114.143 195.395 115.213C194.208 117.346 193.068 119.409 191.981 121.371C189.801 125.29 187.836 128.815 186.179 131.786C184.53 134.719 183.182 137.106 182.234 138.791C181.772 139.592 181.409 140.223 181.147 140.685C181.032 140.885 180.932 141.039 180.855 141.17C180.785 141.278 180.747 141.332 180.747 141.332C180.739 141.332 180.77 141.27 180.824 141.155C180.893 141.016 180.978 140.854 181.078 140.647C181.325 140.177 181.671 139.53 182.103 138.714C183.028 137.013 184.33 134.612 185.933 131.648C187.566 128.661 189.508 125.12 191.666 121.187C192.744 119.216 193.885 117.153 195.064 115.013C195.657 113.943 196.258 112.85 196.875 111.742C197.252 111.141 198.007 110.81 198.678 110.864C199.317 110.864 199.964 110.864 200.612 110.864C210.968 110.887 220.338 110.91 227.157 110.926C230.532 110.949 233.268 110.972 235.202 110.987C236.127 111.003 236.859 111.018 237.39 111.026C237.622 111.033 237.807 111.041 237.961 111.049C238.084 111.049 238.146 111.057 238.146 111.064Z" fill="#263238"/>
<path d="M209.635 125.19C208.918 125.982 208.903 127.129 209.596 127.761C210.29 128.384 211.438 128.253 212.154 127.46C212.871 126.668 212.886 125.521 212.193 124.889C211.492 124.266 210.351 124.397 209.635 125.19Z" fill="white"/>
<g opacity="0.3">
<g opacity="0.3">
<path opacity="0.3" d="M97.1416 114.328C96.7948 114.466 96.4096 114.697 96.4019 115.066C96.4019 115.367 96.6793 115.605 96.9721 115.667C97.2649 115.728 98.3282 115.29 98.6211 115.228C102.79 114.312 106.219 115.19 110.187 116.745L110.318 116.614C108.731 113.273 101.619 112.519 97.1416 114.328Z" fill="black"/>
</g>
</g>
<path d="M311.834 270.576C311.834 270.684 242.13 270.776 156.174 270.776C70.1877 270.776 0.498535 270.692 0.498535 270.576C0.498535 270.461 70.1877 270.376 156.174 270.376C242.137 270.376 311.834 270.468 311.834 270.576Z" fill="#263238"/>
<path d="M169.597 39.3913L180.477 40.5921C183.097 36.8664 186.75 33.795 191.242 31.8629C204.164 26.3052 219.144 32.2709 224.707 45.18C230.271 58.089 224.299 73.0534 211.377 78.6111C198.455 84.1689 183.475 78.2031 177.911 65.2941C175.592 59.9057 175.284 54.1555 176.648 48.8826L176.64 48.898L169.597 39.3913Z" fill="#FAFAFA"/>
<path d="M169.597 39.3906C170.021 39.9525 172.225 42.87 176.725 48.8357L176.555 48.8434L176.563 48.828C176.586 48.7818 176.648 48.7587 176.702 48.7895C176.74 48.8126 176.763 48.8588 176.748 48.905C175.846 52.4228 175.5 57.0491 176.917 62.045C177.28 63.2843 177.719 64.5544 178.328 65.786C178.636 66.4019 178.929 67.0331 179.268 67.6566C179.645 68.257 180.023 68.8651 180.408 69.481C182.065 71.8749 184.215 74.115 186.842 75.9316C189.462 77.756 192.56 79.157 195.927 79.8883C199.294 80.6273 202.939 80.7119 206.53 79.9345C210.113 79.157 213.627 77.5789 216.678 75.2388C219.714 72.8987 222.349 69.8351 224.037 66.2171C225.778 62.5453 226.703 58.5271 226.564 54.6013C226.457 50.6831 225.424 46.8882 223.713 43.5781C222.003 40.2681 219.614 37.4123 216.825 35.28C214.051 33.1324 210.93 31.6544 207.801 30.8153C204.665 29.9763 201.529 29.7838 198.601 30.0764C195.665 30.3843 193.007 31.2618 190.626 32.2779C185.887 34.4487 182.62 37.7279 180.554 40.6299C180.531 40.6607 180.501 40.6761 180.462 40.6684C173.581 39.8679 170.268 39.4753 169.597 39.3906C170.275 39.4599 173.589 39.7909 180.493 40.4914L180.4 40.5298C182.45 37.5893 185.725 34.2562 190.51 32.0316C192.907 30.9847 195.603 30.0841 198.57 29.7684C201.529 29.4605 204.711 29.6453 207.894 30.492C211.069 31.3311 214.228 32.8244 217.056 34.9952C219.884 37.1506 222.311 40.0449 224.06 43.4011C225.809 46.7573 226.857 50.6062 226.973 54.5936C227.119 58.581 226.179 62.6608 224.415 66.3942C222.696 70.0737 220.022 73.1836 216.932 75.5622C213.835 77.9408 210.259 79.5419 206.622 80.3193C202.978 81.0968 199.271 81.0044 195.858 80.2501C192.436 79.4957 189.308 78.0716 186.65 76.2165C183.991 74.3613 181.818 72.0828 180.154 69.658C179.769 69.0345 179.383 68.4187 179.006 67.8106C178.667 67.1793 178.374 66.5404 178.066 65.9169C177.457 64.6699 177.018 63.3844 176.655 62.1296C175.245 57.0722 175.631 52.3997 176.563 48.8588L176.748 48.9358L176.74 48.9512C176.717 48.9973 176.655 49.0204 176.602 48.9896C176.586 48.9819 176.578 48.9742 176.571 48.9588C172.163 42.9161 170.013 39.9679 169.597 39.3906Z" fill="#263238"/>
<path d="M191.92 46.18C191.928 46.1877 191.936 46.3031 191.944 46.5341C191.951 46.7881 191.959 47.1114 191.967 47.5194C191.974 48.4046 191.99 49.6516 192.013 51.222C192.036 54.4165 192.067 58.912 192.098 64.3004L191.92 64.1234C197.199 64.1157 203.417 64.108 210.052 64.0926C210.098 64.0464 209.674 64.4698 209.851 64.2927V64.285V64.2773V64.2542V64.2157V64.1388V63.9848V63.6769V63.0611C209.851 62.6531 209.851 62.2374 209.851 61.8294C209.851 61.0135 209.851 60.2052 209.851 59.4047C209.851 57.8035 209.851 56.2409 209.859 54.7244C209.867 51.6838 209.874 48.8126 209.882 46.18L210.059 46.357C204.665 46.3185 200.165 46.2877 196.968 46.2724C195.396 46.257 194.155 46.2416 193.261 46.2262C192.853 46.2185 192.529 46.2108 192.275 46.2031C192.051 46.1877 191.928 46.1877 191.92 46.18C191.913 46.1723 192.021 46.1646 192.236 46.1569C192.483 46.1492 192.799 46.1415 193.192 46.1338C194.07 46.1261 195.303 46.1107 196.86 46.0876C200.081 46.0645 204.627 46.0337 210.059 46.0029H210.229V46.18C210.237 48.8126 210.244 51.6838 210.252 54.7244C210.252 56.2486 210.252 57.8112 210.26 59.4047C210.26 60.2052 210.26 61.0135 210.26 61.8294C210.26 62.2374 210.26 62.6454 210.26 63.0611V63.6769V63.9848V64.1388V64.2157V64.2542V64.2773V64.285V64.2927C210.437 64.1157 210.013 64.539 210.059 64.4929C203.425 64.4852 197.207 64.4775 191.928 64.4621H191.751V64.2927C191.79 58.8581 191.82 54.3242 191.836 51.1065C191.851 49.5593 191.867 48.3276 191.882 47.4424C191.89 47.0498 191.897 46.7342 191.905 46.4879C191.913 46.2801 191.913 46.1723 191.92 46.18Z" fill="#263238"/>
<path d="M208.102 49.1742C208.364 49.382 205.922 52.8922 202.655 57.0105C202 57.8341 201.368 58.6193 200.774 59.3352L200.389 59.8047L199.958 59.4121C197.122 56.8642 195.203 54.909 195.38 54.7088C195.558 54.5087 197.769 56.1252 200.705 58.55L199.881 58.627C200.443 57.888 201.059 57.0874 201.714 56.2638C204.974 52.1455 207.84 48.9663 208.102 49.1742Z" fill="#2B75CD"/>
</svg>