<svg width="415" height="415" viewBox="0 0 415 415" fill="none" xmlns="http://www.w3.org/2000/svg">
<g clip-path="url(#clip0)">
<path d="M315.865 262.452H174.06V296.209H315.865V262.452Z" fill="white"/>
<path d="M254.768 310.85H112.963V344.607H254.768V310.85Z" fill="white"/>
<path d="M306.343 359.249H164.539V393.006H306.343V359.249Z" fill="white"/>
<path d="M81.369 370.063C81.6379 369.713 81.8179 369.304 81.8935 368.869C82.5799 364.947 82.4363 360.925 81.472 357.062C80.5077 353.199 78.744 349.581 76.295 346.442C73.8459 343.303 70.7658 340.712 67.2535 338.837C63.7412 336.962 59.8748 335.845 55.9037 335.556C50.3212 335.151 44.9336 336.397 39.7237 337.601L39.5685 337.638C35.0035 338.694 29.8252 339.891 24.9074 339.422C19.9423 338.95 15.799 336.667 13.8236 333.314C11.9976 330.208 12.3852 325.097 15.6305 323.161C16.2365 322.782 16.6699 322.181 16.8377 321.486C17.0056 320.792 16.8945 320.059 16.5283 319.445C16.1621 318.831 15.5699 318.386 14.8789 318.204C14.1878 318.021 13.4529 318.117 12.8317 318.471C7.27654 321.785 5.54018 330.017 9.11665 336.087C11.9777 340.945 17.6872 344.226 24.3887 344.863C30.1895 345.414 35.8252 344.116 40.7978 342.962L40.953 342.926C45.767 341.813 50.747 340.662 55.507 341.007C58.7163 341.24 61.8411 342.143 64.6796 343.658C67.5182 345.173 70.0074 347.267 71.9867 349.804C73.9659 352.341 75.3911 355.265 76.1702 358.387C76.9494 361.509 77.0652 364.759 76.5102 367.929C76.4053 368.531 76.5051 369.15 76.7937 369.689C77.0822 370.227 77.5429 370.653 78.1022 370.899C78.6614 371.145 79.2869 371.196 79.8788 371.045C80.4707 370.894 80.9947 370.548 81.3673 370.064L81.369 370.063Z" fill="#467ABE"/>
<path d="M406.617 179.031C406.425 180.732 406.136 182.421 405.752 184.089C403.677 192.992 398.993 200.417 392.562 204.996C390.886 206.189 389.078 207.184 387.174 207.961C385.257 217.854 381.493 227.298 376.08 235.797C369.28 246.12 360.362 252.908 350.291 255.428C349.884 255.53 349.462 255.551 349.047 255.489C348.633 255.427 348.234 255.285 347.875 255.069C347.515 254.854 347.202 254.569 346.952 254.233C346.703 253.896 346.522 253.514 346.42 253.107C346.318 252.7 346.298 252.278 346.359 251.863C346.421 251.449 346.564 251.05 346.779 250.691C346.995 250.332 347.279 250.018 347.616 249.769C347.952 249.519 348.335 249.338 348.741 249.236C357.235 247.112 364.843 241.25 370.75 232.286C375.176 225.364 378.384 217.735 380.236 209.73C375.887 210.252 371.48 209.502 367.549 207.572C359.015 203.271 354.545 192.872 357.583 184.391C358.478 182.06 359.887 179.961 361.704 178.248C363.521 176.536 365.7 175.255 368.08 174.5C370.208 173.73 372.484 173.455 374.734 173.698C376.985 173.94 379.15 174.693 381.065 175.899C387.355 180.055 389.848 188.149 388.482 199.969L388.471 200.068C388.602 199.979 388.732 199.889 388.86 199.798C394.023 196.122 397.814 190.029 399.536 182.641C401.164 175.661 400.887 166.373 398.863 160.065C398.605 159.259 398.677 158.384 399.064 157.631C399.452 156.878 400.122 156.31 400.928 156.052C401.734 155.793 402.61 155.866 403.362 156.253C404.115 156.64 404.683 157.31 404.941 158.116C406.846 164.059 407.434 171.95 406.617 179.031ZM381.6 203.018C381.738 202.188 381.865 201.35 381.981 200.505C383.353 190.555 381.859 184.071 377.546 181.224C376.436 180.556 375.189 180.148 373.898 180.033C372.608 179.917 371.308 180.095 370.096 180.555C368.637 181.012 367.297 181.785 366.173 182.82C365.048 183.856 364.167 185.127 363.592 186.544C361.636 192 364.764 199.02 370.422 201.872C373.907 203.518 377.851 203.923 381.598 203.018H381.6Z" fill="#F16A4B"/>
<path d="M97.3755 19.92C98.19 20.2614 98.9942 20.6357 99.7883 21.043C104.766 23.5856 109.05 27.3023 112.27 31.872C112.475 32.1659 112.621 32.4975 112.698 32.8478C112.776 33.198 112.784 33.5601 112.721 33.9133C112.659 34.2666 112.527 34.604 112.334 34.9064C112.141 35.2088 111.891 35.4703 111.597 35.6759C111.303 35.8814 110.971 36.0271 110.621 36.1045C110.271 36.1819 109.909 36.1896 109.555 36.1271C109.202 36.0646 108.865 35.9331 108.562 35.7402C108.26 35.5473 107.998 35.2967 107.793 35.0027C102.368 27.2431 92.9856 22.4697 83.8888 22.8424C79.2434 23.0581 74.7459 24.5422 70.8844 27.1335C67.1831 29.5385 64.2158 32.9165 62.308 36.8968C64.4924 37.3584 66.606 38.1075 68.5936 39.1245C71.5197 40.5464 74.1109 42.5729 76.1961 45.0701C78.2812 47.5673 79.8129 50.4785 80.69 53.6113C81.3971 56.362 81.852 60.4356 80.021 64.2254C78.1261 68.143 74.045 70.5707 70.1083 70.13C67.8101 69.8727 65.5773 68.7099 63.2816 66.5751C59.1495 62.6313 56.3656 57.4856 55.3252 51.8692C54.6998 48.626 54.6305 45.3001 55.1202 42.0337C53.9731 42.2016 52.8491 42.5007 51.7703 42.9251C47.5581 44.5851 44.0355 47.9117 41.5821 52.5373C39.2254 57.0808 38.0724 62.1524 38.233 67.2682C38.5766 78.542 42.417 88.0912 49.6455 95.6542C49.8945 95.9132 50.0899 96.2188 50.2206 96.5535C50.3512 96.8882 50.4146 97.2454 50.407 97.6046C50.3994 97.9638 50.3211 98.318 50.1764 98.6468C50.0317 98.9757 49.8236 99.2728 49.5639 99.5211C49.3043 99.7694 48.9982 99.9641 48.6632 100.094C48.3281 100.224 47.9708 100.286 47.6116 100.278C47.2524 100.269 46.8984 100.19 46.5699 100.044C46.2414 99.899 45.9448 99.6901 45.6972 99.4298C37.5076 90.8617 33.1584 80.095 32.7724 67.435C32.5871 61.371 33.9587 55.3608 36.7564 49.9776C39.8274 44.1867 44.326 39.991 49.765 37.8438C51.942 36.991 54.2464 36.5082 56.5826 36.4154C56.7343 36.0153 56.8958 35.6197 57.0674 35.2285C61.5278 25.0261 72.2182 17.8558 83.668 17.3835C88.3677 17.2168 93.0467 18.0826 97.3755 19.92ZM69.6269 64.408C69.9738 64.5583 70.3406 64.6579 70.7159 64.7035C72.3418 64.8852 74.2276 63.6577 75.1033 61.8483C76.2171 59.5483 75.8785 56.8409 75.3987 54.975C74.7148 52.5918 73.5336 50.3805 71.9328 48.487C70.332 46.5936 68.3481 45.0609 66.1119 43.99C64.386 43.1039 62.5387 42.478 60.6297 42.1324C59.2536 49.5352 61.6158 57.5621 67.0025 62.5728C67.7645 63.3318 68.6525 63.9527 69.6269 64.408Z" fill="#258A79"/>
<path d="M413.469 401.033H2.20364C2.11294 401.028 2.0274 400.989 1.96477 400.924C1.90213 400.858 1.86719 400.771 1.86719 400.68C1.86719 400.589 1.90213 400.502 1.96477 400.436C2.0274 400.37 2.11294 400.331 2.20364 400.327H413.469C413.516 400.324 413.564 400.332 413.609 400.348C413.654 400.365 413.695 400.391 413.73 400.424C413.764 400.457 413.792 400.496 413.811 400.54C413.83 400.584 413.839 400.632 413.839 400.68C413.839 400.728 413.83 400.775 413.811 400.819C413.792 400.863 413.764 400.903 413.73 400.936C413.695 400.969 413.654 400.994 413.609 401.011C413.564 401.028 413.516 401.035 413.469 401.033H413.469Z" fill="#0D0D0D"/>
<path d="M202.586 279.573V291.841L210.279 288.22L217.971 291.841V279.573H202.586Z" fill="#F16A4B"/>
<path d="M185.245 288.606V270.055C185.245 268.039 186.046 266.105 187.472 264.679C188.898 263.253 190.832 262.452 192.848 262.452H322.351V255.131H83.1976C79.1648 255.131 75.2971 256.733 72.4454 259.584C69.5936 262.436 67.9914 266.304 67.9912 270.336V288.323C67.991 290.321 68.3842 292.298 69.1483 294.143C69.9124 295.988 71.0324 297.665 72.4445 299.077C73.8566 300.489 75.533 301.61 77.378 302.374C79.223 303.138 81.2006 303.532 83.1976 303.532H322.351V296.21H192.848C191.85 296.21 190.861 296.013 189.938 295.631C189.016 295.249 188.178 294.689 187.472 293.983C186.766 293.277 186.206 292.438 185.824 291.516C185.442 290.593 185.245 289.604 185.245 288.606Z" fill="#258A79"/>
<path d="M315.864 262.451H314.746V296.208H315.864V262.451Z" fill="#0E0E0E"/>
<path d="M243.366 280.133H195.807C195.659 280.133 195.516 280.074 195.411 279.969C195.306 279.864 195.248 279.721 195.248 279.573C195.248 279.425 195.306 279.282 195.411 279.178C195.516 279.073 195.659 279.014 195.807 279.014H243.366C243.514 279.014 243.657 279.073 243.762 279.178C243.866 279.282 243.925 279.425 243.925 279.573C243.925 279.721 243.866 279.864 243.762 279.969C243.657 280.074 243.514 280.133 243.366 280.133Z" fill="#0E0E0E"/>
<path d="M304.309 270.197H222.606C222.457 270.197 222.315 270.138 222.21 270.033C222.105 269.928 222.046 269.786 222.046 269.638C222.046 269.489 222.105 269.347 222.21 269.242C222.315 269.137 222.457 269.078 222.606 269.078H304.308C304.456 269.078 304.598 269.137 304.703 269.242C304.808 269.347 304.867 269.489 304.867 269.638C304.867 269.786 304.808 269.928 304.703 270.033C304.598 270.138 304.456 270.197 304.308 270.197H304.309Z" fill="#0E0E0E"/>
<path d="M297.314 290.067H244.775C244.631 290.062 244.494 290 244.394 289.896C244.293 289.792 244.237 289.653 244.237 289.508C244.237 289.364 244.293 289.225 244.394 289.12C244.494 289.016 244.631 288.955 244.775 288.949H297.314C297.459 288.955 297.595 289.016 297.696 289.12C297.796 289.225 297.852 289.364 297.852 289.508C297.852 289.653 297.796 289.792 297.696 289.896C297.595 290 297.459 290.062 297.314 290.067Z" fill="#0E0E0E"/>
<path d="M246.895 337.004V318.453C246.895 316.437 246.094 314.503 244.668 313.077C243.243 311.651 241.309 310.85 239.292 310.85H107.437V303.531H332.477C336.509 303.531 340.377 305.133 343.229 307.985C346.081 310.836 347.683 314.704 347.683 318.737V336.724C347.683 340.757 346.081 344.624 343.229 347.476C340.377 350.328 336.509 351.93 332.477 351.93H107.437V344.609H239.289C240.288 344.609 241.277 344.413 242.2 344.031C243.123 343.649 243.962 343.089 244.668 342.383C245.374 341.676 245.935 340.838 246.317 339.915C246.699 338.992 246.895 338.003 246.895 337.004Z" fill="#F1B950"/>
<path d="M114.185 310.85H113.067V344.607H114.185V310.85Z" fill="#0E0E0E"/>
<path d="M205.346 322.507H124.938C124.79 322.507 124.648 322.448 124.543 322.343C124.438 322.238 124.379 322.096 124.379 321.947C124.379 321.799 124.438 321.656 124.543 321.552C124.648 321.447 124.79 321.388 124.938 321.388H205.346C205.495 321.388 205.637 321.447 205.742 321.552C205.847 321.656 205.906 321.799 205.906 321.947C205.906 322.096 205.847 322.238 205.742 322.343C205.637 322.448 205.495 322.507 205.346 322.507Z" fill="#0E0E0E"/>
<path d="M237.561 334.378H165.102C165.027 334.381 164.952 334.369 164.881 334.342C164.811 334.315 164.747 334.275 164.693 334.222C164.638 334.17 164.595 334.108 164.566 334.038C164.536 333.969 164.521 333.894 164.521 333.819C164.521 333.744 164.536 333.669 164.566 333.6C164.595 333.531 164.638 333.468 164.693 333.416C164.747 333.364 164.811 333.323 164.881 333.296C164.952 333.27 165.027 333.257 165.102 333.26H237.565C237.71 333.266 237.846 333.327 237.947 333.431C238.047 333.536 238.103 333.675 238.103 333.819C238.103 333.964 238.047 334.103 237.947 334.207C237.846 334.311 237.71 334.373 237.565 334.378H237.561Z" fill="#0E0E0E"/>
<path d="M190.306 385.403V366.852C190.306 364.836 191.107 362.902 192.533 361.476C193.959 360.05 195.893 359.249 197.909 359.249H313.298V351.929H85.9048C81.872 351.929 78.0044 353.531 75.1528 356.382C72.3012 359.234 70.6992 363.102 70.6992 367.134V385.12C70.6992 389.153 72.3012 393.021 75.1528 395.872C78.0044 398.724 81.872 400.326 85.9048 400.326H313.298V393.005H197.909C195.893 393.005 193.959 392.205 192.533 390.779C191.108 389.353 190.307 387.42 190.306 385.403Z" fill="#F16A4B"/>
<path d="M306.502 359.249H305.384V393.006H306.502V359.249Z" fill="#0E0E0E"/>
<path d="M294.766 377.72H251.988C251.913 377.723 251.838 377.711 251.768 377.684C251.697 377.657 251.633 377.616 251.579 377.564C251.525 377.512 251.481 377.449 251.452 377.38C251.422 377.311 251.407 377.236 251.407 377.161C251.407 377.086 251.422 377.011 251.452 376.942C251.481 376.873 251.525 376.81 251.579 376.758C251.633 376.706 251.697 376.665 251.768 376.638C251.838 376.611 251.913 376.599 251.988 376.602H294.766C294.842 376.599 294.917 376.611 294.987 376.638C295.057 376.665 295.122 376.706 295.176 376.758C295.23 376.81 295.273 376.873 295.303 376.942C295.332 377.011 295.347 377.086 295.347 377.161C295.347 377.236 295.332 377.311 295.303 377.38C295.273 377.449 295.23 377.512 295.176 377.564C295.122 377.616 295.057 377.657 294.987 377.684C294.917 377.711 294.842 377.723 294.766 377.72Z" fill="#0E0E0E"/>
<path d="M262.711 369.159H201.408C201.264 369.153 201.127 369.092 201.027 368.988C200.927 368.884 200.871 368.745 200.871 368.6C200.871 368.455 200.927 368.316 201.027 368.212C201.127 368.108 201.264 368.047 201.408 368.041H262.711C262.856 368.047 262.993 368.108 263.093 368.212C263.193 368.316 263.249 368.455 263.249 368.6C263.249 368.745 263.193 368.884 263.093 368.988C262.993 369.092 262.856 369.153 262.711 369.159Z" fill="#0E0E0E"/>
<path d="M271.877 385.634H222.306C222.158 385.634 222.016 385.575 221.911 385.47C221.806 385.365 221.747 385.222 221.747 385.074C221.747 384.926 221.806 384.783 221.911 384.679C222.016 384.574 222.158 384.515 222.306 384.515H271.877C272.025 384.515 272.167 384.574 272.272 384.679C272.377 384.783 272.436 384.926 272.436 385.074C272.436 385.222 272.377 385.365 272.272 385.47C272.167 385.575 272.025 385.634 271.877 385.634Z" fill="#0E0E0E"/>
<path d="M180.733 82.6681C180.733 82.6681 180.932 81.5575 181.721 81.7235C182.532 81.8945 182.413 82.8382 182.413 82.8382C182.413 82.8382 182.513 81.6007 183.344 81.7011C184.116 81.7941 184.13 82.9187 184.13 82.9187C184.245 82.239 184.614 81.6953 185.263 81.892C185.892 82.0821 185.879 82.9287 185.879 82.9287C186.121 82.0879 187.027 81.9061 187.432 82.8872C187.837 83.8682 186.153 101.416 186.153 101.416C186.153 101.416 179.496 104.335 179.614 100.963C179.748 97.1607 177.213 94.757 176.91 92.5924C176.717 91.1844 176.614 89.7655 176.603 88.3444C176.603 87.2173 177.778 86.7741 178.186 88.0025C178.593 89.2309 178.346 90.9423 178.708 91.4304C180.21 93.4531 180.733 82.6681 180.733 82.6681Z" fill="#F7A4A6"/>
<path d="M182.645 82.8043C182.647 82.8214 182.647 82.8387 182.645 82.8557C182.645 82.8923 182.357 86.5584 182.124 88.8002C182.121 88.8309 182.112 88.8607 182.098 88.8879C182.083 88.9151 182.063 88.9392 182.039 88.9587C182.016 88.9783 181.988 88.9929 181.958 89.0017C181.929 89.0106 181.898 89.0135 181.867 89.0103C181.837 89.0072 181.807 88.9979 181.78 88.9832C181.753 88.9685 181.729 88.9486 181.709 88.9246C181.69 88.9006 181.675 88.873 181.667 88.8434C181.658 88.8138 181.655 88.7827 181.659 88.7521C181.891 86.5161 182.175 82.8591 182.178 82.8192C182.183 82.762 182.209 82.7085 182.25 82.6689C182.292 82.6294 182.347 82.6065 182.404 82.6046C182.461 82.6028 182.517 82.6221 182.561 82.6589C182.606 82.6957 182.635 82.7475 182.643 82.8043H182.645Z" fill="#F37576"/>
<path d="M184.362 82.8843C184.364 82.902 184.364 82.9198 184.362 82.9374C184.362 82.9715 184.065 86.3595 183.831 88.6005C183.825 88.662 183.794 88.7183 183.746 88.7572C183.698 88.796 183.636 88.8143 183.575 88.8079C183.513 88.8015 183.457 88.7711 183.418 88.7232C183.378 88.6754 183.36 88.6139 183.366 88.5524C183.598 86.3114 183.892 82.9308 183.895 82.8968C183.901 82.8396 183.926 82.7863 183.968 82.7471C184.01 82.7078 184.065 82.6852 184.122 82.6837C184.18 82.6821 184.236 82.7017 184.279 82.7387C184.323 82.7757 184.352 82.8275 184.36 82.8843H184.362Z" fill="#F37576"/>
<path d="M186.086 83.1832C186.009 83.9435 185.754 86.4202 185.559 88.3159C185.555 88.3725 185.531 88.4257 185.491 88.4661C185.451 88.5065 185.398 88.5315 185.342 88.5367C185.307 88.5391 185.273 88.5339 185.241 88.5217C185.209 88.5094 185.181 88.4903 185.157 88.4657C185.133 88.4411 185.115 88.4116 185.104 88.3793C185.093 88.3469 185.089 88.3126 185.093 88.2786C185.289 86.3837 185.542 83.8978 185.62 83.1326C185.623 83.102 185.633 83.0723 185.647 83.0452C185.662 83.0182 185.681 82.9942 185.705 82.9749C185.729 82.9555 185.757 82.941 185.786 82.9323C185.815 82.9237 185.846 82.9209 185.877 82.9242C185.908 82.9272 185.938 82.9363 185.965 82.951C185.992 82.9657 186.016 82.9857 186.036 83.0098C186.055 83.0339 186.07 83.0617 186.078 83.0914C186.087 83.1212 186.09 83.1524 186.086 83.1832Z" fill="#F37576"/>
<path d="M106.715 227.806L104.006 234.362L107.601 237.4L112.14 238.46L117.103 231.751L106.715 227.806Z" fill="#F7A4A6"/>
<path d="M104.006 234.362L97.8818 242.884L106.131 247.04L107.311 245.448L109.308 248.64L121.651 254.858C123.047 247.637 110.578 243.949 112.14 238.46L104.006 234.362Z" fill="#F16A4B"/>
<path d="M163.007 237.692L163.537 244.766L168.114 245.861L172.646 244.766L174.06 236.542L163.007 237.692Z" fill="#F7A4A6"/>
<path d="M127.358 142.063L127.758 192.527L96.5654 228.141L127.888 240.413C127.888 240.413 143.898 206.803 146.847 197.329C149.796 187.856 158.434 142.032 158.434 142.032L127.358 142.063Z" fill="#0E0E0E"/>
<path d="M150.438 145.355L160.421 196.92L146.929 240.491H182.255L179.402 195.383L179.84 143.6L150.438 145.355Z" fill="#0E0E0E"/>
<path d="M117.149 109.677C117.083 108.124 117.476 104.437 117.596 102.824C117.744 100.847 118.22 100.402 117.461 100.12C116.465 99.7493 115.869 101.447 115.461 104.352C115.454 104.407 115.428 104.456 115.388 104.493C115.348 104.53 115.296 104.552 115.241 104.554C115.187 104.557 115.133 104.541 115.09 104.508C115.046 104.475 115.016 104.428 115.003 104.375C114.335 101.542 112.762 94.3967 111.636 94.6398C110.464 94.8938 111.496 98.6438 112.329 102.177C112.338 102.218 112.339 102.26 112.332 102.301C112.324 102.342 112.309 102.382 112.286 102.417C112.263 102.452 112.234 102.482 112.199 102.506C112.165 102.529 112.126 102.546 112.085 102.554C112.037 102.566 111.987 102.561 111.941 102.541C111.896 102.521 111.859 102.487 111.836 102.444C109.894 98.8139 108.337 95.0142 107.218 95.6483C106.24 96.2019 108.218 99.8929 109.957 103.229C109.982 103.278 109.988 103.336 109.973 103.39C109.957 103.444 109.922 103.49 109.874 103.518C109.828 103.546 109.774 103.557 109.721 103.548C109.668 103.539 109.62 103.512 109.586 103.47C107.179 100.538 105.202 97.8669 104.29 98.6612C103.491 99.3584 105.658 101.959 107.878 104.67C107.938 104.743 107.975 104.832 107.983 104.926C107.991 105.02 107.97 105.115 107.923 105.197V105.202C107.907 105.232 107.883 105.257 107.856 105.276C107.828 105.294 107.796 105.307 107.763 105.311C107.73 105.316 107.696 105.313 107.664 105.303C107.632 105.292 107.603 105.275 107.579 105.251C105.319 103.083 104.113 102.044 103.537 102.702C102.873 103.455 108.122 108.533 108.122 108.533C109.055 110.196 110.271 111.683 111.716 112.927L113.448 117.713L120.136 114.579L117.149 109.677Z" fill="#F7A4A6"/>
<path d="M158.707 95.2764L144.815 95.9321L133.304 100.96L123.691 154.227C141.37 156.725 172.976 152.899 184.774 144.709L158.707 95.2764Z" fill="#F1B950"/>
<path d="M132.602 69.6371C119.891 74.095 130.063 88.3445 126.709 97.7617C130.604 99.3229 152.306 95.0335 161.103 87.5975C161.103 87.5975 157.949 68.7648 146.642 65.4365C135.829 62.2501 132.602 69.6371 132.602 69.6371Z" fill="#0E0E0E"/>
<path d="M136.247 87.333L140.429 98.3446C142.023 100.452 151.51 98.162 151.208 95.7517L147.981 87.0674L136.247 87.333Z" fill="#F7A4A6"/>
<path d="M148.617 88.7822L149.518 91.205L144.072 90.3982L148.617 88.7822Z" fill="#0E0E0E"/>
<path d="M132.347 82.2733C131.842 82.1727 131.32 82.2154 130.838 82.3966C130.357 82.5778 129.935 82.8903 129.622 83.2986C129.309 83.707 129.117 84.1948 129.067 84.7068C129.017 85.2189 129.112 85.7347 129.34 86.1958C129.568 86.6569 129.921 87.0448 130.359 87.3156C130.796 87.5864 131.301 87.7293 131.815 87.728C132.33 87.7267 132.833 87.5813 133.269 87.3083C133.706 87.0353 134.056 86.6456 134.282 86.1834C135.674 87.9513 137.584 89.2387 139.745 89.8647C141.906 90.4908 144.208 90.424 146.329 89.6737C148.45 88.9234 150.283 87.5274 151.569 85.6819C152.855 83.8364 153.531 81.6341 153.501 79.3846C153.472 77.1351 152.738 74.9515 151.403 73.1407C150.068 71.33 148.199 69.983 146.059 69.2892C143.919 68.5954 141.615 68.5897 139.472 69.2728C137.328 69.9559 135.453 71.2935 134.109 73.0976C133.179 74.4136 132.541 75.9128 132.237 77.4952C131.933 79.0775 131.971 80.7065 132.347 82.2733Z" fill="#F7A4A6"/>
<path d="M132.026 86.0652C131.795 86.0697 131.568 86.0091 131.371 85.8905C131.173 85.7719 131.013 85.6 130.909 85.3946C130.765 85.0988 130.74 84.759 130.839 84.4452C130.938 84.1314 131.153 83.8675 131.441 83.708L131.655 84.0541C131.454 84.1592 131.301 84.3387 131.229 84.5545C131.158 84.7703 131.173 85.0055 131.272 85.2103C131.331 85.3156 131.411 85.4081 131.506 85.4824C131.602 85.5567 131.711 85.6113 131.828 85.643C131.944 85.6748 132.066 85.683 132.186 85.6673C132.306 85.6516 132.421 85.6122 132.526 85.5514L132.678 85.9291C132.471 86.0161 132.25 86.0623 132.026 86.0652Z" fill="#F37576"/>
<path d="M148.03 82.2872C147.962 82.2873 147.896 82.2647 147.843 82.2229C147.789 82.1812 147.751 82.1227 147.734 82.0567C147.717 81.9907 147.723 81.9211 147.75 81.8588C147.778 81.7965 147.825 81.7451 147.885 81.7129C148.123 81.5851 148.258 81.4639 148.276 81.3742C148.318 81.1543 147.908 80.6604 147.387 80.0346C147.166 79.7682 146.914 79.4652 146.636 79.1133C146.589 79.0495 146.569 78.9698 146.579 78.8913C146.59 78.8127 146.631 78.7414 146.693 78.6924C146.755 78.6434 146.834 78.6205 146.913 78.6285C146.992 78.6366 147.065 78.675 147.116 78.7357C147.388 79.0809 147.637 79.3806 147.857 79.6445C148.577 80.5094 148.972 80.9858 148.875 81.4896C148.822 81.6601 148.732 81.8167 148.611 81.9482C148.49 82.0796 148.341 82.1827 148.176 82.2499C148.131 82.2745 148.081 82.2874 148.03 82.2872Z" fill="#0E0E0E"/>
<path d="M144.517 86.2614C144.091 86.263 143.669 86.1791 143.275 86.0146C142.882 85.85 142.526 85.6083 142.227 85.3036C142.197 85.2754 142.174 85.2414 142.157 85.2037C142.141 85.166 142.132 85.1253 142.132 85.0842C142.132 85.0431 142.139 85.0024 142.155 84.9644C142.171 84.9265 142.194 84.8921 142.224 84.8634C142.253 84.8346 142.288 84.8121 142.326 84.7972C142.365 84.7823 142.406 84.7752 142.447 84.7765C142.488 84.7778 142.528 84.7873 142.566 84.8046C142.603 84.8219 142.636 84.8465 142.664 84.877C142.934 85.1541 143.264 85.3663 143.628 85.4979C143.993 85.6294 144.382 85.6768 144.767 85.6365C144.845 85.6272 144.924 85.6485 144.987 85.6959C145.05 85.7434 145.092 85.8134 145.105 85.8912C145.117 85.969 145.099 86.0486 145.054 86.1135C145.01 86.1783 144.941 86.2233 144.864 86.239C144.749 86.255 144.633 86.2624 144.517 86.2614Z" fill="#0E0E0E"/>
<path d="M152.58 74.0437C148.211 74.4587 143.533 73.4336 138.283 72.1172C137.868 75.8622 135.71 80.4471 132.347 82.2731L129.755 77.4757L136.247 68.7607L146.386 68.3457L151.721 72.5787L152.58 74.0437Z" fill="#0E0E0E"/>
<path d="M141.04 80.1864C140.979 80.1865 140.921 80.1688 140.87 80.1356C140.82 80.1023 140.781 80.0551 140.757 79.9997C140.651 79.7277 140.655 79.4251 140.769 79.1562C140.883 78.8873 141.097 78.6735 141.366 78.5603C141.635 78.4471 141.938 78.4434 142.21 78.5501C142.481 78.6568 142.701 78.8654 142.821 79.1315C142.837 79.1686 142.846 79.2086 142.847 79.2492C142.848 79.2899 142.841 79.3302 142.826 79.368C142.811 79.4058 142.789 79.4402 142.76 79.4693C142.732 79.4983 142.698 79.5214 142.661 79.5372C142.623 79.553 142.583 79.5612 142.542 79.5612C142.502 79.5613 142.461 79.5532 142.424 79.5376C142.386 79.5219 142.352 79.4989 142.324 79.4699C142.296 79.441 142.273 79.4066 142.258 79.3689C142.232 79.3073 142.194 79.2515 142.147 79.2046C142.099 79.1576 142.043 79.1205 141.981 79.0953C141.92 79.0701 141.853 79.0573 141.787 79.0577C141.72 79.0581 141.654 79.0716 141.592 79.0975C141.531 79.1233 141.475 79.1611 141.428 79.2086C141.381 79.256 141.344 79.3123 141.319 79.3741C141.294 79.4359 141.281 79.5021 141.281 79.5688C141.282 79.6356 141.295 79.7016 141.321 79.7631C141.336 79.8003 141.344 79.8401 141.344 79.8803C141.344 79.9206 141.336 79.9604 141.321 79.9975C141.305 80.0347 141.283 80.0684 141.254 80.0968C141.226 80.1253 141.192 80.1478 141.155 80.1632C141.118 80.1782 141.079 80.1861 141.04 80.1864Z" fill="#0E0E0E"/>
<path d="M148.119 77.2077C148.059 77.2077 148 77.19 147.95 77.1568C147.9 77.1236 147.861 77.0763 147.838 77.021C147.773 76.8845 147.737 76.7363 147.731 76.5854C147.725 76.4344 147.75 76.2838 147.804 76.1427C147.857 76.0016 147.939 75.8728 148.044 75.7642C148.149 75.6556 148.275 75.5693 148.414 75.5107C148.554 75.452 148.703 75.4221 148.854 75.4229C149.005 75.4236 149.155 75.4549 149.293 75.5149C149.432 75.5749 149.557 75.6624 149.661 75.772C149.765 75.8816 149.845 76.0112 149.898 76.1528C149.926 76.2267 149.924 76.3086 149.893 76.3811C149.861 76.4537 149.803 76.5113 149.73 76.5419C149.658 76.5725 149.576 76.5737 149.502 76.5453C149.428 76.5168 149.369 76.461 149.335 76.3894C149.309 76.3278 149.272 76.272 149.224 76.2251C149.177 76.1781 149.12 76.141 149.059 76.1158C148.997 76.0906 148.931 76.0778 148.864 76.0782C148.797 76.0785 148.731 76.0921 148.669 76.1179C148.608 76.1438 148.552 76.1816 148.505 76.229C148.458 76.2765 148.421 76.3328 148.396 76.3946C148.371 76.4564 148.358 76.5225 148.358 76.5893C148.359 76.656 148.372 76.7221 148.398 76.7836C148.413 76.8208 148.421 76.8606 148.421 76.9008C148.421 76.941 148.413 76.9809 148.398 77.018C148.383 77.0552 148.36 77.0889 148.332 77.1173C148.303 77.1458 148.269 77.1683 148.232 77.1837C148.196 77.199 148.158 77.2072 148.119 77.2077Z" fill="#0E0E0E"/>
<path d="M126.369 106.626L123.399 114.584L121.89 109.78L103.584 119.141C103.584 119.141 115.278 138.476 121.383 139.389C128.371 140.433 128.577 135.874 136.249 121.062L133.306 100.96L130.625 102.132C129.651 102.557 128.772 103.174 128.041 103.946C127.31 104.718 126.741 105.629 126.369 106.626Z" fill="#F1B950"/>
<path d="M167.006 98.639L172.196 105.362L172.092 98.2755L192.349 101.81C192.349 101.81 187.015 125.787 181.452 128.463C175.084 131.525 173.541 127.231 161.834 115.349L158.707 95.2759C162.373 95.1123 165.694 96.9383 167.006 98.639Z" fill="#F1B950"/>
<path d="M127.136 125.978C127.093 125.978 127.052 125.965 127.017 125.94C126.982 125.915 126.956 125.88 126.943 125.839L123.208 114.648C123.194 114.598 123.2 114.545 123.225 114.499C123.25 114.453 123.291 114.418 123.34 114.402C123.39 114.386 123.444 114.389 123.491 114.411C123.538 114.432 123.575 114.471 123.594 114.52L127.329 125.711C127.338 125.736 127.341 125.763 127.339 125.789C127.337 125.816 127.33 125.842 127.318 125.866C127.306 125.89 127.29 125.911 127.27 125.929C127.249 125.946 127.226 125.96 127.201 125.968C127.18 125.975 127.158 125.978 127.136 125.978Z" fill="#0E0E0E"/>
<path d="M125.961 139.054C125.916 139.054 125.872 139.039 125.837 139.011C125.801 138.984 125.776 138.946 125.764 138.902C125.753 138.859 125.756 138.813 125.773 138.772C125.791 138.73 125.821 138.696 125.86 138.674C128.006 137.454 129.455 134.45 132.085 128.994C133.195 126.692 134.453 124.082 136.069 120.968C136.094 120.92 136.137 120.884 136.188 120.868C136.24 120.852 136.296 120.856 136.343 120.881C136.391 120.906 136.427 120.949 136.444 121.001C136.46 121.052 136.455 121.108 136.43 121.156C134.82 124.264 133.563 126.871 132.455 129.171C129.789 134.7 128.319 137.746 126.064 139.027C126.032 139.045 125.997 139.054 125.961 139.054Z" fill="#0E0E0E"/>
<path d="M163.537 244.767L161.902 255.132H171.139L171.477 253.18L174.697 255.132H188.517C186.514 248.054 173.72 250.372 172.646 244.767H163.537Z" fill="#F16A4B"/>
<path d="M176.711 129.631C176.673 129.631 176.635 129.621 176.602 129.601C176.569 129.581 176.543 129.552 176.525 129.518L165.112 107.875C165.086 107.825 165.08 107.767 165.097 107.714C165.113 107.661 165.151 107.616 165.2 107.59C165.25 107.564 165.308 107.558 165.361 107.575C165.414 107.591 165.459 107.629 165.485 107.678L176.898 129.321C176.915 129.353 176.923 129.389 176.922 129.426C176.921 129.462 176.91 129.497 176.891 129.529C176.873 129.56 176.846 129.585 176.815 129.603C176.783 129.621 176.747 129.631 176.711 129.631Z" fill="#0E0E0E"/>
<path d="M172.174 110.611C172.147 110.611 172.119 110.605 172.094 110.594C172.068 110.584 172.045 110.568 172.026 110.548C172.006 110.529 171.991 110.505 171.98 110.48C171.97 110.454 171.964 110.427 171.964 110.399L171.986 105.363C171.986 105.308 172.008 105.255 172.048 105.216C172.087 105.176 172.14 105.154 172.196 105.154C172.224 105.154 172.251 105.16 172.277 105.171C172.302 105.181 172.325 105.197 172.345 105.217C172.364 105.236 172.38 105.26 172.39 105.285C172.401 105.311 172.406 105.338 172.406 105.366L172.384 110.401C172.384 110.456 172.362 110.509 172.322 110.549C172.283 110.588 172.23 110.61 172.174 110.611Z" fill="#0E0E0E"/>
<path d="M178.3 85.9258L175.702 86.7848C174.835 87.0796 173.917 87.1997 173.003 87.1381C172.089 87.0766 171.196 86.8346 170.376 86.4263C169.556 86.0179 168.824 85.4512 168.224 84.7588C167.624 84.0664 167.167 83.2621 166.88 82.3922C166.592 81.5223 166.48 80.604 166.549 79.6904C166.618 78.7768 166.867 77.8859 167.282 77.0691C167.697 76.2523 168.27 75.5257 168.967 74.9314C169.664 74.337 170.472 73.8866 171.345 73.6061L173.942 72.7471L178.3 85.9258Z" fill="#467ABE"/>
<path d="M182.983 80.482C183.597 76.6988 181.027 73.1346 177.244 72.5213C173.46 71.908 169.896 74.4778 169.283 78.2611C168.67 82.0444 171.239 85.6085 175.023 86.2218C178.806 86.8351 182.37 84.2653 182.983 80.482Z" fill="#0E0E0E"/>
<path d="M185.511 80.518L178.041 82.9864C177.52 83.1586 176.97 83.2265 176.423 83.1863C175.876 83.146 175.342 82.9983 174.852 82.7517C174.362 82.5051 173.925 82.1643 173.566 81.7488C173.208 81.3334 172.935 80.8514 172.763 80.3304C172.591 79.8094 172.523 79.2597 172.563 78.7124C172.603 78.1652 172.751 77.6313 172.998 77.1412C173.244 76.6511 173.585 76.2143 174 75.8559C174.416 75.4975 174.898 75.2245 175.419 75.0524L182.889 72.584L185.511 80.518Z" fill="#467ABE"/>
<path d="M180.629 82.1326L185.511 80.5182L182.888 72.5859L177.991 74.2036C177.944 75.6594 178.133 77.1132 178.55 78.5088C179.015 79.8337 179.72 81.062 180.629 82.1326Z" fill="#0E0E0E"/>
<path d="M217.975 80.2404L196.266 87.0779C194.625 87.6 192.862 87.5974 191.223 87.0704C188.928 86.3984 186.823 85.198 185.076 83.5655C183.329 81.933 181.988 79.9138 181.162 77.6699C180.351 75.3948 180.099 72.9579 180.427 70.565C180.756 68.172 181.655 65.8932 183.05 63.9209C184.064 62.4185 185.54 61.2874 187.255 60.6989L209.035 53.2031L217.975 80.2404Z" fill="#467ABE"/>
<path d="M201.773 55.7023C201.044 60.5141 201.534 65.4319 203.197 70.0056C204.696 74.7199 207.307 79.0042 210.811 82.4963L217.972 80.2404L209.034 53.2031L201.773 55.7023Z" fill="#0E0E0E"/>
<path d="M248.687 78.4899L227.547 85.4802C226.04 85.9821 224.421 86.0397 222.882 85.6462C218.604 84.5431 210.378 80.8978 206.318 68.9441C202.162 56.7074 207.085 49.1851 209.976 46.0643C210.928 45.0418 212.124 44.2771 213.452 43.8416L234.89 36.7559L248.687 78.4899Z" fill="#467ABE"/>
<path d="M227.268 39.2757C226.141 45.8402 226.728 53.062 229.021 60.7653C231.859 70.2928 236.649 76.654 241.471 80.877L248.692 78.4899L234.89 36.7559L227.268 39.2757Z" fill="#0E0E0E"/>
<path d="M275.947 11.7373L239.351 24.8712C237.799 25.4281 236.446 26.432 235.464 27.7563C232.349 31.9561 226.976 42.356 232.178 59.825C237.475 77.6152 249.916 83.3912 255.442 85.1201C257.04 85.618 258.751 85.6223 260.352 85.1326L296.568 74.0994L275.947 11.7373Z" fill="#467ABE"/>
<path d="M309.48 66.1404C322.306 53.315 322.306 32.521 309.48 19.6956C296.655 6.87019 275.861 6.87019 263.035 19.6956C250.21 32.5209 250.21 53.315 263.035 66.1404C275.861 78.9658 296.655 78.9658 309.48 66.1404Z" fill="#0E0E0E"/>
<path d="M314.8 51.2514C319.403 35.4877 310.355 18.9771 294.591 14.3741C278.828 9.77099 262.317 18.8185 257.714 34.5822C253.111 50.346 262.158 66.8565 277.922 71.4596C293.686 76.0627 310.196 67.0151 314.8 51.2514Z" fill="white"/>
<path d="M280.937 255.689C280.809 255.689 280.685 255.645 280.586 255.565C280.486 255.485 280.417 255.373 280.39 255.248L243.36 83.0172L209.583 255.242C209.551 255.384 209.464 255.507 209.342 255.586C209.22 255.665 209.073 255.694 208.93 255.666C208.787 255.638 208.661 255.555 208.578 255.436C208.496 255.317 208.462 255.17 208.486 255.026L242.786 80.1371C242.811 80.0107 242.879 79.8967 242.978 79.8144C243.077 79.7321 243.201 79.6866 243.33 79.6855C243.458 79.6882 243.581 79.7329 243.681 79.8127C243.781 79.8926 243.851 80.0031 243.882 80.1271L281.481 255.017C281.512 255.162 281.484 255.313 281.404 255.438C281.323 255.562 281.197 255.65 281.052 255.681C281.014 255.688 280.975 255.691 280.937 255.689Z" fill="#0E0E0E"/>
</g>
<defs>
<clipPath id="clip0">
<rect width="415" height="415" fill="white"/>
</clipPath>
</defs>
</svg>
