<svg width="99" height="23" viewBox="0 0 99 23" fill="none" xmlns="http://www.w3.org/2000/svg">
<path d="M14.875 18H11.4414L3.01562 4.34766H2.92188L2.98047 5.10938C3.08984 6.5625 3.14453 7.89062 3.14453 9.09375V18H0.601562V0.867188H4L12.4023 14.4492H12.4727C12.457 14.2695 12.4258 13.6172 12.3789 12.4922C12.332 11.3594 12.3086 10.4766 12.3086 9.84375V0.867188H14.875V18ZM35.6094 9.41016C35.6094 12.1992 34.9102 14.3672 33.5117 15.9141C32.1211 17.4609 30.1484 18.2344 27.5938 18.2344C25.0078 18.2344 23.0195 17.4688 21.6289 15.9375C20.2461 14.3984 19.5547 12.2148 19.5547 9.38672C19.5547 6.55859 20.25 4.38672 21.6406 2.87109C23.0391 1.35547 25.0312 0.597656 27.6172 0.597656C30.1641 0.597656 32.1328 1.36719 33.5234 2.90625C34.9141 4.44531 35.6094 6.61328 35.6094 9.41016ZM22.5312 9.41016C22.5312 11.5195 22.957 13.1211 23.8086 14.2148C24.6602 15.3008 25.9219 15.8438 27.5938 15.8438C29.2578 15.8438 30.5117 15.3047 31.3555 14.2266C32.207 13.1484 32.6328 11.543 32.6328 9.41016C32.6328 7.30859 32.2109 5.71484 31.3672 4.62891C30.5312 3.54297 29.2812 3 27.6172 3C25.9375 3 24.668 3.54297 23.8086 4.62891C22.957 5.71484 22.5312 7.30859 22.5312 9.41016ZM54.2227 9.26953C54.2227 12.0977 53.4375 14.2617 51.8672 15.7617C50.2969 17.2539 48.0352 18 45.082 18H40.2891V0.867188H45.5859C48.3125 0.867188 50.4336 1.60156 51.9492 3.07031C53.4648 4.53906 54.2227 6.60547 54.2227 9.26953ZM51.2695 9.36328C51.2695 5.26172 49.3516 3.21094 45.5156 3.21094H43.0898V15.6445H45.082C49.207 15.6445 51.2695 13.5508 51.2695 9.36328ZM68.6055 18H58.9141V0.867188H68.6055V3.23438H61.7148V7.89844H68.1719V10.2422H61.7148V15.6211H68.6055V18ZM78.3867 22.7812C77.6211 22.7812 76.9805 22.6836 76.4648 22.4883V20.1328C77.1211 20.2969 77.6914 20.3789 78.1758 20.3789C79.707 20.3789 80.4727 19.4102 80.4727 17.4727V0.867188H83.2852V17.3789C83.2852 19.1289 82.8672 20.4648 82.0312 21.3867C81.2031 22.3164 79.9883 22.7812 78.3867 22.7812ZM98.6055 13.3477C98.6055 14.8711 98.0547 16.0664 96.9531 16.9336C95.8516 17.8008 94.332 18.2344 92.3945 18.2344C90.457 18.2344 88.8711 17.9336 87.6367 17.332V14.6836C88.418 15.0508 89.2461 15.3398 90.1211 15.5508C91.0039 15.7617 91.8242 15.8672 92.582 15.8672C93.6914 15.8672 94.5078 15.6562 95.0312 15.2344C95.5625 14.8125 95.8281 14.2461 95.8281 13.5352C95.8281 12.8945 95.5859 12.3516 95.1016 11.9062C94.6172 11.4609 93.6172 10.9336 92.1016 10.3242C90.5391 9.69141 89.4375 8.96875 88.7969 8.15625C88.1562 7.34375 87.8359 6.36719 87.8359 5.22656C87.8359 3.79688 88.3438 2.67188 89.3594 1.85156C90.375 1.03125 91.7383 0.621094 93.4492 0.621094C95.0898 0.621094 96.7227 0.980469 98.3477 1.69922L97.457 3.98438C95.9336 3.34375 94.5742 3.02344 93.3789 3.02344C92.4727 3.02344 91.7852 3.22266 91.3164 3.62109C90.8477 4.01172 90.6133 4.53125 90.6133 5.17969C90.6133 5.625 90.707 6.00781 90.8945 6.32812C91.082 6.64062 91.3906 6.9375 91.8203 7.21875C92.25 7.5 93.0234 7.87109 94.1406 8.33203C95.3984 8.85547 96.3203 9.34375 96.9062 9.79688C97.4922 10.25 97.9219 10.7617 98.1953 11.332C98.4688 11.9023 98.6055 12.5742 98.6055 13.3477Z" fill="#539E43"/>
</svg>
