<svg width="40" height="40" viewBox="0 0 79 88" fill="#fff" xmlns="http://www.w3.org/2000/svg">
<path d="M39.5 87.8367C38.2733 87.8367 37.1284 87.5139 36.0652 86.9491L25.1884 80.5741C23.5528 79.6865 24.3706 79.3637 24.8613 79.2023C27.0694 78.4761 27.4783 78.3147 29.7681 77.0236C30.0135 76.8622 30.3406 76.9429 30.5859 77.1043L38.9275 82.0267C39.2547 82.188 39.6636 82.188 39.9089 82.0267L72.5393 63.3861C72.8665 63.2247 73.03 62.9019 73.03 62.4984V25.2979C73.03 24.8945 72.8665 24.5717 72.5393 24.4103L39.9089 5.8504C39.5818 5.68901 39.1729 5.68901 38.9275 5.8504L6.2971 24.4103C5.96998 24.5717 5.80642 24.9752 5.80642 25.2979V62.4984C5.80642 62.8212 5.96998 63.2247 6.2971 63.3861L15.2112 68.4699C20.0362 70.8907 23.0621 68.0664 23.0621 65.2421V28.5257C23.0621 28.0416 23.471 27.5574 24.0435 27.5574H28.2143C28.705 27.5574 29.1957 27.9609 29.1957 28.5257V65.2421C29.1957 71.617 25.6791 75.329 19.5455 75.329C17.6646 75.329 16.1925 75.329 12.0217 73.3116L3.43478 68.4699C1.30849 67.2594 0 65 0 62.5791V25.3786C0 22.9578 1.30849 20.6983 3.43478 19.4879L36.0652 0.847299C38.1097 -0.282433 40.8903 -0.282433 42.9348 0.847299L75.5652 19.4879C77.6915 20.6983 79 22.9578 79 25.3786V62.5791C79 65 77.6915 67.2594 75.5652 68.4699L42.9348 87.1105C41.8716 87.5946 40.6449 87.8367 39.5 87.8367ZM49.559 62.2563C35.2474 62.2563 32.3033 55.8007 32.3033 50.3134C32.3033 49.8293 32.7122 49.3451 33.2847 49.3451H37.5373C38.028 49.3451 38.4369 49.6679 38.4369 50.1521C39.0911 54.4289 40.972 56.527 49.6408 56.527C56.5104 56.527 59.4544 54.9938 59.4544 51.3625C59.4544 49.2644 58.6366 47.7312 47.9234 46.6822C39.0093 45.7945 33.4482 43.8578 33.4482 36.8374C33.4482 30.301 39.0093 26.4277 48.3323 26.4277C58.8002 26.4277 63.9524 29.9783 64.6066 37.725C64.6066 37.9671 64.5248 38.2092 64.3613 38.4513C64.1977 38.6126 63.9524 38.774 63.707 38.774H59.4544C59.0455 38.774 58.6366 38.4513 58.5549 38.0478C57.5735 33.6095 55.0383 32.157 48.3323 32.157C40.8085 32.157 39.9089 34.7393 39.9089 36.676C39.9089 39.0161 40.972 39.7424 51.1128 41.0335C61.1718 42.3246 65.9151 44.1806 65.9151 51.1204C65.8333 58.2216 59.9451 62.2563 49.559 62.2563Z" fill="#539E43"/>
</svg>
