<svg width="67" height="19" viewBox="0 0 67 19" fill="none" xmlns="http://www.w3.org/2000/svg">
<path d="M3.34766 8.83594H5.29297C6.59766 8.83594 7.54297 8.59375 8.12891 8.10938C8.71484 7.625 9.00781 6.90625 9.00781 5.95312C9.00781 4.98438 8.69141 4.28906 8.05859 3.86719C7.42578 3.44531 6.47266 3.23438 5.19922 3.23438H3.34766V8.83594ZM3.34766 11.1562V18H0.546875V0.867188H5.38672C7.59766 0.867188 9.23438 1.28125 10.2969 2.10938C11.3594 2.9375 11.8906 4.1875 11.8906 5.85938C11.8906 7.99219 10.7812 9.51172 8.5625 10.418L13.4023 18H10.2148L6.11328 11.1562H3.34766ZM22.2656 18.2344C20.25 18.2344 18.6719 17.6484 17.5312 16.4766C16.3984 15.2969 15.832 13.6758 15.832 11.6133C15.832 9.49609 16.3594 7.83203 17.4141 6.62109C18.4688 5.41016 19.918 4.80469 21.7617 4.80469C23.4727 4.80469 24.8242 5.32422 25.8164 6.36328C26.8086 7.40234 27.3047 8.83203 27.3047 10.6523V12.1406H18.668C18.707 13.3984 19.0469 14.3672 19.6875 15.0469C20.3281 15.7188 21.2305 16.0547 22.3945 16.0547C23.1602 16.0547 23.8711 15.9844 24.5273 15.8438C25.1914 15.6953 25.9023 15.4531 26.6602 15.1172V17.3555C25.9883 17.6758 25.3086 17.9023 24.6211 18.0352C23.9336 18.168 23.1484 18.2344 22.2656 18.2344ZM21.7617 6.89062C20.8867 6.89062 20.1836 7.16797 19.6523 7.72266C19.1289 8.27734 18.8164 9.08594 18.7148 10.1484H24.5977C24.582 9.07812 24.3242 8.26953 23.8242 7.72266C23.3242 7.16797 22.6367 6.89062 21.7617 6.89062ZM39.543 18L38.9922 16.1953H38.8984C38.2734 16.9844 37.6445 17.5234 37.0117 17.8125C36.3789 18.0938 35.5664 18.2344 34.5742 18.2344C33.3008 18.2344 32.3047 17.8906 31.5859 17.2031C30.875 16.5156 30.5195 15.543 30.5195 14.2852C30.5195 12.9492 31.0156 11.9414 32.0078 11.2617C33 10.582 34.5117 10.2109 36.543 10.1484L38.7812 10.0781V9.38672C38.7812 8.55859 38.5859 7.94141 38.1953 7.53516C37.8125 7.12109 37.2148 6.91406 36.4023 6.91406C35.7383 6.91406 35.1016 7.01172 34.4922 7.20703C33.8828 7.40234 33.2969 7.63281 32.7344 7.89844L31.8438 5.92969C32.5469 5.5625 33.3164 5.28516 34.1523 5.09766C34.9883 4.90234 35.7773 4.80469 36.5195 4.80469C38.168 4.80469 39.4102 5.16406 40.2461 5.88281C41.0898 6.60156 41.5117 7.73047 41.5117 9.26953V18H39.543ZM35.4414 16.125C36.4414 16.125 37.2422 15.8477 37.8438 15.293C38.4531 14.7305 38.7578 13.9453 38.7578 12.9375V11.8125L37.0938 11.8828C35.7969 11.9297 34.8516 12.1484 34.2578 12.5391C33.6719 12.9219 33.3789 13.5117 33.3789 14.3086C33.3789 14.8867 33.5508 15.3359 33.8945 15.6562C34.2383 15.9688 34.7539 16.125 35.4414 16.125ZM51.582 18.2344C49.6211 18.2344 48.1289 17.6641 47.1055 16.5234C46.0898 15.375 45.582 13.7305 45.582 11.5898C45.582 9.41016 46.1133 7.73438 47.1758 6.5625C48.2461 5.39062 49.7891 4.80469 51.8047 4.80469C53.1719 4.80469 54.4023 5.05859 55.4961 5.56641L54.6641 7.78125C53.5 7.32812 52.5391 7.10156 51.7812 7.10156C49.5391 7.10156 48.418 8.58984 48.418 11.5664C48.418 13.0195 48.6953 14.1133 49.25 14.8477C49.8125 15.5742 50.6328 15.9375 51.7109 15.9375C52.9375 15.9375 54.0977 15.6328 55.1914 15.0234V17.4258C54.6992 17.7148 54.1719 17.9219 53.6094 18.0469C53.0547 18.1719 52.3789 18.2344 51.582 18.2344ZM64.0664 16.0078C64.7383 16.0078 65.4102 15.9023 66.082 15.6914V17.7656C65.7773 17.8984 65.3828 18.0078 64.8984 18.0938C64.4219 18.1875 63.9258 18.2344 63.4102 18.2344C60.8008 18.2344 59.4961 16.8594 59.4961 14.1094V7.125H57.7266V5.90625L59.625 4.89844L60.5625 2.15625H62.2617V5.03906H65.9531V7.125H62.2617V14.0625C62.2617 14.7266 62.4258 15.2188 62.7539 15.5391C63.0898 15.8516 63.5273 16.0078 64.0664 16.0078Z" fill="#5BCCEB"/>
</svg>
