<svg width="40" height="40" viewBox="0 0 88 88" fill="#fff" xmlns="http://www.w3.org/2000/svg">
<path d="M6.59245 0C6.00536 0 5.54457 0.503388 5.59635 1.0882L12.4515 78.5112C12.4882 78.9257 12.7777 79.2741 13.1785 79.3861L43.7309 87.9248C43.9069 87.974 44.0931 87.974 44.2691 87.9248L74.8106 79.3916C75.2113 79.2796 75.5008 78.9312 75.5376 78.5168L82.4035 1.08833C82.4554 0.503472 81.9946 0 81.4074 0H6.59245Z" fill="#2196F3"/>
<path d="M67.507 25.8994L66.6215 35.8489L63.9485 65.6754L44 71.1919L43.9835 71.1974L24.046 65.6754L22.6545 50.0774H32.4225L33.1485 58.1679L43.989 61.0939L43.9945 61.0884L54.8515 58.1624L56.331 44.6819L22.187 44.7754L21.219 35.5574L57.1505 35.1339L57.8765 25.2669L20.2565 25.3714L19.624 16.1919H44H68.376L67.507 25.8994Z" fill="#FAFAFA"/>
</svg>
