<svg width="24" height="24" viewBox="0 0 24 24" fill="none" xmlns="http://www.w3.org/2000/svg">
<path d="M7 4H5C4.46957 4 3.96086 4.21071 3.58579 4.58579C3.21071 4.96086 3 5.46957 3 6V18C3 18.5304 3.21071 19.0391 3.58579 19.4142C3.96086 19.7893 4.46957 20 5 20H10.697" stroke="#1E90FF" stroke-width="1.5" stroke-linecap="round" stroke-linejoin="round"/>
<path d="M17 13V17H21" stroke="#1E90FF" stroke-width="1.5" stroke-linecap="round" stroke-linejoin="round"/>
<path d="M17 10V6C17 5.46957 16.7893 4.96086 16.4142 4.58579C16.0391 4.21071 15.5304 4 15 4H13" stroke="#1E90FF" stroke-width="1.5" stroke-linecap="round" stroke-linejoin="round"/>
<path d="M11 2H9C7.89543 2 7 2.89543 7 4C7 5.10457 7.89543 6 9 6H11C12.1046 6 13 5.10457 13 4C13 2.89543 12.1046 2 11 2Z" stroke="#1E90FF" stroke-width="1.5" stroke-linecap="round" stroke-linejoin="round"/>
<path d="M17 21C19.2091 21 21 19.2091 21 17C21 14.7909 19.2091 13 17 13C14.7909 13 13 14.7909 13 17C13 19.2091 14.7909 21 17 21Z" stroke="#1E90FF" stroke-width="1.5" stroke-linecap="round" stroke-linejoin="round"/>
<path d="M7 10H11" stroke="#1E90FF" stroke-width="1.5" stroke-linecap="round" stroke-linejoin="round"/>
<path d="M7 14H10" stroke="#1E90FF" stroke-width="1.5" stroke-linecap="round" stroke-linejoin="round"/>
</svg>
