<svg width="42" height="19" viewBox="0 0 42 19" fill="none" xmlns="http://www.w3.org/2000/svg">
<path d="M8.75 3.02344C7.14062 3.02344 5.875 3.59375 4.95312 4.73438C4.03125 5.875 3.57031 7.44922 3.57031 9.45703C3.57031 11.5586 4.01172 13.1484 4.89453 14.2266C5.78516 15.3047 7.07031 15.8438 8.75 15.8438C9.47656 15.8438 10.1797 15.7734 10.8594 15.6328C11.5391 15.4844 12.2461 15.2969 12.9805 15.0703V17.4727C11.6367 17.9805 10.1133 18.2344 8.41016 18.2344C5.90234 18.2344 3.97656 17.4766 2.63281 15.9609C1.28906 14.4375 0.617188 12.2617 0.617188 9.43359C0.617188 7.65234 0.941406 6.09375 1.58984 4.75781C2.24609 3.42188 3.19141 2.39844 4.42578 1.6875C5.66016 0.976562 7.10938 0.621094 8.77344 0.621094C10.5234 0.621094 12.1406 0.988281 13.625 1.72266L12.6172 4.05469C12.0391 3.78125 11.4258 3.54297 10.7773 3.33984C10.1367 3.12891 9.46094 3.02344 8.75 3.02344ZM27.5508 13.3477C27.5508 14.8711 27 16.0664 25.8984 16.9336C24.7969 17.8008 23.2773 18.2344 21.3398 18.2344C19.4023 18.2344 17.8164 17.9336 16.582 17.332V14.6836C17.3633 15.0508 18.1914 15.3398 19.0664 15.5508C19.9492 15.7617 20.7695 15.8672 21.5273 15.8672C22.6367 15.8672 23.4531 15.6562 23.9766 15.2344C24.5078 14.8125 24.7734 14.2461 24.7734 13.5352C24.7734 12.8945 24.5312 12.3516 24.0469 11.9062C23.5625 11.4609 22.5625 10.9336 21.0469 10.3242C19.4844 9.69141 18.3828 8.96875 17.7422 8.15625C17.1016 7.34375 16.7812 6.36719 16.7812 5.22656C16.7812 3.79688 17.2891 2.67188 18.3047 1.85156C19.3203 1.03125 20.6836 0.621094 22.3945 0.621094C24.0352 0.621094 25.668 0.980469 27.293 1.69922L26.4023 3.98438C24.8789 3.34375 23.5195 3.02344 22.3242 3.02344C21.418 3.02344 20.7305 3.22266 20.2617 3.62109C19.793 4.01172 19.5586 4.53125 19.5586 5.17969C19.5586 5.625 19.6523 6.00781 19.8398 6.32812C20.0273 6.64062 20.3359 6.9375 20.7656 7.21875C21.1953 7.5 21.9688 7.87109 23.0859 8.33203C24.3438 8.85547 25.2656 9.34375 25.8516 9.79688C26.4375 10.25 26.8672 10.7617 27.1406 11.332C27.4141 11.9023 27.5508 12.5742 27.5508 13.3477ZM41.7461 13.3477C41.7461 14.8711 41.1953 16.0664 40.0938 16.9336C38.9922 17.8008 37.4727 18.2344 35.5352 18.2344C33.5977 18.2344 32.0117 17.9336 30.7773 17.332V14.6836C31.5586 15.0508 32.3867 15.3398 33.2617 15.5508C34.1445 15.7617 34.9648 15.8672 35.7227 15.8672C36.832 15.8672 37.6484 15.6562 38.1719 15.2344C38.7031 14.8125 38.9688 14.2461 38.9688 13.5352C38.9688 12.8945 38.7266 12.3516 38.2422 11.9062C37.7578 11.4609 36.7578 10.9336 35.2422 10.3242C33.6797 9.69141 32.5781 8.96875 31.9375 8.15625C31.2969 7.34375 30.9766 6.36719 30.9766 5.22656C30.9766 3.79688 31.4844 2.67188 32.5 1.85156C33.5156 1.03125 34.8789 0.621094 36.5898 0.621094C38.2305 0.621094 39.8633 0.980469 41.4883 1.69922L40.5977 3.98438C39.0742 3.34375 37.7148 3.02344 36.5195 3.02344C35.6133 3.02344 34.9258 3.22266 34.457 3.62109C33.9883 4.01172 33.7539 4.53125 33.7539 5.17969C33.7539 5.625 33.8477 6.00781 34.0352 6.32812C34.2227 6.64062 34.5312 6.9375 34.9609 7.21875C35.3906 7.5 36.1641 7.87109 37.2812 8.33203C38.5391 8.85547 39.4609 9.34375 40.0469 9.79688C40.6328 10.25 41.0625 10.7617 41.3359 11.332C41.6094 11.9023 41.7461 12.5742 41.7461 13.3477Z" fill="#2196F3"/>
</svg>
