<svg width="84" height="25" viewBox="0 0 84 25" fill="none" xmlns="http://www.w3.org/2000/svg">
<path d="M11.9961 7.04688C11.9961 8.83594 11.4102 10.207 10.2383 11.1602C9.06641 12.1133 7.39844 12.5898 5.23438 12.5898H3.45312V19H0.652344V1.86719H5.58594C7.72656 1.86719 9.32812 2.30469 10.3906 3.17969C11.4609 4.05469 11.9961 5.34375 11.9961 7.04688ZM3.45312 10.2344H4.94141C6.37891 10.2344 7.43359 9.98438 8.10547 9.48438C8.77734 8.98438 9.11328 8.20312 9.11328 7.14062C9.11328 6.15625 8.8125 5.42188 8.21094 4.9375C7.60938 4.45312 6.67188 4.21094 5.39844 4.21094H3.45312V10.2344ZM14.1562 6.03906H17.1562L19.793 13.3867C20.1914 14.4336 20.457 15.418 20.5898 16.3398H20.6836C20.7539 15.9102 20.8828 15.3906 21.0703 14.7812C21.2578 14.1641 22.25 11.25 24.0469 6.03906H27.0234L21.4805 20.7227C20.4727 23.418 18.793 24.7656 16.4414 24.7656C15.832 24.7656 15.2383 24.6992 14.6602 24.5664V22.3867C15.0742 22.4805 15.5469 22.5273 16.0781 22.5273C17.4062 22.5273 18.3398 21.7578 18.8789 20.2188L19.3594 19L14.1562 6.03906ZM34.8203 17.0078C35.4922 17.0078 36.1641 16.9023 36.8359 16.6914V18.7656C36.5312 18.8984 36.1367 19.0078 35.6523 19.0938C35.1758 19.1875 34.6797 19.2344 34.1641 19.2344C31.5547 19.2344 30.25 17.8594 30.25 15.1094V8.125H28.4805V6.90625L30.3789 5.89844L31.3164 3.15625H33.0156V6.03906H36.707V8.125H33.0156V15.0625C33.0156 15.7266 33.1797 16.2188 33.5078 16.5391C33.8438 16.8516 34.2812 17.0078 34.8203 17.0078ZM51.8398 19H49.0742V11.0312C49.0742 10.0312 48.8711 9.28516 48.4648 8.79297C48.0664 8.30078 47.4297 8.05469 46.5547 8.05469C45.3984 8.05469 44.5469 8.40234 44 9.09766C43.4609 9.78516 43.1914 10.9414 43.1914 12.5664V19H40.4375V0.765625H43.1914V5.39453C43.1914 6.13672 43.1445 6.92969 43.0508 7.77344H43.2266C43.6016 7.14844 44.1211 6.66406 44.7852 6.32031C45.457 5.97656 46.2383 5.80469 47.1289 5.80469C50.2695 5.80469 51.8398 7.38672 51.8398 10.5508V19ZM68.168 12.4961C68.168 14.6133 67.625 16.2656 66.5391 17.4531C65.4531 18.6406 63.9414 19.2344 62.0039 19.2344C60.793 19.2344 59.7227 18.9609 58.793 18.4141C57.8633 17.8672 57.1484 17.082 56.6484 16.0586C56.1484 15.0352 55.8984 13.8477 55.8984 12.4961C55.8984 10.3945 56.4375 8.75391 57.5156 7.57422C58.5938 6.39453 60.1133 5.80469 62.0742 5.80469C63.9492 5.80469 65.4336 6.41016 66.5273 7.62109C67.6211 8.82422 68.168 10.4492 68.168 12.4961ZM58.7344 12.4961C58.7344 15.4883 59.8398 16.9844 62.0508 16.9844C64.2383 16.9844 65.332 15.4883 65.332 12.4961C65.332 9.53516 64.2305 8.05469 62.0273 8.05469C60.8711 8.05469 60.0312 8.4375 59.5078 9.20312C58.9922 9.96875 58.7344 11.0664 58.7344 12.4961ZM83.7461 19H80.9805V11.0312C80.9805 10.0312 80.7773 9.28516 80.3711 8.79297C79.9727 8.30078 79.3359 8.05469 78.4609 8.05469C77.2969 8.05469 76.4453 8.39844 75.9062 9.08594C75.3672 9.77344 75.0977 10.9258 75.0977 12.543V19H72.3438V6.03906H74.5L74.8867 7.73828H75.0273C75.418 7.12109 75.9727 6.64453 76.6914 6.30859C77.4102 5.97266 78.207 5.80469 79.082 5.80469C82.1914 5.80469 83.7461 7.38672 83.7461 10.5508V19Z" fill="#FFC331"/>
</svg>
