<svg width="88" height="88" viewBox="0 0 88 88" fill="none" xmlns="http://www.w3.org/2000/svg">
<g clip-path="url(#clip0)">
<path d="M43.5646 16.3057C39.4984 19.1656 34.8898 22.407 32.4205 27.7697C28.1315 37.1257 41.1968 47.3312 41.7552 47.761C41.885 47.8609 42.0404 47.9107 42.1952 47.9107C42.3597 47.9107 42.5244 47.8545 42.6581 47.7425C42.9175 47.5256 42.991 47.1571 42.8353 46.857C42.788 46.7659 38.0982 37.6565 38.2725 31.1214C38.3342 28.8453 41.5196 26.2632 44.8918 23.5295C47.9804 21.0256 51.4815 18.1878 53.5299 14.868C58.0269 7.56053 53.0287 0.375094 52.9777 0.30325C52.7792 0.0244678 52.4127 -0.0764232 52.0994 0.0609054C51.7864 0.199093 51.613 0.537517 51.6845 0.872159C51.6946 0.919768 52.6666 5.67144 49.962 10.567C48.8479 12.59 46.3997 14.3118 43.5646 16.3057Z" fill="#DB380E"/>
<path d="M60.6957 19.528C60.9826 19.312 61.0668 18.9178 60.8934 18.6033C60.7196 18.2888 60.3415 18.1501 60.0057 18.2776C59.3149 18.5402 43.0903 24.7943 43.0903 32.3508C43.0903 37.5598 45.3154 40.3116 46.9402 42.3211C47.5775 43.1093 48.1277 43.79 48.309 44.3711C48.8195 46.0457 47.6102 49.0724 47.1016 50.0975C46.955 50.3921 47.0268 50.7492 47.2762 50.9644C47.4109 51.0808 47.5792 51.1399 47.7477 51.1399C47.891 51.1399 48.035 51.0973 48.1595 51.0106C48.4384 50.8168 54.9773 46.1937 53.8046 40.6237C53.3676 38.5065 52.3273 36.9596 51.4093 35.5946C49.9872 33.4797 48.9601 31.952 50.5183 29.1305C52.344 25.8394 60.612 19.5906 60.6957 19.528Z" fill="#DB380E"/>
<path d="M18.4626 51.2595C18.1845 52.0923 18.3158 52.9183 18.8419 53.6491C20.6007 56.091 26.8307 57.4354 36.3849 57.4354C36.3854 57.4354 36.3858 57.4354 36.3861 57.4354C37.6807 57.4354 39.0474 57.4099 40.4473 57.3598C55.7228 56.813 61.3885 52.0541 61.6223 51.8518C61.877 51.6313 61.945 51.2642 61.7867 50.9672C61.6283 50.6703 61.2868 50.5212 60.9604 50.6111C55.5805 52.0799 45.5349 52.6014 38.567 52.6014C30.7702 52.6014 26.7996 52.0397 25.8274 51.6249C26.3262 50.94 29.4028 49.717 33.2152 48.9671C33.5795 48.8956 33.83 48.559 33.7939 48.1895C33.7578 47.82 33.4474 47.5381 33.0759 47.5381C30.8412 47.5381 19.6341 47.7175 18.4626 51.2595Z" fill="#73A1FB"/>
<path d="M69.5774 46.3579C66.4268 46.3579 63.4391 47.9371 63.3133 48.004C63.0219 48.16 62.8741 48.4942 62.954 48.8152C63.0343 49.1358 63.3225 49.3611 63.6531 49.3614C63.7199 49.3614 70.3737 49.4159 70.9763 53.2176C71.5102 56.4974 64.6807 61.8114 62.0041 63.5824C61.715 63.7737 61.6028 64.1433 61.737 64.463C61.8513 64.735 62.1161 64.9052 62.4018 64.9052C62.4516 64.9052 62.5022 64.9 62.5524 64.8894C63.1876 64.7534 78.091 61.4692 76.5152 52.7921C75.5539 47.4742 72.2116 46.3579 69.5774 46.3579Z" fill="#73A1FB"/>
<path d="M59.3569 62.5205C59.4088 62.2425 59.2931 61.9598 59.0618 61.7974L55.4883 59.2944C55.314 59.1723 55.0939 59.134 54.8893 59.1881C54.852 59.1976 51.1151 60.18 45.6897 60.7825C43.5364 61.0239 41.1247 61.1515 38.7146 61.1515C33.2906 61.1515 29.7441 60.5142 29.2276 60.0467C29.1592 59.9153 29.1808 59.8557 29.1931 59.8225C29.2869 59.5616 29.7898 59.2516 30.114 59.1288C30.472 58.9963 30.665 58.6075 30.5536 58.2425C30.4426 57.8769 30.066 57.6619 29.6944 57.7511C26.1098 58.6161 24.357 59.8258 24.4845 61.3464C24.711 64.0424 30.9556 65.4262 36.2348 65.7919C36.994 65.8438 37.815 65.8701 38.6746 65.8701C38.6751 65.8701 38.6754 65.8701 38.676 65.8701C47.4543 65.8701 58.7081 63.1158 58.8205 63.0878C59.0953 63.0208 59.3048 62.7989 59.3569 62.5205Z" fill="#73A1FB"/>
<path d="M32.4163 68.3067C32.687 68.1307 32.807 67.796 32.7109 67.4879C32.6152 67.1797 32.327 66.9772 32.0031 66.9815C31.5227 66.9942 27.3025 67.1847 27.0071 69.8716C26.9177 70.6746 27.1477 71.4083 27.6909 72.052C29.2062 73.8478 33.2965 74.9151 40.1934 75.3149C41.0093 75.3639 41.838 75.3885 42.657 75.3885C51.4253 75.3885 57.3306 72.6431 57.5779 72.5262C57.8177 72.4128 57.9758 72.1772 57.9899 71.9125C58.004 71.6478 57.8718 71.3967 57.6456 71.2583L53.1296 68.5014C52.9728 68.4058 52.7853 68.3742 52.6066 68.4108C52.578 68.4168 49.7106 69.0115 45.3833 69.599C44.5645 69.7104 43.5391 69.7669 42.336 69.7669C38.0133 69.7669 33.2052 69.0607 32.2831 68.5982C32.2697 68.5119 32.2867 68.4022 32.4163 68.3067Z" fill="#73A1FB"/>
<path d="M38.5702 83.6774C58.6546 83.6604 69.4341 80.0886 71.5107 77.841C72.2458 77.0459 72.3252 76.2931 72.2628 75.8014C72.1085 74.5914 71.0062 73.8506 70.8813 73.7701C70.5798 73.5763 70.1752 73.627 69.9401 73.8982C69.7055 74.1694 69.7 74.5658 69.9355 74.8368C70.0621 74.9997 70.1353 75.2725 69.765 75.6432C68.9348 76.4186 60.5619 78.7721 46.6209 79.4792C44.7111 79.5783 42.7081 79.6289 40.6678 79.6292C28.1856 79.6292 19.0506 77.9194 17.8515 76.9232C18.3136 76.2591 21.5449 75.1981 24.9812 74.5979C25.3684 74.5303 25.63 74.1654 25.57 73.777C25.5101 73.3887 25.152 73.1215 24.7607 73.1722C24.6637 73.1854 24.3348 73.205 23.9539 73.2284C18.2841 73.5745 11.732 74.3461 11.3901 77.2675C11.2863 78.1576 11.5508 78.9658 12.1766 79.6691C13.7079 81.3896 18.1091 83.6771 38.5695 83.6771C38.5699 83.6774 38.5699 83.6774 38.5702 83.6774Z" fill="#73A1FB"/>
<path d="M75.4556 78.4745C75.1716 78.3432 74.8361 78.4095 74.6244 78.6381C74.595 78.6699 71.5753 81.8274 62.4961 83.6816C59.0203 84.3781 52.4959 84.7313 43.1041 84.7313C33.6948 84.7313 24.7412 84.3611 24.652 84.3573C24.278 84.3391 23.9582 84.611 23.9073 84.9791C23.8562 85.3469 24.0934 85.6938 24.4545 85.7797C24.5477 85.8017 33.9309 88 46.7604 88C52.9137 88 58.9015 87.5004 64.5578 86.5141C75.1042 84.6653 75.8426 79.4358 75.8689 79.2141C75.9057 78.9042 75.739 78.6058 75.4556 78.4745Z" fill="#73A1FB"/>
</g>
<defs>
<clipPath id="clip0">
<rect width="88" height="88" fill="white"/>
</clipPath>
</defs>
</svg>
