<svg width="59" height="23" viewBox="0 0 59 23" fill="none" xmlns="http://www.w3.org/2000/svg">
<path d="M2.17578 22.7812C1.41016 22.7812 0.769531 22.6836 0.253906 22.4883V20.1328C0.910156 20.2969 1.48047 20.3789 1.96484 20.3789C3.49609 20.3789 4.26172 19.4102 4.26172 17.4727V0.867188H7.07422V17.3789C7.07422 19.1289 6.65625 20.4648 5.82031 21.3867C4.99219 22.3164 3.77734 22.7812 2.17578 22.7812ZM23.1445 18L21.4336 13.2422H14.8828L13.207 18H10.2539L16.6641 0.796875H19.7109L26.1211 18H23.1445ZM20.6953 10.8281L19.0898 6.16406C18.9727 5.85156 18.8086 5.35938 18.5977 4.6875C18.3945 4.01562 18.2539 3.52344 18.1758 3.21094C17.9648 4.17188 17.6562 5.22266 17.25 6.36328L15.7031 10.8281H20.6953ZM39.1445 0.867188H42.0508L36.0508 18H33.0977L27.1211 0.867188H30.0039L33.5781 11.5195C33.7656 12.0273 33.9648 12.6836 34.1758 13.4883C34.3867 14.2852 34.5234 14.8789 34.5859 15.2695C34.6875 14.6758 34.8438 13.9883 35.0547 13.207C35.2656 12.4258 35.4375 11.8477 35.5703 11.4727L39.1445 0.867188ZM55.9414 18L54.2305 13.2422H47.6797L46.0039 18H43.0508L49.4609 0.796875H52.5078L58.918 18H55.9414ZM53.4922 10.8281L51.8867 6.16406C51.7695 5.85156 51.6055 5.35938 51.3945 4.6875C51.1914 4.01562 51.0508 3.52344 50.9727 3.21094C50.7617 4.17188 50.4531 5.22266 50.0469 6.36328L48.5 10.8281H53.4922Z" fill="#DB380E"/>
</svg>
