<svg width="68" height="18" viewBox="0 0 68 18" fill="none" xmlns="http://www.w3.org/2000/svg">
<path d="M13.8867 18H11.0742V10.2773H3.17578V18H0.375V0.867188H3.17578V7.875H11.0742V0.867188H13.8867V18ZM25.3164 18H22.5156V3.26953H17.4766V0.867188H30.3555V3.26953H25.3164V18ZM41.3984 18L36.4297 3.69141H36.3359C36.4688 5.81641 36.5352 7.80859 36.5352 9.66797V18H33.9922V0.867188H37.9414L42.6992 14.4961H42.7695L47.668 0.867188H51.6289V18H48.9336V9.52734C48.9336 8.67578 48.9531 7.56641 48.9922 6.19922C49.0391 4.83203 49.0781 4.00391 49.1094 3.71484H49.0156L43.8711 18H41.3984ZM57.1406 18V0.867188H59.9414V15.5977H67.1953V18H57.1406Z" fill="#FC490B"/>
</svg>
