<svg width="88" height="88" viewBox="0 0 88 88" fill="none" xmlns="http://www.w3.org/2000/svg">
<g clip-path="url(#clip0)">
<path d="M5.54108 2.91315L11.2525 75.9799C11.3382 77.0771 12.0809 78.0127 13.13 78.3454L43.1834 87.8737C43.7149 88.0422 44.2855 88.0422 44.8169 87.8737L74.8703 78.3454C75.9195 78.0127 76.6622 77.0771 76.7479 75.9799L82.4593 2.91315C82.5821 1.34225 81.3406 0 79.765 0H8.23552C6.65996 0 5.41845 1.34225 5.54108 2.91315ZM67.8128 25.5833H30.5907L31.714 35.9421H67.0033L64.6948 65.4735L44.0003 72.0346L23.3058 65.4735L22.0997 50.0451H32.9618V57.613L44.2905 60.6534L55.5515 57.613L56.4252 45.5519H21.7485L19.4462 16.0979H68.5541L67.8128 25.5833Z" fill="#FC490B"/>
</g>
<defs>
<clipPath id="clip0">
<rect width="88" height="88" fill="white"/>
</clipPath>
</defs>
</svg>
