<svg width="100" height="88" viewBox="0 0 100 88" fill="none" xmlns="http://www.w3.org/2000/svg">
<path d="M99.4056 44.0101C99.4056 37.4639 91.1589 31.2602 78.5154 27.4131C81.4332 14.6029 80.1364 4.41108 74.4225 1.14809C73.1055 0.382696 71.5655 0.0201416 69.8838 0.0201416V4.51179C70.8158 4.51179 71.5655 4.69306 72.1937 5.03548C74.9493 6.60655 76.1448 12.5887 75.2127 20.2829C74.9898 22.1762 74.6251 24.1703 74.1793 26.2046C70.208 25.2378 65.8719 24.4926 61.3129 24.0092C58.5776 20.2829 55.7409 16.8991 52.8839 13.9382C59.4894 7.8352 65.6896 4.49165 69.9041 4.49165V0C64.332 0 57.0377 3.94781 49.6623 10.7961C42.2869 3.9881 34.9925 0.0805679 29.4205 0.0805679V4.57221C33.6147 4.57221 39.8352 7.89563 46.4406 13.9583C43.6039 16.9192 40.7672 20.2829 38.0724 24.0092C33.4932 24.4926 29.1571 25.2378 25.1857 26.2248C24.7197 24.2106 24.3752 22.2568 24.1321 20.3836C23.1798 12.6894 24.355 6.70726 27.0904 5.11604C27.6982 4.75349 28.4884 4.59236 29.4205 4.59236V0.10071C27.7185 0.10071 26.1786 0.463264 24.8413 1.22866C19.1476 4.49165 17.8711 14.6633 20.8091 27.4333C8.20613 31.3005 0 37.4841 0 44.0101C0 50.5562 8.24665 56.7599 20.8902 60.607C17.9724 73.4173 19.2692 83.6091 24.9831 86.872C26.3001 87.6374 27.84 88 29.5421 88C35.1141 88 42.4085 84.0522 49.7838 77.2039C57.1592 84.0119 64.4536 87.9194 70.0256 87.9194C71.7276 87.9194 73.2676 87.5569 74.6049 86.7915C80.2985 83.5285 81.575 73.3568 78.637 60.5869C91.1995 56.7397 99.4056 50.536 99.4056 44.0101ZM73.0244 30.5754C72.2747 33.1737 71.3427 35.8526 70.289 38.5315C69.4583 36.9201 68.587 35.3088 67.6347 33.6974C66.7027 32.0861 65.7098 30.515 64.717 28.9842C67.5942 29.4072 70.3701 29.9309 73.0244 30.5754ZM63.7444 52.0265C62.1639 54.7457 60.543 57.3239 58.8612 59.7208C55.8422 59.9826 52.7826 60.1236 49.7028 60.1236C46.6432 60.1236 43.5837 59.9826 40.5849 59.7409C38.9031 57.344 37.2619 54.786 35.6815 52.087C34.1415 49.4484 32.7435 46.7695 31.467 44.0705C32.7232 41.3715 34.1415 38.6725 35.6612 36.0339C37.2416 33.3147 38.8626 30.7365 40.5443 28.3397C43.5634 28.0778 46.623 27.9368 49.7028 27.9368C52.7624 27.9368 55.8219 28.0778 58.8207 28.3195C60.5025 30.7164 62.1437 33.2744 63.7241 35.9734C65.264 38.612 66.6621 41.2909 67.9386 43.9899C66.6621 46.6889 65.264 49.388 63.7444 52.0265ZM70.289 49.4081C71.3832 52.1071 72.3152 54.8061 73.0852 57.4246C70.4309 58.0691 67.6347 58.6129 64.7372 59.0359C65.7301 57.485 66.7229 55.8938 67.655 54.2623C68.587 52.6509 69.4583 51.0194 70.289 49.4081ZM49.7433 70.8995C47.859 68.9659 45.9746 66.8107 44.1105 64.4541C45.9341 64.5347 47.7982 64.5951 49.6825 64.5951C51.5872 64.5951 53.4715 64.5548 55.3154 64.4541C53.4918 66.8107 51.6074 68.9659 49.7433 70.8995ZM34.6684 59.0359C31.7911 58.6129 29.0152 58.0893 26.3609 57.4447C27.1106 54.8464 28.0427 52.1675 29.0963 49.4887C29.927 51.1 30.7983 52.7114 31.7506 54.3227C32.7029 55.9341 33.6755 57.5051 34.6684 59.0359ZM49.642 17.1206C51.5264 19.0542 53.4107 21.2094 55.2749 23.566C53.4513 23.4855 51.5872 23.425 49.7028 23.425C47.7982 23.425 45.9138 23.4653 44.07 23.566C45.8935 21.2094 47.7779 19.0542 49.642 17.1206ZM34.6481 28.9842C33.6553 30.5351 32.6624 32.1263 31.7304 33.7578C30.7983 35.3692 29.927 36.9805 29.0963 38.5919C28.0021 35.8929 27.0701 33.1939 26.3001 30.5754C28.9545 29.951 31.7506 29.4072 34.6481 28.9842ZM16.3109 54.2019C9.13818 51.1604 4.49817 47.1723 4.49817 44.0101C4.49817 40.8478 9.13818 36.8395 16.3109 33.8183C18.0535 33.073 19.9581 32.4083 21.9235 31.7839C23.0785 35.7317 24.5981 39.8407 26.4825 44.0504C24.6184 48.2399 23.119 52.3287 21.9843 56.2563C19.9784 55.6319 18.0737 54.9471 16.3109 54.2019ZM27.2119 82.9847C24.4563 81.4136 23.2608 75.4314 24.1929 67.7372C24.4158 65.8439 24.7805 63.8498 25.2262 61.8155C29.1976 62.7823 33.5337 63.5276 38.0926 64.011C40.828 67.7372 43.6647 71.1211 46.5217 74.0819C39.9162 80.1849 33.716 83.5285 29.5015 83.5285C28.5897 83.5083 27.8198 83.3271 27.2119 82.9847ZM75.2735 67.6365C76.2258 75.3307 75.0506 81.3129 72.3152 82.9041C71.7074 83.2666 70.9172 83.4278 69.9851 83.4278C65.7908 83.4278 59.5704 80.1044 52.965 74.0416C55.8017 71.0808 58.6384 67.7171 61.3332 63.9908C65.9124 63.5074 70.2485 62.7622 74.2199 61.7752C74.6859 63.8096 75.0506 65.7633 75.2735 67.6365ZM83.0744 54.2019C81.3318 54.9471 79.4272 55.6118 77.4618 56.2362C76.3069 52.2884 74.7872 48.1794 72.9028 43.9698C74.7669 39.7803 76.2663 35.6915 77.401 31.7638C79.407 32.3882 81.3116 33.073 83.0946 33.8183C90.2674 36.8597 94.9074 40.8478 94.9074 44.0101C94.8871 47.1723 90.2471 51.1806 83.0744 54.2019Z" fill="#61DAFB"/>
<path d="M49.6821 53.2149C54.7961 53.2149 58.9419 49.0937 58.9419 44.01C58.9419 38.9263 54.7961 34.8052 49.6821 34.8052C44.5681 34.8052 40.4224 38.9263 40.4224 44.01C40.4224 49.0937 44.5681 53.2149 49.6821 53.2149Z" fill="#61DAFB"/>
</svg>
