<svg width="126" height="24" viewBox="0 0 126 24" fill="none" xmlns="http://www.w3.org/2000/svg">
<path d="M2.39453 22.7812C1.62891 22.7812 0.988281 22.6836 0.472656 22.4883V20.1328C1.12891 20.2969 1.69922 20.3789 2.18359 20.3789C3.71484 20.3789 4.48047 19.4102 4.48047 17.4727V0.867188H7.29297V17.3789C7.29297 19.1289 6.875 20.4648 6.03906 21.3867C5.21094 22.3164 3.99609 22.7812 2.39453 22.7812ZM20.5508 18L20 16.1953H19.9062C19.2812 16.9844 18.6523 17.5234 18.0195 17.8125C17.3867 18.0938 16.5742 18.2344 15.582 18.2344C14.3086 18.2344 13.3125 17.8906 12.5938 17.2031C11.8828 16.5156 11.5273 15.543 11.5273 14.2852C11.5273 12.9492 12.0234 11.9414 13.0156 11.2617C14.0078 10.582 15.5195 10.2109 17.5508 10.1484L19.7891 10.0781V9.38672C19.7891 8.55859 19.5938 7.94141 19.2031 7.53516C18.8203 7.12109 18.2227 6.91406 17.4102 6.91406C16.7461 6.91406 16.1094 7.01172 15.5 7.20703C14.8906 7.40234 14.3047 7.63281 13.7422 7.89844L12.8516 5.92969C13.5547 5.5625 14.3242 5.28516 15.1602 5.09766C15.9961 4.90234 16.7852 4.80469 17.5273 4.80469C19.1758 4.80469 20.418 5.16406 21.2539 5.88281C22.0977 6.60156 22.5195 7.73047 22.5195 9.26953V18H20.5508ZM16.4492 16.125C17.4492 16.125 18.25 15.8477 18.8516 15.293C19.4609 14.7305 19.7656 13.9453 19.7656 12.9375V11.8125L18.1016 11.8828C16.8047 11.9297 15.8594 12.1484 15.2656 12.5391C14.6797 12.9219 14.3867 13.5117 14.3867 14.3086C14.3867 14.8867 14.5586 15.3359 14.9023 15.6562C15.2461 15.9688 15.7617 16.125 16.4492 16.125ZM30.3164 18L25.3945 5.03906H28.3008L30.9375 12.5742C31.3906 13.8398 31.6641 14.8633 31.7578 15.6445H31.8516C31.9219 15.082 32.1953 14.0586 32.6719 12.5742L35.3086 5.03906H38.2383L33.293 18H30.3164ZM49.3164 18L48.7656 16.1953H48.6719C48.0469 16.9844 47.418 17.5234 46.7852 17.8125C46.1523 18.0938 45.3398 18.2344 44.3477 18.2344C43.0742 18.2344 42.0781 17.8906 41.3594 17.2031C40.6484 16.5156 40.293 15.543 40.293 14.2852C40.293 12.9492 40.7891 11.9414 41.7812 11.2617C42.7734 10.582 44.2852 10.2109 46.3164 10.1484L48.5547 10.0781V9.38672C48.5547 8.55859 48.3594 7.94141 47.9688 7.53516C47.5859 7.12109 46.9883 6.91406 46.1758 6.91406C45.5117 6.91406 44.875 7.01172 44.2656 7.20703C43.6562 7.40234 43.0703 7.63281 42.5078 7.89844L41.6172 5.92969C42.3203 5.5625 43.0898 5.28516 43.9258 5.09766C44.7617 4.90234 45.5508 4.80469 46.293 4.80469C47.9414 4.80469 49.1836 5.16406 50.0195 5.88281C50.8633 6.60156 51.2852 7.73047 51.2852 9.26953V18H49.3164ZM45.2148 16.125C46.2148 16.125 47.0156 15.8477 47.6172 15.293C48.2266 14.7305 48.5312 13.9453 48.5312 12.9375V11.8125L46.8672 11.8828C45.5703 11.9297 44.625 12.1484 44.0312 12.5391C43.4453 12.9219 43.1523 13.5117 43.1523 14.3086C43.1523 14.8867 43.3242 15.3359 43.668 15.6562C44.0117 15.9688 44.5273 16.125 45.2148 16.125ZM66.3008 13.3477C66.3008 14.8711 65.75 16.0664 64.6484 16.9336C63.5469 17.8008 62.0273 18.2344 60.0898 18.2344C58.1523 18.2344 56.5664 17.9336 55.332 17.332V14.6836C56.1133 15.0508 56.9414 15.3398 57.8164 15.5508C58.6992 15.7617 59.5195 15.8672 60.2773 15.8672C61.3867 15.8672 62.2031 15.6562 62.7266 15.2344C63.2578 14.8125 63.5234 14.2461 63.5234 13.5352C63.5234 12.8945 63.2812 12.3516 62.7969 11.9062C62.3125 11.4609 61.3125 10.9336 59.7969 10.3242C58.2344 9.69141 57.1328 8.96875 56.4922 8.15625C55.8516 7.34375 55.5312 6.36719 55.5312 5.22656C55.5312 3.79688 56.0391 2.67188 57.0547 1.85156C58.0703 1.03125 59.4336 0.621094 61.1445 0.621094C62.7852 0.621094 64.418 0.980469 66.043 1.69922L65.1523 3.98438C63.6289 3.34375 62.2695 3.02344 61.0742 3.02344C60.168 3.02344 59.4805 3.22266 59.0117 3.62109C58.543 4.01172 58.3086 4.53125 58.3086 5.17969C58.3086 5.625 58.4023 6.00781 58.5898 6.32812C58.7773 6.64062 59.0859 6.9375 59.5156 7.21875C59.9453 7.5 60.7188 7.87109 61.8359 8.33203C63.0938 8.85547 64.0156 9.34375 64.6016 9.79688C65.1875 10.25 65.6172 10.7617 65.8906 11.332C66.1641 11.9023 66.3008 12.5742 66.3008 13.3477ZM75.5508 18.2344C73.5898 18.2344 72.0977 17.6641 71.0742 16.5234C70.0586 15.375 69.5508 13.7305 69.5508 11.5898C69.5508 9.41016 70.082 7.73438 71.1445 6.5625C72.2148 5.39062 73.7578 4.80469 75.7734 4.80469C77.1406 4.80469 78.3711 5.05859 79.4648 5.56641L78.6328 7.78125C77.4688 7.32812 76.5078 7.10156 75.75 7.10156C73.5078 7.10156 72.3867 8.58984 72.3867 11.5664C72.3867 13.0195 72.6641 14.1133 73.2188 14.8477C73.7812 15.5742 74.6016 15.9375 75.6797 15.9375C76.9062 15.9375 78.0664 15.6328 79.1602 15.0234V17.4258C78.668 17.7148 78.1406 17.9219 77.5781 18.0469C77.0234 18.1719 76.3477 18.2344 75.5508 18.2344ZM89.7812 4.80469C90.3359 4.80469 90.793 4.84375 91.1523 4.92188L90.8828 7.48828C90.4922 7.39453 90.0859 7.34766 89.6641 7.34766C88.5625 7.34766 87.668 7.70703 86.9805 8.42578C86.3008 9.14453 85.9609 10.0781 85.9609 11.2266V18H83.207V5.03906H85.3633L85.7266 7.32422H85.8672C86.2969 6.55078 86.8555 5.9375 87.543 5.48438C88.2383 5.03125 88.9844 4.80469 89.7812 4.80469ZM97.3203 18H94.5664V5.03906H97.3203V18ZM94.4023 1.60547C94.4023 1.11328 94.5352 0.734375 94.8008 0.46875C95.0742 0.203125 95.4609 0.0703125 95.9609 0.0703125C96.4453 0.0703125 96.8203 0.203125 97.0859 0.46875C97.3594 0.734375 97.4961 1.11328 97.4961 1.60547C97.4961 2.07422 97.3594 2.44531 97.0859 2.71875C96.8203 2.98438 96.4453 3.11719 95.9609 3.11719C95.4609 3.11719 95.0742 2.98438 94.8008 2.71875C94.5352 2.44531 94.4023 2.07422 94.4023 1.60547ZM108.844 18.2344C107.203 18.2344 105.93 17.6445 105.023 16.4648H104.859C104.969 17.5586 105.023 18.2227 105.023 18.457V23.7656H102.27V5.03906H104.496C104.559 5.28125 104.688 5.85938 104.883 6.77344H105.023C105.883 5.46094 107.172 4.80469 108.891 4.80469C110.508 4.80469 111.766 5.39062 112.664 6.5625C113.57 7.73438 114.023 9.37891 114.023 11.4961C114.023 13.6133 113.562 15.2656 112.641 16.4531C111.727 17.6406 110.461 18.2344 108.844 18.2344ZM108.176 7.05469C107.082 7.05469 106.281 7.375 105.773 8.01562C105.273 8.65625 105.023 9.67969 105.023 11.0859V11.4961C105.023 13.0742 105.273 14.2188 105.773 14.9297C106.273 15.6328 107.09 15.9844 108.223 15.9844C109.176 15.9844 109.91 15.5938 110.426 14.8125C110.941 14.0312 111.199 12.918 111.199 11.4727C111.199 10.0195 110.941 8.92188 110.426 8.17969C109.918 7.42969 109.168 7.05469 108.176 7.05469ZM123.051 16.0078C123.723 16.0078 124.395 15.9023 125.066 15.6914V17.7656C124.762 17.8984 124.367 18.0078 123.883 18.0938C123.406 18.1875 122.91 18.2344 122.395 18.2344C119.785 18.2344 118.48 16.8594 118.48 14.1094V7.125H116.711V5.90625L118.609 4.89844L119.547 2.15625H121.246V5.03906H124.938V7.125H121.246V14.0625C121.246 14.7266 121.41 15.2188 121.738 15.5391C122.074 15.8516 122.512 16.0078 123.051 16.0078Z" fill="black"/>
</svg>
