<svg width="88" height="88" viewBox="0 0 88 88" fill="none" xmlns="http://www.w3.org/2000/svg">
<path d="M43.6828 0C21.3429 1.60224e-06 22.738 9.73863 22.738 9.73863L22.7629 19.8277H44.0813V22.857H14.2953C14.2953 22.857 0 21.2273 0 43.8864C-1.5939e-06 66.5455 12.4772 65.742 12.4772 65.742H19.9237V55.2273C19.9237 55.2273 19.5223 42.6847 32.2017 42.6847C44.8811 42.6847 53.3458 42.6847 53.3458 42.6847C53.3458 42.6847 65.2253 42.8778 65.2253 31.1436C65.2253 19.4094 65.2253 11.7414 65.2253 11.7414C65.2253 11.7414 67.029 0 43.6828 0ZM31.9278 6.78449C34.0488 6.78449 35.7631 8.50776 35.7631 10.6399C35.7631 12.772 34.0488 14.4953 31.9278 14.4953C29.8068 14.4953 28.0925 12.772 28.0925 10.6399C28.0925 8.50776 29.8068 6.78449 31.9278 6.78449Z" fill="url(#paint0_linear)"/>
<path d="M44.3175 87.9999C66.6574 87.9999 65.2623 78.2613 65.2623 78.2613L65.2374 68.1722H43.919V65.1429H73.705C73.705 65.1429 88.0003 66.7726 88.0003 44.1135C88.0003 21.4544 75.5231 22.2579 75.5231 22.2579H68.0766V32.7726C68.0766 32.7726 68.478 45.3152 55.7986 45.3152C43.1192 45.3152 34.6545 45.3152 34.6545 45.3152C34.6545 45.3152 22.775 45.1221 22.775 56.8563C22.775 68.5905 22.775 76.2585 22.775 76.2585C22.775 76.2585 20.9713 87.9999 44.3175 87.9999ZM56.0725 81.2154C53.9515 81.2154 52.2372 79.4921 52.2372 77.36C52.2372 75.2279 53.9515 73.5046 56.0725 73.5046C58.1935 73.5046 59.9078 75.2279 59.9078 77.36C59.9078 79.4921 58.1935 81.2154 56.0725 81.2154Z" fill="url(#paint1_linear)"/>
<defs>
<linearGradient id="paint0_linear" x1="8.45697" y1="7.69198" x2="52.1983" y2="51.3511" gradientUnits="userSpaceOnUse">
<stop stop-color="#387EB8"/>
<stop offset="1" stop-color="#366994"/>
</linearGradient>
<linearGradient id="paint1_linear" x1="35.2248" y1="35.6111" x2="82.1919" y2="80.3737" gradientUnits="userSpaceOnUse">
<stop stop-color="#FFE052"/>
<stop offset="1" stop-color="#FFC331"/>
</linearGradient>
</defs>
</svg>
