<svg width="82" height="24" viewBox="0 0 82 24" fill="none" xmlns="http://www.w3.org/2000/svg">
<path d="M8.11328 18L3.14453 3.69141H3.05078C3.18359 5.81641 3.25 7.80859 3.25 9.66797V18H0.707031V0.867188H4.65625L9.41406 14.4961H9.48438L14.3828 0.867188H18.3438V18H15.6484V9.52734C15.6484 8.67578 15.668 7.56641 15.707 6.19922C15.7539 4.83203 15.793 4.00391 15.8242 3.71484H15.7305L10.5859 18H8.11328ZM21.5938 5.03906H24.5938L27.2305 12.3867C27.6289 13.4336 27.8945 14.418 28.0273 15.3398H28.1211C28.1914 14.9102 28.3203 14.3906 28.5078 13.7812C28.6953 13.1641 29.6875 10.25 31.4844 5.03906H34.4609L28.918 19.7227C27.9102 22.418 26.2305 23.7656 23.8789 23.7656C23.2695 23.7656 22.6758 23.6992 22.0977 23.5664V21.3867C22.5117 21.4805 22.9844 21.5273 23.5156 21.5273C24.8438 21.5273 25.7773 20.7578 26.3164 19.2188L26.7969 18L21.5938 5.03906ZM47.6016 13.3477C47.6016 14.8711 47.0508 16.0664 45.9492 16.9336C44.8477 17.8008 43.3281 18.2344 41.3906 18.2344C39.4531 18.2344 37.8672 17.9336 36.6328 17.332V14.6836C37.4141 15.0508 38.2422 15.3398 39.1172 15.5508C40 15.7617 40.8203 15.8672 41.5781 15.8672C42.6875 15.8672 43.5039 15.6562 44.0273 15.2344C44.5586 14.8125 44.8242 14.2461 44.8242 13.5352C44.8242 12.8945 44.582 12.3516 44.0977 11.9062C43.6133 11.4609 42.6133 10.9336 41.0977 10.3242C39.5352 9.69141 38.4336 8.96875 37.793 8.15625C37.1523 7.34375 36.832 6.36719 36.832 5.22656C36.832 3.79688 37.3398 2.67188 38.3555 1.85156C39.3711 1.03125 40.7344 0.621094 42.4453 0.621094C44.0859 0.621094 45.7188 0.980469 47.3438 1.69922L46.4531 3.98438C44.9297 3.34375 43.5703 3.02344 42.375 3.02344C41.4688 3.02344 40.7812 3.22266 40.3125 3.62109C39.8438 4.01172 39.6094 4.53125 39.6094 5.17969C39.6094 5.625 39.7031 6.00781 39.8906 6.32812C40.0781 6.64062 40.3867 6.9375 40.8164 7.21875C41.2461 7.5 42.0195 7.87109 43.1367 8.33203C44.3945 8.85547 45.3164 9.34375 45.9023 9.79688C46.4883 10.25 46.918 10.7617 47.1914 11.332C47.4648 11.9023 47.6016 12.5742 47.6016 13.3477ZM67.1289 9.41016C67.1289 11.4883 66.7305 13.2383 65.9336 14.6602C65.1445 16.082 63.9922 17.082 62.4766 17.6602L66.5781 22.0781H62.8047L59.5703 18.2344H59.1133C56.5273 18.2344 54.5391 17.4688 53.1484 15.9375C51.7656 14.3984 51.0742 12.2148 51.0742 9.38672C51.0742 6.55859 51.7695 4.38672 53.1602 2.87109C54.5586 1.35547 56.5508 0.597656 59.1367 0.597656C61.6836 0.597656 63.6523 1.36719 65.043 2.90625C66.4336 4.44531 67.1289 6.61328 67.1289 9.41016ZM54.0508 9.41016C54.0508 11.5195 54.4766 13.1211 55.3281 14.2148C56.1797 15.3008 57.4414 15.8438 59.1133 15.8438C60.7773 15.8438 62.0312 15.3047 62.875 14.2266C63.7266 13.1484 64.1523 11.543 64.1523 9.41016C64.1523 7.30859 63.7305 5.71484 62.8867 4.62891C62.0508 3.54297 60.8008 3 59.1367 3C57.457 3 56.1875 3.54297 55.3281 4.62891C54.4766 5.71484 54.0508 7.30859 54.0508 9.41016ZM71.8086 18V0.867188H74.6094V15.5977H81.8633V18H71.8086Z" fill="#F29111"/>
</svg>
