<svg width="40" height="40" viewBox="0 0 89 88" fill="#fff" xmlns="http://www.w3.org/2000/svg">
<path fill-rule="evenodd" clip-rule="evenodd" d="M81.9762 68.0753C77.1254 67.9581 73.3742 68.4402 70.2309 69.7824C69.3255 70.1473 67.8767 70.1473 67.7474 71.3071C68.2389 71.7892 68.2906 72.5841 68.7175 73.2617C69.4419 74.4867 70.7095 76.1286 71.8608 76.9756C73.1284 77.953 74.409 78.9303 75.7413 79.7773C78.0956 81.2498 80.7602 82.0969 83.0627 83.5564C84.395 84.4034 85.7274 85.511 87.0597 86.4232C87.7194 86.9054 88.1463 87.7003 89 88V87.8176C88.5731 87.2703 88.4567 86.4753 88.0299 85.8629C87.4219 85.2635 86.8139 84.7031 86.206 84.1037C84.4468 81.719 82.2737 79.647 79.9065 77.9399C77.9662 76.5977 73.7234 74.7603 72.9473 72.519C72.9473 72.519 72.8827 72.4538 72.8309 72.3887C74.1632 72.2714 75.7413 71.7762 77.009 71.4113C79.0657 70.864 80.9413 70.9813 83.0627 70.434C84.0329 70.1864 85.003 69.8867 85.9732 69.587V69.0397C84.8736 67.945 84.0975 66.4725 82.9463 65.4431C79.8677 62.7586 76.4657 60.1394 72.9603 57.9371C71.0847 56.7122 68.6528 55.9303 66.6608 54.8878C65.9364 54.5229 64.7334 54.3405 64.3066 53.728C63.22 52.3858 62.6121 50.6266 61.823 49.0368C60.0638 45.6878 58.3693 41.9739 56.8558 38.4295C55.7693 36.0578 55.0966 33.6731 53.7643 31.4839C47.5295 21.1111 40.7514 14.83 30.3385 8.67933C28.1007 7.40228 25.4361 6.84194 22.5903 6.17735C21.0769 6.11219 19.5635 5.99491 18.05 5.92976C17.0799 5.49973 16.1097 4.33995 15.2689 3.79265C11.8152 1.60341 2.91576 -3.15296 0.380447 3.12806C-1.2494 7.08953 2.79935 10.9989 4.19636 13.0057C5.21825 14.413 6.56351 15.9898 7.27495 17.5796C7.70181 18.6221 7.81823 19.7167 8.2451 20.8113C9.21524 23.4958 10.1207 26.4799 11.3884 28.9819C12.0481 30.2589 12.7724 31.6011 13.6262 32.7609C14.1177 33.4385 14.9585 33.7382 15.1396 34.8329C14.2988 36.0448 14.2341 37.8822 13.7426 39.4068C11.5695 46.3003 12.4103 54.8357 15.5018 59.9048C16.4719 61.4295 18.7744 64.7915 21.8659 63.5014C24.5953 62.4068 23.9873 58.9275 24.7764 55.8782C24.9575 55.1354 24.841 54.6533 25.2032 54.1711V54.2884C26.044 55.9955 26.8978 57.6374 27.6868 59.3445C29.5624 62.3286 32.835 65.4431 35.5644 67.515C37.0131 68.6227 38.1644 70.4991 39.9753 71.1768V70.9943H39.8589C39.4967 70.447 38.9534 70.1994 38.4619 69.7824C37.3753 68.6878 36.1594 67.3456 35.3186 66.1207C32.7833 62.7065 30.5326 58.9275 28.5405 55.0181C27.5704 53.1286 26.7296 51.0567 25.9405 49.1671C25.5784 48.4374 25.5784 47.3428 24.9704 46.9779C24.0649 48.3201 22.7326 49.4799 22.06 51.1218C20.9087 53.7411 20.7923 56.9858 20.3654 60.3348C20.1197 60.4 20.249 60.3348 20.1197 60.4521C18.1794 59.97 17.5197 57.9501 16.7953 56.2561C14.9844 51.9167 14.6739 44.9711 16.252 39.9671C16.6789 38.6901 18.4898 34.6635 17.7655 33.4385C17.4033 32.2788 16.1874 31.6142 15.5277 30.689C14.7386 29.5292 13.8849 28.0697 13.3545 26.7796C11.9058 23.3654 11.1685 19.5864 9.6033 16.1722C8.87893 14.5824 7.59833 12.9405 6.57644 11.481C5.4252 9.8391 4.15756 8.67933 3.23915 6.72466C2.94164 6.04704 2.51477 4.95242 2.99338 4.22267C3.1098 3.74052 3.35556 3.54505 3.8471 3.42777C4.63615 2.76318 6.87396 3.61021 7.66301 3.97508C9.90081 4.88726 11.7764 5.74732 13.652 7.02437C14.5058 7.63684 15.4112 8.79661 16.4978 9.09633H17.7655C19.7057 9.51332 21.8789 9.21361 23.7028 9.76092C26.9107 10.8034 29.8082 12.3281 32.4211 13.97C40.3504 19.0391 46.8828 26.2323 51.3066 34.8329C52.031 36.2272 52.3414 37.5173 53.0011 38.9768C54.2688 41.9739 55.8469 45.0232 57.1146 47.9422C58.3822 50.8091 59.5981 53.728 61.422 56.1127C62.3275 57.3898 65.9623 58.0674 67.5921 58.732C68.7951 59.2793 70.6837 59.7615 71.7702 60.4391C73.8269 61.7161 75.8836 63.1887 77.8239 64.583C78.7682 65.3258 81.7951 66.8504 81.9762 68.0753Z" fill="#00758F"/>
</svg>
