<svg width="88" height="88" viewBox="0 0 88 88" fill="none" xmlns="http://www.w3.org/2000/svg">
<path d="M0 0H88V88H0V0Z" fill="#F7DF1E"/>
<path d="M23.1385 73.5389L29.8726 69.4634C31.172 71.7669 32.3538 73.716 35.1887 73.716C37.906 73.716 39.6196 72.6531 39.6196 68.5184V40.4004H47.8892V68.6353C47.8892 77.2005 42.8684 81.0994 35.5431 81.0994C28.9276 81.0994 25.0876 77.6732 23.1382 73.5382" fill="black"/>
<path d="M52.3812 72.6531L59.1146 68.7546C60.8873 71.6493 63.1911 73.7758 67.2666 73.7758C70.6935 73.7758 72.8783 72.0625 72.8783 69.6996C72.8783 66.8643 70.6336 65.8599 66.8531 64.2064L64.7861 63.3196C58.8196 60.7803 54.862 57.5903 54.862 50.8562C54.862 44.6536 59.5876 39.9277 66.9717 39.9277C72.229 39.9277 76.0095 41.7592 78.7265 46.5439L72.2874 50.6792C70.8694 48.1392 69.3343 47.1351 66.9713 47.1351C64.5493 47.1351 63.0134 48.671 63.0134 50.6792C63.0134 53.16 64.5493 54.1648 68.0933 55.7007L70.1606 56.5865C77.1903 59.5995 81.1479 62.6709 81.1479 69.5817C81.1479 77.0252 75.3 81.1007 67.4436 81.1007C59.7646 81.1007 54.8026 77.4384 52.3809 72.6534" fill="black"/>
</svg>
